G04 EAGLE Gerber RS-274X export*
G75*
%MOMM*%
%FSLAX34Y34*%
%LPD*%
%INBottom Copper*%
%IPPOS*%
%AMOC8*
5,1,8,0,0,1.08239X$1,22.5*%
G01*
G04 Define Apertures*
%ADD10C,1.524000*%
%ADD11P,1.42962X8X292.5*%
%ADD12P,1.42962X8X22.5*%
%ADD13C,1.498000*%
%ADD14R,1.498000X1.498000*%
%ADD15C,1.778000*%
%ADD16C,1.790700*%
%ADD17P,2.06195X8X112.5*%
%ADD18C,0.812800*%
G36*
X467063Y4894D02*
X465478Y4572D01*
X43321Y4572D01*
X41916Y4822D01*
X40540Y5672D01*
X39604Y6991D01*
X39257Y8571D01*
X39554Y10161D01*
X40447Y11510D01*
X45123Y16186D01*
X48103Y23379D01*
X48103Y31165D01*
X45123Y38359D01*
X39617Y43865D01*
X32424Y46844D01*
X24638Y46844D01*
X17444Y43865D01*
X11510Y37930D01*
X10340Y37114D01*
X8766Y36742D01*
X7171Y37013D01*
X5809Y37885D01*
X4894Y39219D01*
X4572Y40804D01*
X4572Y107635D01*
X4834Y109070D01*
X5694Y110439D01*
X7021Y111365D01*
X8604Y111699D01*
X10191Y111390D01*
X14948Y109420D01*
X20352Y109420D01*
X25346Y111488D01*
X26147Y112289D01*
X27347Y113119D01*
X28924Y113478D01*
X30516Y113194D01*
X31871Y112312D01*
X32775Y110971D01*
X33545Y109112D01*
X48306Y94352D01*
X52041Y92805D01*
X53009Y92632D01*
X54386Y91782D01*
X55321Y90463D01*
X55668Y88883D01*
X55372Y87293D01*
X54479Y85945D01*
X51700Y83166D01*
X47807Y76423D01*
X45792Y68902D01*
X45792Y61115D01*
X47807Y53594D01*
X51700Y46851D01*
X57206Y41345D01*
X63949Y37452D01*
X71471Y35437D01*
X79257Y35437D01*
X86778Y37452D01*
X93521Y41345D01*
X99027Y46851D01*
X102920Y53594D01*
X104936Y61115D01*
X104936Y68902D01*
X102920Y76423D01*
X99027Y83166D01*
X96249Y85945D01*
X95433Y87115D01*
X95061Y88689D01*
X95332Y90283D01*
X96203Y91646D01*
X97538Y92560D01*
X99123Y92882D01*
X125357Y92882D01*
X126761Y92632D01*
X128137Y91782D01*
X129073Y90463D01*
X129420Y88883D01*
X129123Y87293D01*
X128230Y85945D01*
X118817Y76532D01*
X117348Y72984D01*
X117348Y36156D01*
X117051Y34631D01*
X116158Y33282D01*
X114300Y31425D01*
X114300Y20904D01*
X121740Y13464D01*
X132261Y13464D01*
X139700Y20904D01*
X139700Y31425D01*
X137842Y33282D01*
X136974Y34571D01*
X136652Y36156D01*
X136652Y65383D01*
X136949Y66908D01*
X137842Y68257D01*
X161278Y91692D01*
X162566Y92560D01*
X164151Y92882D01*
X232208Y92882D01*
X235755Y94352D01*
X250092Y108689D01*
X251262Y109505D01*
X252836Y109877D01*
X254431Y109606D01*
X255794Y108734D01*
X256708Y107400D01*
X257030Y105815D01*
X257030Y64952D01*
X256733Y63427D01*
X255840Y62078D01*
X253924Y60162D01*
X251633Y54631D01*
X251633Y30737D01*
X253924Y25205D01*
X258157Y20972D01*
X263689Y18681D01*
X269676Y18681D01*
X275207Y20972D01*
X279440Y25205D01*
X281732Y30737D01*
X281732Y54631D01*
X279440Y60162D01*
X277524Y62078D01*
X276656Y63367D01*
X276334Y64952D01*
X276334Y133247D01*
X276631Y134772D01*
X277524Y136121D01*
X286935Y145532D01*
X288224Y146400D01*
X289809Y146722D01*
X296567Y146722D01*
X305718Y155872D01*
X305718Y168813D01*
X296567Y177964D01*
X283626Y177964D01*
X274476Y168813D01*
X274476Y162055D01*
X274178Y160530D01*
X273285Y159182D01*
X248286Y134182D01*
X247056Y133339D01*
X245477Y132992D01*
X243887Y133289D01*
X242538Y134182D01*
X217168Y159552D01*
X216299Y160841D01*
X215977Y162426D01*
X215977Y165053D01*
X208538Y172493D01*
X198017Y172493D01*
X190577Y165053D01*
X190577Y154532D01*
X198017Y147093D01*
X200644Y147093D01*
X202169Y146796D01*
X203518Y145902D01*
X228888Y120532D01*
X229731Y119303D01*
X230078Y117723D01*
X229781Y116133D01*
X228888Y114785D01*
X227480Y113377D01*
X226192Y112508D01*
X224607Y112186D01*
X139194Y112186D01*
X137790Y112437D01*
X136413Y113286D01*
X135478Y114606D01*
X135131Y116185D01*
X135427Y117775D01*
X136320Y119124D01*
X139700Y122504D01*
X139700Y133374D01*
X139997Y134899D01*
X140890Y136248D01*
X189024Y184382D01*
X190313Y185250D01*
X191898Y185572D01*
X248634Y185572D01*
X252182Y187042D01*
X262361Y197221D01*
X263650Y198089D01*
X265235Y198411D01*
X275974Y198411D01*
X277499Y198114D01*
X278847Y197221D01*
X283626Y192442D01*
X296567Y192442D01*
X298360Y194235D01*
X299649Y195104D01*
X301234Y195426D01*
X428067Y195426D01*
X431614Y196895D01*
X446195Y211476D01*
X447513Y212357D01*
X447940Y212533D01*
X452155Y216748D01*
X452363Y217070D01*
X453682Y218006D01*
X455262Y218353D01*
X456852Y218056D01*
X458200Y217163D01*
X459815Y215548D01*
X463285Y214111D01*
X463285Y249451D01*
X459815Y248014D01*
X458200Y246399D01*
X457001Y245570D01*
X455424Y245210D01*
X453831Y245494D01*
X452476Y246376D01*
X452234Y246735D01*
X447940Y251029D01*
X442899Y253117D01*
X437442Y253117D01*
X432401Y251029D01*
X430344Y248972D01*
X429115Y248130D01*
X427535Y247783D01*
X425945Y248079D01*
X424597Y248972D01*
X422540Y251029D01*
X417499Y253117D01*
X412042Y253117D01*
X407001Y251029D01*
X403143Y247171D01*
X401055Y242130D01*
X401055Y241464D01*
X400781Y239999D01*
X399910Y238636D01*
X398576Y237722D01*
X396991Y237400D01*
X288764Y237400D01*
X287359Y237650D01*
X285983Y238500D01*
X285047Y239819D01*
X284700Y241399D01*
X284997Y242989D01*
X285890Y244338D01*
X326083Y284530D01*
X327552Y288078D01*
X327552Y312134D01*
X327849Y313659D01*
X328742Y315008D01*
X330658Y316924D01*
X332950Y322455D01*
X332950Y346349D01*
X330658Y351881D01*
X326425Y356114D01*
X320894Y358405D01*
X314907Y358405D01*
X309375Y356114D01*
X305142Y351881D01*
X302851Y346349D01*
X302851Y322455D01*
X305142Y316924D01*
X307058Y315008D01*
X307926Y313719D01*
X308248Y312134D01*
X308248Y295679D01*
X307951Y294154D01*
X307058Y292805D01*
X237719Y223467D01*
X236431Y222599D01*
X234846Y222277D01*
X213192Y222277D01*
X211667Y222574D01*
X210318Y223467D01*
X208461Y225325D01*
X197940Y225325D01*
X190500Y217885D01*
X190500Y208940D01*
X190227Y207475D01*
X189355Y206113D01*
X188021Y205198D01*
X186436Y204876D01*
X184297Y204876D01*
X180749Y203407D01*
X118817Y141475D01*
X117348Y137927D01*
X117348Y137756D01*
X117051Y136231D01*
X116158Y134882D01*
X114300Y133025D01*
X114300Y122504D01*
X117680Y119124D01*
X118496Y117954D01*
X118868Y116380D01*
X118597Y114785D01*
X117725Y113423D01*
X116391Y112508D01*
X114806Y112186D01*
X80300Y112186D01*
X78835Y112459D01*
X77473Y113331D01*
X76558Y114665D01*
X76236Y116250D01*
X76236Y119018D01*
X76533Y120543D01*
X77426Y121892D01*
X101437Y145902D01*
X102726Y146771D01*
X104311Y147093D01*
X106938Y147093D01*
X114377Y154532D01*
X114377Y157953D01*
X114675Y159478D01*
X115568Y160827D01*
X263568Y308827D01*
X264857Y309696D01*
X266442Y310017D01*
X268912Y310017D01*
X274443Y312309D01*
X278676Y316542D01*
X280968Y322073D01*
X280968Y345967D01*
X278676Y351499D01*
X274443Y355732D01*
X268912Y358023D01*
X262925Y358023D01*
X257393Y355732D01*
X253160Y351499D01*
X250869Y345967D01*
X250869Y325111D01*
X250571Y323585D01*
X249678Y322237D01*
X101124Y173683D01*
X99836Y172815D01*
X98251Y172493D01*
X96212Y172493D01*
X95720Y172149D01*
X94146Y171777D01*
X92551Y172048D01*
X91189Y172920D01*
X90274Y174254D01*
X89952Y175839D01*
X89952Y201530D01*
X90202Y202934D01*
X91052Y204310D01*
X92371Y205246D01*
X93951Y205593D01*
X95541Y205297D01*
X96890Y204403D01*
X97812Y203481D01*
X99314Y203481D01*
X99314Y210339D01*
X92320Y210339D01*
X92206Y209695D01*
X91356Y208318D01*
X90037Y207383D01*
X88457Y207035D01*
X86867Y207332D01*
X85518Y208225D01*
X77426Y216317D01*
X76558Y217606D01*
X76236Y219191D01*
X76236Y219903D01*
X75308Y222143D01*
X73593Y223858D01*
X71353Y224786D01*
X53947Y224786D01*
X51707Y223858D01*
X49992Y222143D01*
X49064Y219903D01*
X49064Y202498D01*
X49992Y200257D01*
X50213Y200037D01*
X51068Y198778D01*
X51403Y197195D01*
X51094Y195608D01*
X49064Y190708D01*
X49064Y185303D01*
X51132Y180310D01*
X54954Y176488D01*
X59948Y174420D01*
X61254Y174420D01*
X62659Y174169D01*
X64035Y173319D01*
X64971Y172000D01*
X65318Y170420D01*
X65021Y168830D01*
X64128Y167482D01*
X33545Y136899D01*
X32775Y135041D01*
X31985Y133815D01*
X30665Y132879D01*
X29085Y132532D01*
X27495Y132829D01*
X26147Y133722D01*
X25346Y134523D01*
X20352Y136592D01*
X14948Y136592D01*
X10191Y134621D01*
X8766Y134314D01*
X7171Y134585D01*
X5809Y135457D01*
X4894Y136791D01*
X4572Y138376D01*
X4572Y177088D01*
X4822Y178492D01*
X5672Y179868D01*
X6991Y180804D01*
X8571Y181151D01*
X10161Y180855D01*
X11510Y179961D01*
X11968Y179503D01*
X15364Y178096D01*
X15364Y190292D01*
X27560Y190292D01*
X26153Y193687D01*
X25625Y194215D01*
X24783Y195444D01*
X24436Y197024D01*
X24732Y198614D01*
X25625Y199962D01*
X29168Y203504D01*
X31236Y208498D01*
X31236Y213903D01*
X29168Y218896D01*
X25346Y222718D01*
X20352Y224786D01*
X14948Y224786D01*
X10191Y222816D01*
X8766Y222509D01*
X7171Y222780D01*
X5809Y223652D01*
X4894Y224986D01*
X4572Y226571D01*
X4572Y260830D01*
X4834Y262265D01*
X5694Y263634D01*
X7021Y264559D01*
X8604Y264894D01*
X10191Y264584D01*
X14948Y262614D01*
X20352Y262614D01*
X25346Y264683D01*
X29168Y268504D01*
X31236Y273498D01*
X31236Y274453D01*
X31533Y275978D01*
X32426Y277327D01*
X52878Y297778D01*
X54166Y298647D01*
X55751Y298968D01*
X113284Y298968D01*
X114749Y298695D01*
X116112Y297824D01*
X117026Y296490D01*
X117348Y294904D01*
X117348Y263992D01*
X117051Y262467D01*
X116158Y261118D01*
X114300Y259261D01*
X114300Y248740D01*
X121740Y241300D01*
X132261Y241300D01*
X139700Y248740D01*
X139700Y259261D01*
X137842Y261118D01*
X136974Y262407D01*
X136652Y263992D01*
X136652Y302939D01*
X136949Y304464D01*
X137842Y305813D01*
X155208Y323178D01*
X156496Y324047D01*
X158081Y324368D01*
X197202Y324368D01*
X198698Y324083D01*
X200053Y323201D01*
X200957Y321860D01*
X203160Y316542D01*
X207393Y312309D01*
X212925Y310017D01*
X218912Y310017D01*
X224443Y312309D01*
X228676Y316542D01*
X230968Y322073D01*
X230968Y345967D01*
X228676Y351499D01*
X224443Y355732D01*
X218912Y358023D01*
X212925Y358023D01*
X207393Y355732D01*
X203160Y351499D01*
X200957Y346181D01*
X200122Y344909D01*
X198787Y343994D01*
X197202Y343672D01*
X150480Y343672D01*
X146933Y342203D01*
X124192Y319463D01*
X122904Y318594D01*
X121319Y318272D01*
X48150Y318272D01*
X44603Y316803D01*
X18776Y290977D01*
X17488Y290108D01*
X15903Y289786D01*
X14948Y289786D01*
X10191Y287816D01*
X8766Y287509D01*
X7171Y287780D01*
X5809Y288652D01*
X4894Y289986D01*
X4572Y291571D01*
X4572Y335838D01*
X4822Y337243D01*
X5672Y338619D01*
X6991Y339555D01*
X8571Y339902D01*
X10161Y339605D01*
X11510Y338712D01*
X14274Y335948D01*
X21468Y332968D01*
X29254Y332968D01*
X36447Y335948D01*
X41953Y341453D01*
X44933Y348647D01*
X44933Y356433D01*
X41953Y363627D01*
X39389Y366190D01*
X38573Y367360D01*
X38201Y368934D01*
X38472Y370529D01*
X39344Y371892D01*
X40678Y372806D01*
X42263Y373128D01*
X465738Y373128D01*
X467142Y372878D01*
X468518Y372028D01*
X469454Y370709D01*
X469801Y369129D01*
X469505Y367539D01*
X468611Y366190D01*
X466048Y363627D01*
X463068Y356433D01*
X463068Y348647D01*
X466048Y341453D01*
X467011Y340490D01*
X468008Y338854D01*
X468185Y337247D01*
X467720Y335697D01*
X467622Y335579D01*
X468215Y335992D01*
X469797Y336327D01*
X471385Y336017D01*
X478747Y332968D01*
X486533Y332968D01*
X493727Y335948D01*
X496290Y338511D01*
X497460Y339327D01*
X499034Y339700D01*
X500629Y339428D01*
X501992Y338557D01*
X502906Y337223D01*
X503228Y335638D01*
X503228Y41802D01*
X502978Y40398D01*
X502128Y39022D01*
X500809Y38086D01*
X499229Y37739D01*
X497639Y38035D01*
X496290Y38929D01*
X492940Y42279D01*
X485746Y45259D01*
X477960Y45259D01*
X470767Y42279D01*
X465261Y36773D01*
X462281Y29580D01*
X462281Y21794D01*
X465261Y14600D01*
X468351Y11510D01*
X469167Y10340D01*
X469540Y8766D01*
X469268Y7171D01*
X468397Y5809D01*
X467063Y4894D01*
G37*
%LPC*%
G36*
X129286Y357886D02*
X136144Y357886D01*
X136144Y359388D01*
X130788Y364744D01*
X129286Y364744D01*
X129286Y357886D01*
G37*
G36*
X117856Y357886D02*
X124714Y357886D01*
X124714Y364744D01*
X123212Y364744D01*
X117856Y359388D01*
X117856Y357886D01*
G37*
G36*
X356407Y336688D02*
X365614Y336688D01*
X365614Y354849D01*
X365614Y354849D01*
X361389Y353099D01*
X358156Y349866D01*
X356407Y345642D01*
X356407Y336688D01*
G37*
G36*
X370186Y336688D02*
X379394Y336688D01*
X379394Y345642D01*
X377644Y349866D01*
X374411Y353099D01*
X370186Y354849D01*
X370186Y354849D01*
X370186Y336688D01*
G37*
G36*
X129286Y346456D02*
X130788Y346456D01*
X136144Y351812D01*
X136144Y353314D01*
X129286Y353314D01*
X129286Y346456D01*
G37*
G36*
X123212Y346456D02*
X124714Y346456D01*
X124714Y353314D01*
X117856Y353314D01*
X117856Y351812D01*
X123212Y346456D01*
G37*
G36*
X440393Y280666D02*
X448180Y280666D01*
X455701Y282681D01*
X462444Y286574D01*
X467950Y292080D01*
X471843Y298823D01*
X473858Y306344D01*
X473858Y314131D01*
X471843Y321652D01*
X467950Y328395D01*
X466956Y329389D01*
X466154Y330530D01*
X465769Y332101D01*
X466027Y333698D01*
X466411Y334309D01*
X465252Y333708D01*
X463639Y333583D01*
X462106Y334096D01*
X455701Y337794D01*
X448180Y339810D01*
X440393Y339810D01*
X432872Y337794D01*
X426129Y333901D01*
X420623Y328395D01*
X416730Y321652D01*
X414715Y314131D01*
X414715Y306344D01*
X416730Y298823D01*
X420623Y292080D01*
X426129Y286574D01*
X432872Y282681D01*
X440393Y280666D01*
G37*
G36*
X365614Y313955D02*
X365614Y313955D01*
X365614Y332116D01*
X356407Y332116D01*
X356407Y323163D01*
X358156Y318938D01*
X361389Y315705D01*
X365614Y313955D01*
G37*
G36*
X370186Y313955D02*
X370186Y313955D01*
X374411Y315705D01*
X377644Y318938D01*
X379394Y323163D01*
X379394Y332116D01*
X370186Y332116D01*
X370186Y313955D01*
G37*
G36*
X59948Y262614D02*
X65352Y262614D01*
X70346Y264683D01*
X74168Y268504D01*
X76236Y273498D01*
X76236Y278903D01*
X74168Y283896D01*
X70346Y287718D01*
X65352Y289786D01*
X59948Y289786D01*
X54954Y287718D01*
X51132Y283896D01*
X49064Y278903D01*
X49064Y273498D01*
X51132Y268504D01*
X54954Y264683D01*
X59948Y262614D01*
G37*
G36*
X467857Y234067D02*
X475731Y234067D01*
X475731Y241422D01*
X474184Y245156D01*
X471326Y248014D01*
X467857Y249451D01*
X467857Y234067D01*
G37*
G36*
X467857Y229495D02*
X467857Y214111D01*
X471326Y215548D01*
X474184Y218406D01*
X475731Y222140D01*
X475731Y229495D01*
X467857Y229495D01*
G37*
G36*
X92456Y214911D02*
X99314Y214911D01*
X99314Y221769D01*
X97812Y221769D01*
X92456Y216412D01*
X92456Y214911D01*
G37*
G36*
X103886Y214911D02*
X110744Y214911D01*
X110744Y216412D01*
X105388Y221769D01*
X103886Y221769D01*
X103886Y214911D01*
G37*
G36*
X103886Y203481D02*
X105388Y203481D01*
X110744Y208837D01*
X110744Y210339D01*
X103886Y210339D01*
X103886Y203481D01*
G37*
G36*
X315289Y18813D02*
X321276Y18813D01*
X326807Y21104D01*
X331040Y25337D01*
X333332Y30869D01*
X333332Y54763D01*
X331040Y60294D01*
X329124Y62210D01*
X328256Y63499D01*
X327934Y65084D01*
X327934Y72477D01*
X328372Y74312D01*
X329375Y75581D01*
X393813Y130037D01*
X394851Y130675D01*
X396436Y130997D01*
X400709Y130997D01*
X406217Y133278D01*
X407554Y134616D01*
X408784Y135458D01*
X410363Y135806D01*
X411953Y135509D01*
X413302Y134616D01*
X414639Y133278D01*
X420147Y130997D01*
X426109Y130997D01*
X431617Y133278D01*
X433479Y135141D01*
X434768Y136009D01*
X436353Y136331D01*
X452703Y136331D01*
X456250Y137800D01*
X482360Y163910D01*
X482502Y164006D01*
X491036Y172540D01*
X491036Y183061D01*
X483597Y190500D01*
X473076Y190500D01*
X465636Y183061D01*
X465636Y176169D01*
X465339Y174644D01*
X464446Y173296D01*
X447975Y156825D01*
X446687Y155957D01*
X445101Y155635D01*
X436353Y155635D01*
X434828Y155932D01*
X433479Y156825D01*
X431617Y158687D01*
X426109Y160969D01*
X420147Y160969D01*
X414639Y158687D01*
X413302Y157350D01*
X412073Y156507D01*
X410493Y156160D01*
X408903Y156457D01*
X407554Y157350D01*
X406217Y158687D01*
X400709Y160969D01*
X394747Y160969D01*
X389239Y158687D01*
X385024Y154472D01*
X382742Y148964D01*
X382742Y147842D01*
X382304Y146007D01*
X381301Y144738D01*
X313683Y87594D01*
X312914Y87126D01*
X311863Y86075D01*
X311613Y85845D01*
X310478Y84886D01*
X310153Y84441D01*
X309585Y83068D01*
X309441Y82760D01*
X308760Y81439D01*
X308630Y80904D01*
X308630Y79418D01*
X308616Y79078D01*
X308491Y77598D01*
X308630Y76708D01*
X308630Y65084D01*
X308333Y63558D01*
X307440Y62210D01*
X305524Y60294D01*
X303233Y54763D01*
X303233Y30869D01*
X305524Y25337D01*
X309757Y21104D01*
X315289Y18813D01*
G37*
G36*
X19936Y185720D02*
X19936Y178096D01*
X23332Y179503D01*
X26153Y182324D01*
X27560Y185720D01*
X19936Y185720D01*
G37*
G36*
X365289Y18813D02*
X371276Y18813D01*
X376807Y21104D01*
X381040Y25337D01*
X383243Y30655D01*
X384079Y31927D01*
X385413Y32842D01*
X386998Y33164D01*
X446871Y33164D01*
X450419Y34633D01*
X478096Y62310D01*
X479384Y63178D01*
X480969Y63500D01*
X483597Y63500D01*
X491036Y70940D01*
X491036Y81461D01*
X483597Y88900D01*
X473076Y88900D01*
X465636Y81461D01*
X465636Y78833D01*
X465339Y77308D01*
X464446Y75960D01*
X442144Y53658D01*
X440855Y52789D01*
X439270Y52468D01*
X386998Y52468D01*
X385502Y52753D01*
X384147Y53635D01*
X383243Y54976D01*
X381040Y60294D01*
X376807Y64527D01*
X371276Y66819D01*
X365289Y66819D01*
X359757Y64527D01*
X355524Y60294D01*
X353233Y54763D01*
X353233Y30869D01*
X355524Y25337D01*
X359757Y21104D01*
X365289Y18813D01*
G37*
G36*
X205189Y44970D02*
X214396Y44970D01*
X214396Y63131D01*
X214396Y63131D01*
X210171Y61381D01*
X206938Y58148D01*
X205189Y53923D01*
X205189Y44970D01*
G37*
G36*
X218968Y44970D02*
X228176Y44970D01*
X228176Y53923D01*
X226426Y58148D01*
X223193Y61381D01*
X218968Y63131D01*
X218968Y63131D01*
X218968Y44970D01*
G37*
G36*
X218968Y22237D02*
X218968Y22237D01*
X223193Y23987D01*
X226426Y27220D01*
X228176Y31444D01*
X228176Y40398D01*
X218968Y40398D01*
X218968Y22237D01*
G37*
G36*
X214396Y22237D02*
X214396Y22237D01*
X214396Y40398D01*
X205189Y40398D01*
X205189Y31444D01*
X206938Y27220D01*
X210171Y23987D01*
X214396Y22237D01*
G37*
%LPD*%
D10*
X414771Y224161D02*
X414771Y239401D01*
X440171Y239401D02*
X440171Y224161D01*
X465571Y224161D02*
X465571Y239401D01*
D11*
X478336Y177800D03*
X478336Y76200D03*
X127000Y127764D03*
X127000Y26164D03*
D12*
X101600Y212625D03*
X203200Y212625D03*
X101677Y159793D03*
X203277Y159793D03*
D11*
X127000Y355600D03*
X127000Y254000D03*
D13*
X17650Y276200D03*
X62650Y276200D03*
X17650Y211200D03*
D14*
X62650Y211200D03*
D13*
X17650Y188006D03*
X62650Y188006D03*
X17650Y123006D03*
D14*
X62650Y123006D03*
D15*
X423128Y145983D03*
X397728Y145983D03*
D16*
X265918Y325067D02*
X265918Y342974D01*
X215918Y342974D02*
X215918Y325067D01*
X318282Y51769D02*
X318282Y33862D01*
X368282Y33862D02*
X368282Y51769D01*
X216682Y51637D02*
X216682Y33730D01*
X266682Y33730D02*
X266682Y51637D01*
X367900Y325449D02*
X367900Y343356D01*
X317900Y343356D02*
X317900Y325449D01*
D17*
X290097Y162343D03*
X290097Y208063D03*
D18*
X255313Y227410D02*
X317900Y289998D01*
X255313Y227410D02*
X240527Y212625D01*
X203200Y212625D01*
X317900Y289998D02*
X317900Y334402D01*
X281943Y227748D02*
X281605Y227410D01*
X255313Y227410D01*
X410737Y227748D02*
X414771Y231781D01*
X410737Y227748D02*
X281943Y227748D01*
X265918Y324827D02*
X101677Y160586D01*
X101677Y159793D01*
X265918Y324827D02*
X265918Y334020D01*
X101677Y159793D02*
X64890Y123006D01*
X62650Y123006D01*
X152400Y334020D02*
X215918Y334020D01*
X127000Y308620D02*
X127000Y254000D01*
X127000Y308620D02*
X152400Y334020D01*
X50070Y308620D02*
X17650Y276200D01*
X50070Y308620D02*
X127000Y308620D01*
X68893Y211200D02*
X62650Y211200D01*
X68893Y211200D02*
X80300Y199794D01*
X80300Y170004D01*
X41728Y131432D01*
X41728Y114579D01*
X53773Y102534D01*
X158470Y102534D01*
X230288Y102534D01*
X127000Y71064D02*
X127000Y26164D01*
X127000Y71064D02*
X158470Y102534D01*
X265942Y138188D02*
X290097Y162343D01*
X265942Y138188D02*
X246166Y118412D01*
X230288Y102534D01*
X244658Y118412D02*
X203277Y159793D01*
X244658Y118412D02*
X246166Y118412D01*
X266682Y137448D02*
X266682Y42684D01*
X266682Y137448D02*
X265942Y138188D01*
X450783Y145983D02*
X478336Y173536D01*
X450783Y145983D02*
X423128Y145983D01*
X478336Y173536D02*
X478336Y177800D01*
X127000Y136007D02*
X127000Y127764D01*
X127000Y136007D02*
X186217Y195224D01*
X440171Y231781D02*
X440597Y231355D01*
X440597Y219528D01*
X246715Y195224D02*
X186217Y195224D01*
X246715Y195224D02*
X259553Y208063D01*
X293082Y205078D02*
X426147Y205078D01*
X293082Y205078D02*
X290097Y208063D01*
X259553Y208063D01*
X426147Y205078D02*
X440597Y219528D01*
X444952Y42816D02*
X368282Y42816D01*
X444952Y42816D02*
X478336Y76200D01*
X318282Y78844D02*
X318282Y42816D01*
X318282Y78844D02*
X397728Y145983D01*
M02*
