G04 EAGLE Gerber RS-274X export*
G75*
%MOMM*%
%FSLAX34Y34*%
%LPD*%
%INTop Copper*%
%IPPOS*%
%AMOC8*
5,1,8,0,0,1.08239X$1,22.5*%
G01*
G04 Define Apertures*
%ADD10C,1.524000*%
%ADD11P,1.42962X8X292.5*%
%ADD12P,1.42962X8X22.5*%
%ADD13C,1.498000*%
%ADD14R,1.498000X1.498000*%
%ADD15C,1.778000*%
%ADD16C,1.790700*%
%ADD17P,2.06195X8X112.5*%
D10*
X414771Y224161D02*
X414771Y239401D01*
X440171Y239401D02*
X440171Y224161D01*
X465571Y224161D02*
X465571Y239401D01*
D11*
X478336Y177800D03*
X478336Y76200D03*
X127000Y127764D03*
X127000Y26164D03*
D12*
X101600Y212625D03*
X203200Y212625D03*
X101677Y159793D03*
X203277Y159793D03*
D11*
X127000Y355600D03*
X127000Y254000D03*
D13*
X17650Y276200D03*
X62650Y276200D03*
X17650Y211200D03*
D14*
X62650Y211200D03*
D13*
X17650Y188006D03*
X62650Y188006D03*
X17650Y123006D03*
D14*
X62650Y123006D03*
D15*
X423128Y145983D03*
X397728Y145983D03*
D16*
X265918Y325067D02*
X265918Y342974D01*
X215918Y342974D02*
X215918Y325067D01*
X318282Y51769D02*
X318282Y33862D01*
X368282Y33862D02*
X368282Y51769D01*
X216682Y51637D02*
X216682Y33730D01*
X266682Y33730D02*
X266682Y51637D01*
X367900Y325449D02*
X367900Y343356D01*
X317900Y343356D02*
X317900Y325449D01*
D17*
X290097Y162343D03*
X290097Y208063D03*
M02*
