G04 EAGLE Gerber RS-274X export*
G75*
%MOMM*%
%FSLAX34Y34*%
%LPD*%
%INSilkscreen Top*%
%IPPOS*%
%AMOC8*
5,1,8,0,0,1.08239X$1,22.5*%
G01*
G04 Define Apertures*
%ADD10C,0.152400*%
%ADD11C,0.508000*%
%ADD12R,10.668000X0.762000*%
%ADD13R,1.905000X0.508000*%
%ADD14R,0.762000X0.508000*%
%ADD15R,0.609600X0.863600*%
%ADD16R,0.863600X0.609600*%
%ADD17C,0.127000*%
%ADD18C,0.200000*%
G36*
X405480Y170574D02*
X396817Y170574D01*
X396817Y172075D01*
X400339Y172075D01*
X400339Y182710D01*
X397219Y180483D01*
X397219Y182151D01*
X400486Y184398D01*
X402115Y184398D01*
X402115Y172075D01*
X405480Y172075D01*
X405480Y170574D01*
G37*
G36*
X394638Y170574D02*
X385778Y170574D01*
X385778Y184398D01*
X387652Y184398D01*
X387652Y172104D01*
X394638Y172104D01*
X394638Y170574D01*
G37*
G36*
X324147Y6885D02*
X314992Y6885D01*
X314992Y8131D01*
X315256Y8688D01*
X315548Y9211D01*
X315867Y9701D01*
X316214Y10157D01*
X316579Y10585D01*
X316954Y10993D01*
X317337Y11380D01*
X317730Y11746D01*
X318521Y12432D01*
X319305Y13066D01*
X320047Y13674D01*
X320713Y14283D01*
X321011Y14590D01*
X321280Y14906D01*
X321519Y15228D01*
X321728Y15558D01*
X321898Y15903D01*
X322019Y16269D01*
X322091Y16658D01*
X322110Y16861D01*
X322116Y17069D01*
X322105Y17346D01*
X322074Y17606D01*
X322022Y17851D01*
X321949Y18080D01*
X321855Y18292D01*
X321740Y18489D01*
X321605Y18670D01*
X321448Y18835D01*
X321273Y18982D01*
X321082Y19110D01*
X320875Y19218D01*
X320651Y19306D01*
X320411Y19375D01*
X320155Y19424D01*
X319883Y19453D01*
X319594Y19463D01*
X319318Y19453D01*
X319055Y19425D01*
X318804Y19377D01*
X318565Y19310D01*
X318339Y19223D01*
X318125Y19118D01*
X317924Y18993D01*
X317735Y18850D01*
X317561Y18689D01*
X317407Y18512D01*
X317271Y18320D01*
X317155Y18113D01*
X317057Y17890D01*
X316978Y17651D01*
X316918Y17397D01*
X316876Y17128D01*
X315071Y17295D01*
X315136Y17699D01*
X315233Y18081D01*
X315361Y18443D01*
X315521Y18784D01*
X315713Y19103D01*
X315937Y19401D01*
X316192Y19678D01*
X316479Y19934D01*
X316793Y20164D01*
X317128Y20363D01*
X317485Y20532D01*
X317864Y20670D01*
X318264Y20777D01*
X318686Y20854D01*
X319129Y20900D01*
X319594Y20915D01*
X320101Y20900D01*
X320579Y20853D01*
X321025Y20776D01*
X321442Y20669D01*
X321829Y20530D01*
X322185Y20360D01*
X322511Y20160D01*
X322807Y19929D01*
X323071Y19670D01*
X323299Y19384D01*
X323492Y19073D01*
X323650Y18736D01*
X323773Y18373D01*
X323860Y17984D01*
X323913Y17569D01*
X323931Y17128D01*
X323908Y16726D01*
X323839Y16326D01*
X323724Y15927D01*
X323563Y15529D01*
X323356Y15131D01*
X323105Y14734D01*
X322809Y14337D01*
X322469Y13939D01*
X322023Y13487D01*
X321412Y12926D01*
X320635Y12256D01*
X319692Y11476D01*
X319157Y11027D01*
X318679Y10600D01*
X318259Y10195D01*
X317897Y9813D01*
X317586Y9446D01*
X317323Y9086D01*
X317106Y8733D01*
X316935Y8386D01*
X324147Y8386D01*
X324147Y6885D01*
G37*
G36*
X378718Y5245D02*
X370055Y5245D01*
X370055Y6746D01*
X373577Y6746D01*
X373577Y17381D01*
X370457Y15154D01*
X370457Y16822D01*
X373724Y19069D01*
X375353Y19069D01*
X375353Y6746D01*
X378718Y6746D01*
X378718Y5245D01*
G37*
G36*
X271565Y358148D02*
X262902Y358148D01*
X262902Y359649D01*
X266424Y359649D01*
X266424Y370285D01*
X263304Y368058D01*
X263304Y369726D01*
X266571Y371972D01*
X268200Y371972D01*
X268200Y359649D01*
X271565Y359649D01*
X271565Y358148D01*
G37*
G36*
X322773Y358148D02*
X314110Y358148D01*
X314110Y359649D01*
X317632Y359649D01*
X317632Y370285D01*
X314512Y368058D01*
X314512Y369726D01*
X317779Y371972D01*
X319408Y371972D01*
X319408Y359649D01*
X322773Y359649D01*
X322773Y358148D01*
G37*
G36*
X221731Y357446D02*
X212577Y357446D01*
X212577Y358692D01*
X212841Y359249D01*
X213132Y359772D01*
X213451Y360262D01*
X213798Y360718D01*
X214163Y361146D01*
X214538Y361554D01*
X214921Y361941D01*
X215314Y362307D01*
X216105Y362993D01*
X216889Y363627D01*
X217631Y364235D01*
X218297Y364843D01*
X218596Y365151D01*
X218864Y365466D01*
X219103Y365789D01*
X219312Y366119D01*
X219482Y366463D01*
X219603Y366830D01*
X219675Y367219D01*
X219694Y367422D01*
X219700Y367630D01*
X219689Y367906D01*
X219658Y368167D01*
X219606Y368412D01*
X219533Y368640D01*
X219439Y368853D01*
X219324Y369050D01*
X219189Y369231D01*
X219032Y369396D01*
X218858Y369543D01*
X218666Y369671D01*
X218459Y369779D01*
X218235Y369867D01*
X217995Y369936D01*
X217739Y369985D01*
X217467Y370014D01*
X217178Y370024D01*
X216902Y370014D01*
X216639Y369985D01*
X216388Y369938D01*
X216149Y369871D01*
X215923Y369784D01*
X215709Y369679D01*
X215508Y369554D01*
X215319Y369411D01*
X215146Y369250D01*
X214991Y369073D01*
X214856Y368881D01*
X214739Y368674D01*
X214641Y368451D01*
X214562Y368212D01*
X214502Y367958D01*
X214460Y367689D01*
X212655Y367855D01*
X212720Y368259D01*
X212817Y368642D01*
X212945Y369004D01*
X213105Y369344D01*
X213297Y369664D01*
X213521Y369962D01*
X213776Y370239D01*
X214063Y370495D01*
X214377Y370725D01*
X214712Y370924D01*
X215069Y371093D01*
X215448Y371231D01*
X215848Y371338D01*
X216270Y371415D01*
X216713Y371461D01*
X217178Y371476D01*
X217685Y371460D01*
X218163Y371414D01*
X218610Y371337D01*
X219026Y371229D01*
X219413Y371091D01*
X219769Y370921D01*
X220095Y370721D01*
X220391Y370490D01*
X220655Y370230D01*
X220883Y369945D01*
X221076Y369634D01*
X221234Y369297D01*
X221357Y368933D01*
X221445Y368544D01*
X221497Y368130D01*
X221515Y367689D01*
X221492Y367287D01*
X221423Y366887D01*
X221308Y366487D01*
X221147Y366089D01*
X220940Y365692D01*
X220689Y365295D01*
X220394Y364897D01*
X220053Y364500D01*
X219607Y364048D01*
X218996Y363487D01*
X218219Y362817D01*
X217276Y362037D01*
X216741Y361588D01*
X216263Y361160D01*
X215843Y360756D01*
X215481Y360374D01*
X215170Y360007D01*
X214907Y359647D01*
X214690Y359294D01*
X214519Y358947D01*
X221731Y358947D01*
X221731Y357446D01*
G37*
G36*
X229819Y6308D02*
X225204Y6308D01*
X225204Y18649D01*
X229285Y18649D01*
X229671Y18643D01*
X230047Y18624D01*
X230411Y18594D01*
X230763Y18551D01*
X231105Y18495D01*
X231435Y18428D01*
X231755Y18348D01*
X232063Y18256D01*
X232359Y18151D01*
X232645Y18035D01*
X232920Y17906D01*
X233183Y17765D01*
X233435Y17611D01*
X233676Y17445D01*
X233906Y17267D01*
X234124Y17077D01*
X234330Y16875D01*
X234523Y16663D01*
X234703Y16441D01*
X234869Y16208D01*
X235023Y15965D01*
X235162Y15711D01*
X235289Y15447D01*
X235402Y15173D01*
X235502Y14888D01*
X235588Y14593D01*
X235661Y14288D01*
X235721Y13972D01*
X235768Y13646D01*
X235801Y13310D01*
X235821Y12963D01*
X235828Y12606D01*
X235816Y12136D01*
X235781Y11681D01*
X235723Y11241D01*
X235642Y10815D01*
X235537Y10405D01*
X235409Y10010D01*
X235258Y9630D01*
X235083Y9264D01*
X234887Y8917D01*
X234672Y8590D01*
X234437Y8284D01*
X234183Y8000D01*
X233910Y7736D01*
X233617Y7493D01*
X233304Y7271D01*
X232972Y7070D01*
X232624Y6892D01*
X232263Y6737D01*
X231889Y6606D01*
X231501Y6499D01*
X231100Y6415D01*
X230686Y6356D01*
X230259Y6320D01*
X229819Y6308D01*
G37*
%LPC*%
G36*
X229627Y7648D02*
X229961Y7657D01*
X230285Y7685D01*
X230599Y7732D01*
X230902Y7797D01*
X231195Y7881D01*
X231478Y7983D01*
X231751Y8104D01*
X232013Y8244D01*
X232263Y8401D01*
X232498Y8574D01*
X232718Y8764D01*
X232923Y8971D01*
X233113Y9194D01*
X233289Y9433D01*
X233449Y9688D01*
X233594Y9960D01*
X233724Y10247D01*
X233836Y10546D01*
X233931Y10858D01*
X234008Y11182D01*
X234068Y11519D01*
X234112Y11869D01*
X234137Y12231D01*
X234146Y12606D01*
X234126Y13162D01*
X234068Y13685D01*
X233969Y14173D01*
X233832Y14628D01*
X233655Y15048D01*
X233439Y15434D01*
X233184Y15786D01*
X232889Y16105D01*
X232557Y16387D01*
X232190Y16631D01*
X231788Y16838D01*
X231351Y17008D01*
X230879Y17140D01*
X230371Y17234D01*
X229828Y17290D01*
X229250Y17309D01*
X226876Y17309D01*
X226876Y7648D01*
X229627Y7648D01*
G37*
%LPD*%
G36*
X213755Y6308D02*
X212266Y6308D01*
X212266Y18649D01*
X214210Y18649D01*
X220885Y8069D01*
X220806Y9549D01*
X220779Y10556D01*
X220779Y18649D01*
X222286Y18649D01*
X222286Y6308D01*
X220271Y6308D01*
X213667Y16818D01*
X213711Y15969D01*
X213755Y14506D01*
X213755Y6308D01*
G37*
G36*
X203978Y6133D02*
X203502Y6145D01*
X203043Y6181D01*
X202601Y6241D01*
X202176Y6326D01*
X201767Y6434D01*
X201375Y6567D01*
X201000Y6723D01*
X200641Y6904D01*
X200301Y7107D01*
X199981Y7332D01*
X199683Y7577D01*
X199405Y7844D01*
X199147Y8132D01*
X198911Y8442D01*
X198695Y8772D01*
X198499Y9124D01*
X198326Y9494D01*
X198176Y9881D01*
X198048Y10283D01*
X197944Y10702D01*
X197863Y11136D01*
X197806Y11587D01*
X197771Y12053D01*
X197759Y12535D01*
X197766Y12906D01*
X197784Y13265D01*
X197816Y13614D01*
X197860Y13953D01*
X197917Y14280D01*
X197986Y14598D01*
X198068Y14904D01*
X198162Y15200D01*
X198269Y15486D01*
X198389Y15760D01*
X198521Y16025D01*
X198666Y16278D01*
X198823Y16521D01*
X198993Y16753D01*
X199371Y17186D01*
X199794Y17572D01*
X200021Y17746D01*
X200258Y17907D01*
X200506Y18055D01*
X200763Y18190D01*
X201031Y18312D01*
X201309Y18421D01*
X201597Y18518D01*
X201895Y18601D01*
X202204Y18672D01*
X202522Y18730D01*
X202851Y18775D01*
X203190Y18807D01*
X203540Y18826D01*
X203899Y18833D01*
X204399Y18822D01*
X204876Y18790D01*
X205328Y18736D01*
X205756Y18660D01*
X206160Y18563D01*
X206540Y18444D01*
X206896Y18303D01*
X207227Y18141D01*
X207538Y17955D01*
X207830Y17743D01*
X208104Y17505D01*
X208359Y17241D01*
X208596Y16951D01*
X208815Y16635D01*
X209016Y16293D01*
X209198Y15925D01*
X207604Y15452D01*
X207466Y15706D01*
X207316Y15942D01*
X207154Y16160D01*
X206979Y16361D01*
X206791Y16543D01*
X206591Y16708D01*
X206379Y16855D01*
X206154Y16985D01*
X205916Y17098D01*
X205664Y17196D01*
X205398Y17278D01*
X205118Y17346D01*
X204823Y17399D01*
X204515Y17436D01*
X204192Y17459D01*
X203855Y17467D01*
X203337Y17446D01*
X202850Y17386D01*
X202394Y17285D01*
X201970Y17144D01*
X201577Y16962D01*
X201216Y16740D01*
X200886Y16477D01*
X200588Y16175D01*
X200323Y15835D01*
X200094Y15463D01*
X199900Y15057D01*
X199741Y14619D01*
X199617Y14148D01*
X199529Y13643D01*
X199476Y13106D01*
X199458Y12535D01*
X199477Y11966D01*
X199533Y11428D01*
X199627Y10920D01*
X199758Y10443D01*
X199927Y9997D01*
X200133Y9582D01*
X200377Y9197D01*
X200658Y8844D01*
X200973Y8527D01*
X201316Y8252D01*
X201688Y8019D01*
X202088Y7829D01*
X202518Y7681D01*
X202976Y7575D01*
X203462Y7512D01*
X203978Y7491D01*
X204572Y7514D01*
X205146Y7582D01*
X205700Y7697D01*
X206233Y7858D01*
X206732Y8059D01*
X207180Y8292D01*
X207579Y8558D01*
X207928Y8857D01*
X207928Y11082D01*
X204241Y11082D01*
X204241Y12483D01*
X209469Y12483D01*
X209469Y8226D01*
X209217Y7984D01*
X208951Y7755D01*
X208672Y7541D01*
X208378Y7341D01*
X208070Y7154D01*
X207749Y6982D01*
X207414Y6824D01*
X207065Y6680D01*
X206706Y6552D01*
X206339Y6441D01*
X205964Y6347D01*
X205582Y6270D01*
X205192Y6210D01*
X204795Y6167D01*
X204390Y6142D01*
X203978Y6133D01*
G37*
G36*
X378227Y356735D02*
X373611Y356735D01*
X373611Y369076D01*
X377692Y369076D01*
X378079Y369070D01*
X378454Y369052D01*
X378818Y369021D01*
X379171Y368978D01*
X379512Y368923D01*
X379843Y368855D01*
X380162Y368775D01*
X380470Y368683D01*
X380767Y368579D01*
X381053Y368462D01*
X381327Y368333D01*
X381590Y368192D01*
X381842Y368038D01*
X382083Y367873D01*
X382313Y367694D01*
X382532Y367504D01*
X382738Y367302D01*
X382931Y367090D01*
X383110Y366868D01*
X383277Y366635D01*
X383430Y366392D01*
X383570Y366138D01*
X383696Y365874D01*
X383809Y365600D01*
X383909Y365316D01*
X383996Y365021D01*
X384069Y364715D01*
X384129Y364399D01*
X384175Y364073D01*
X384208Y363737D01*
X384228Y363390D01*
X384235Y363033D01*
X384223Y362563D01*
X384189Y362108D01*
X384130Y361668D01*
X384049Y361243D01*
X383944Y360833D01*
X383816Y360437D01*
X383665Y360057D01*
X383491Y359691D01*
X383295Y359344D01*
X383080Y359017D01*
X382845Y358712D01*
X382591Y358427D01*
X382317Y358163D01*
X382024Y357920D01*
X381712Y357698D01*
X381380Y357497D01*
X381032Y357319D01*
X380670Y357164D01*
X380296Y357033D01*
X379908Y356926D01*
X379508Y356843D01*
X379094Y356783D01*
X378667Y356747D01*
X378227Y356735D01*
G37*
%LPC*%
G36*
X378034Y358075D02*
X378368Y358085D01*
X378692Y358113D01*
X379006Y358159D01*
X379309Y358224D01*
X379603Y358308D01*
X379886Y358411D01*
X380158Y358531D01*
X380421Y358671D01*
X380671Y358828D01*
X380905Y359002D01*
X381125Y359192D01*
X381331Y359398D01*
X381521Y359621D01*
X381696Y359860D01*
X381856Y360116D01*
X382002Y360388D01*
X382131Y360674D01*
X382243Y360973D01*
X382338Y361285D01*
X382415Y361610D01*
X382476Y361946D01*
X382519Y362296D01*
X382545Y362658D01*
X382553Y363033D01*
X382534Y363589D01*
X382475Y364112D01*
X382377Y364601D01*
X382239Y365055D01*
X382062Y365475D01*
X381846Y365862D01*
X381591Y366214D01*
X381297Y366532D01*
X380965Y366814D01*
X380598Y367059D01*
X380196Y367266D01*
X379758Y367435D01*
X379286Y367567D01*
X378778Y367661D01*
X378235Y367717D01*
X377657Y367736D01*
X375284Y367736D01*
X375284Y358075D01*
X378034Y358075D01*
G37*
%LPD*%
G36*
X362162Y356735D02*
X360673Y356735D01*
X360673Y369076D01*
X362618Y369076D01*
X369292Y358496D01*
X369213Y359976D01*
X369187Y360983D01*
X369187Y369076D01*
X370693Y369076D01*
X370693Y356735D01*
X368679Y356735D01*
X362075Y367246D01*
X362119Y366396D01*
X362162Y364933D01*
X362162Y356735D01*
G37*
G36*
X352385Y356560D02*
X351910Y356572D01*
X351451Y356608D01*
X351009Y356669D01*
X350583Y356753D01*
X350174Y356861D01*
X349782Y356994D01*
X349407Y357150D01*
X349048Y357331D01*
X348708Y357534D01*
X348389Y357759D01*
X348090Y358005D01*
X347812Y358271D01*
X347555Y358560D01*
X347318Y358869D01*
X347102Y359200D01*
X346907Y359551D01*
X346733Y359922D01*
X346583Y360308D01*
X346456Y360711D01*
X346352Y361129D01*
X346271Y361563D01*
X346213Y362014D01*
X346178Y362480D01*
X346167Y362963D01*
X346173Y363333D01*
X346192Y363693D01*
X346223Y364042D01*
X346267Y364380D01*
X346324Y364708D01*
X346393Y365025D01*
X346475Y365332D01*
X346570Y365628D01*
X346677Y365913D01*
X346796Y366188D01*
X346928Y366452D01*
X347073Y366705D01*
X347231Y366948D01*
X347401Y367181D01*
X347778Y367614D01*
X348202Y367999D01*
X348428Y368173D01*
X348666Y368334D01*
X348913Y368482D01*
X349170Y368617D01*
X349438Y368739D01*
X349716Y368849D01*
X350004Y368945D01*
X350302Y369029D01*
X350611Y369099D01*
X350930Y369157D01*
X351259Y369202D01*
X351598Y369234D01*
X351947Y369254D01*
X352306Y369260D01*
X352807Y369249D01*
X353283Y369217D01*
X353735Y369163D01*
X354163Y369087D01*
X354567Y368990D01*
X354947Y368871D01*
X355303Y368730D01*
X355635Y368568D01*
X355945Y368382D01*
X356237Y368170D01*
X356511Y367932D01*
X356767Y367668D01*
X357004Y367378D01*
X357223Y367062D01*
X357423Y366720D01*
X357605Y366352D01*
X356011Y365879D01*
X355874Y366133D01*
X355724Y366369D01*
X355561Y366588D01*
X355386Y366788D01*
X355199Y366971D01*
X354999Y367136D01*
X354787Y367283D01*
X354562Y367412D01*
X354324Y367525D01*
X354072Y367623D01*
X353805Y367706D01*
X353525Y367773D01*
X353230Y367826D01*
X352922Y367864D01*
X352599Y367886D01*
X352263Y367894D01*
X351744Y367874D01*
X351257Y367813D01*
X350801Y367712D01*
X350377Y367571D01*
X349985Y367389D01*
X349624Y367167D01*
X349294Y366905D01*
X348996Y366602D01*
X348731Y366262D01*
X348501Y365890D01*
X348307Y365485D01*
X348148Y365046D01*
X348025Y364575D01*
X347936Y364070D01*
X347883Y363533D01*
X347866Y362963D01*
X347885Y362394D01*
X347941Y361855D01*
X348035Y361347D01*
X348166Y360871D01*
X348335Y360424D01*
X348541Y360009D01*
X348785Y359625D01*
X349066Y359271D01*
X349380Y358954D01*
X349723Y358679D01*
X350095Y358446D01*
X350496Y358256D01*
X350925Y358108D01*
X351383Y358002D01*
X351870Y357939D01*
X352385Y357918D01*
X352979Y357941D01*
X353553Y358010D01*
X354107Y358125D01*
X354641Y358286D01*
X355139Y358486D01*
X355588Y358719D01*
X355986Y358985D01*
X356335Y359284D01*
X356335Y361509D01*
X352648Y361509D01*
X352648Y362910D01*
X357877Y362910D01*
X357877Y358654D01*
X357625Y358411D01*
X357359Y358183D01*
X357079Y357968D01*
X356785Y357768D01*
X356478Y357582D01*
X356157Y357410D01*
X355822Y357252D01*
X355473Y357108D01*
X355113Y356979D01*
X354746Y356868D01*
X354371Y356774D01*
X353989Y356697D01*
X353599Y356637D01*
X353202Y356595D01*
X352797Y356569D01*
X352385Y356560D01*
G37*
G36*
X472318Y264295D02*
X471995Y264307D01*
X471686Y264342D01*
X471392Y264400D01*
X471112Y264482D01*
X470848Y264587D01*
X470598Y264716D01*
X470362Y264868D01*
X470141Y265044D01*
X469933Y265247D01*
X469734Y265481D01*
X469545Y265746D01*
X469365Y266043D01*
X469195Y266372D01*
X469035Y266731D01*
X468885Y267122D01*
X468744Y267544D01*
X468318Y267577D01*
X467907Y267632D01*
X467511Y267709D01*
X467130Y267808D01*
X466763Y267929D01*
X466412Y268072D01*
X466075Y268237D01*
X465753Y268425D01*
X465448Y268632D01*
X465162Y268860D01*
X464894Y269107D01*
X464645Y269373D01*
X464415Y269658D01*
X464203Y269963D01*
X464010Y270288D01*
X463835Y270632D01*
X463680Y270992D01*
X463546Y271367D01*
X463432Y271756D01*
X463339Y272159D01*
X463267Y272576D01*
X463215Y273007D01*
X463184Y273452D01*
X463174Y273912D01*
X463180Y274277D01*
X463199Y274632D01*
X463231Y274977D01*
X463275Y275311D01*
X463332Y275636D01*
X463402Y275950D01*
X463484Y276255D01*
X463579Y276549D01*
X463687Y276833D01*
X463807Y277108D01*
X463940Y277372D01*
X464085Y277626D01*
X464414Y278103D01*
X464794Y278541D01*
X465219Y278932D01*
X465447Y279108D01*
X465684Y279271D01*
X465931Y279421D01*
X466188Y279557D01*
X466455Y279681D01*
X466732Y279792D01*
X467019Y279890D01*
X467316Y279975D01*
X467622Y280046D01*
X467939Y280105D01*
X468266Y280151D01*
X468602Y280183D01*
X468949Y280203D01*
X469305Y280209D01*
X469768Y280197D01*
X470215Y280162D01*
X470647Y280104D01*
X471063Y280022D01*
X471464Y279917D01*
X471849Y279788D01*
X472218Y279636D01*
X472572Y279460D01*
X472908Y279263D01*
X473223Y279043D01*
X473518Y278803D01*
X473793Y278542D01*
X474047Y278259D01*
X474281Y277955D01*
X474494Y277630D01*
X474687Y277284D01*
X474858Y276919D01*
X475007Y276538D01*
X475133Y276140D01*
X475236Y275727D01*
X475316Y275297D01*
X475373Y274852D01*
X475407Y274390D01*
X475418Y273912D01*
X475398Y273274D01*
X475336Y272665D01*
X475234Y272085D01*
X475090Y271534D01*
X474905Y271012D01*
X474679Y270519D01*
X474413Y270055D01*
X474105Y269620D01*
X473760Y269221D01*
X473384Y268865D01*
X472975Y268552D01*
X472535Y268282D01*
X472062Y268055D01*
X471557Y267871D01*
X471021Y267730D01*
X470452Y267632D01*
X470646Y267118D01*
X470867Y266682D01*
X470988Y266492D01*
X471117Y266321D01*
X471252Y266170D01*
X471394Y266038D01*
X471544Y265923D01*
X471704Y265823D01*
X471874Y265739D01*
X472054Y265670D01*
X472243Y265616D01*
X472442Y265578D01*
X472651Y265555D01*
X472870Y265547D01*
X473113Y265555D01*
X473362Y265576D01*
X473877Y265661D01*
X473877Y264488D01*
X473474Y264403D01*
X473080Y264343D01*
X472694Y264307D01*
X472318Y264295D01*
G37*
%LPC*%
G36*
X469287Y268867D02*
X469806Y268887D01*
X470294Y268949D01*
X470750Y269052D01*
X471176Y269196D01*
X471570Y269382D01*
X471934Y269608D01*
X472266Y269876D01*
X472567Y270185D01*
X472835Y270532D01*
X473068Y270912D01*
X473264Y271327D01*
X473425Y271776D01*
X473550Y272259D01*
X473639Y272776D01*
X473693Y273327D01*
X473710Y273912D01*
X473692Y274472D01*
X473638Y275002D01*
X473548Y275500D01*
X473423Y275968D01*
X473261Y276405D01*
X473063Y276810D01*
X472829Y277185D01*
X472559Y277529D01*
X472256Y277837D01*
X471923Y278104D01*
X471561Y278330D01*
X471169Y278514D01*
X470748Y278658D01*
X470297Y278761D01*
X469816Y278822D01*
X469305Y278843D01*
X468790Y278823D01*
X468305Y278762D01*
X467851Y278661D01*
X467426Y278519D01*
X467032Y278337D01*
X466667Y278114D01*
X466333Y277850D01*
X466029Y277547D01*
X465758Y277206D01*
X465523Y276833D01*
X465325Y276428D01*
X465162Y275990D01*
X465036Y275519D01*
X464945Y275016D01*
X464891Y274480D01*
X464873Y273912D01*
X464891Y273347D01*
X464946Y272811D01*
X465038Y272306D01*
X465165Y271831D01*
X465330Y271385D01*
X465531Y270970D01*
X465768Y270584D01*
X466042Y270229D01*
X466349Y269910D01*
X466684Y269633D01*
X467047Y269399D01*
X467438Y269207D01*
X467858Y269058D01*
X468306Y268952D01*
X468783Y268888D01*
X469287Y268867D01*
G37*
%LPD*%
G36*
X485362Y267684D02*
X477628Y267684D01*
X477628Y269025D01*
X480772Y269025D01*
X480772Y278519D01*
X477987Y276531D01*
X477987Y278020D01*
X480904Y280025D01*
X482358Y280025D01*
X482358Y269025D01*
X485362Y269025D01*
X485362Y267684D01*
G37*
G36*
X460680Y95276D02*
X448339Y95276D01*
X448339Y101083D01*
X448354Y101589D01*
X448397Y102065D01*
X448470Y102512D01*
X448572Y102930D01*
X448704Y103317D01*
X448864Y103675D01*
X449053Y104003D01*
X449272Y104301D01*
X449517Y104567D01*
X449784Y104798D01*
X450074Y104993D01*
X450388Y105152D01*
X450724Y105276D01*
X451083Y105365D01*
X451464Y105418D01*
X451869Y105436D01*
X452206Y105423D01*
X452529Y105386D01*
X452839Y105323D01*
X453134Y105235D01*
X453417Y105123D01*
X453685Y104985D01*
X453940Y104822D01*
X454181Y104634D01*
X454405Y104424D01*
X454606Y104195D01*
X454787Y103948D01*
X454853Y103837D01*
X454945Y103681D01*
X455082Y103395D01*
X455198Y103090D01*
X455291Y102766D01*
X455364Y102423D01*
X457627Y103914D01*
X460680Y105926D01*
X460680Y103999D01*
X455556Y100794D01*
X455556Y96949D01*
X460680Y96949D01*
X460680Y95276D01*
G37*
%LPC*%
G36*
X454234Y96949D02*
X454234Y100986D01*
X454224Y101308D01*
X454195Y101610D01*
X454147Y101894D01*
X454079Y102159D01*
X453992Y102405D01*
X453886Y102633D01*
X453761Y102841D01*
X453616Y103031D01*
X453454Y103201D01*
X453277Y103348D01*
X453084Y103472D01*
X452875Y103573D01*
X452651Y103652D01*
X452412Y103709D01*
X452157Y103743D01*
X451886Y103754D01*
X451625Y103743D01*
X451380Y103708D01*
X451150Y103651D01*
X450937Y103571D01*
X450740Y103468D01*
X450559Y103343D01*
X450393Y103194D01*
X450244Y103023D01*
X450112Y102830D01*
X449997Y102617D01*
X449900Y102384D01*
X449820Y102130D01*
X449759Y101857D01*
X449715Y101563D01*
X449688Y101250D01*
X449679Y100916D01*
X449679Y96949D01*
X454234Y96949D01*
G37*
%LPD*%
G36*
X460680Y108108D02*
X459340Y108108D01*
X459340Y111252D01*
X449846Y111252D01*
X451834Y108467D01*
X450345Y108467D01*
X448339Y111384D01*
X448339Y112838D01*
X459340Y112838D01*
X459340Y115842D01*
X460680Y115842D01*
X460680Y108108D01*
G37*
G36*
X154940Y85986D02*
X142599Y85986D01*
X142599Y91793D01*
X142614Y92299D01*
X142658Y92776D01*
X142730Y93223D01*
X142832Y93640D01*
X142964Y94028D01*
X143124Y94385D01*
X143313Y94714D01*
X143532Y95012D01*
X143777Y95278D01*
X144044Y95508D01*
X144334Y95703D01*
X144648Y95863D01*
X144984Y95987D01*
X145343Y96075D01*
X145724Y96128D01*
X146129Y96146D01*
X146466Y96134D01*
X146789Y96096D01*
X147099Y96033D01*
X147395Y95946D01*
X147677Y95833D01*
X147945Y95695D01*
X148200Y95533D01*
X148441Y95345D01*
X148665Y95135D01*
X148867Y94906D01*
X149047Y94658D01*
X149113Y94547D01*
X149205Y94391D01*
X149342Y94105D01*
X149458Y93800D01*
X149551Y93476D01*
X149624Y93133D01*
X151887Y94625D01*
X154940Y96637D01*
X154940Y94710D01*
X149816Y91504D01*
X149816Y87659D01*
X154940Y87659D01*
X154940Y85986D01*
G37*
%LPC*%
G36*
X148494Y87659D02*
X148494Y91697D01*
X148484Y92018D01*
X148455Y92321D01*
X148407Y92604D01*
X148339Y92869D01*
X148253Y93116D01*
X148146Y93343D01*
X148021Y93552D01*
X147876Y93742D01*
X147714Y93911D01*
X147537Y94058D01*
X147344Y94182D01*
X147135Y94284D01*
X146911Y94363D01*
X146672Y94419D01*
X146417Y94453D01*
X146146Y94465D01*
X145885Y94453D01*
X145640Y94419D01*
X145411Y94362D01*
X145197Y94282D01*
X145000Y94179D01*
X144819Y94053D01*
X144653Y93905D01*
X144504Y93733D01*
X144372Y93540D01*
X144257Y93327D01*
X144160Y93094D01*
X144081Y92841D01*
X144019Y92568D01*
X143975Y92274D01*
X143948Y91960D01*
X143939Y91627D01*
X143939Y87659D01*
X148494Y87659D01*
G37*
%LPD*%
G36*
X154940Y98354D02*
X153828Y98354D01*
X153330Y98590D01*
X152863Y98850D01*
X152426Y99135D01*
X152019Y99445D01*
X151636Y99771D01*
X151272Y100105D01*
X150927Y100447D01*
X150600Y100798D01*
X149988Y101504D01*
X149422Y102204D01*
X148879Y102866D01*
X148336Y103461D01*
X148061Y103728D01*
X147780Y103968D01*
X147492Y104181D01*
X147197Y104367D01*
X146890Y104519D01*
X146562Y104627D01*
X146215Y104692D01*
X145849Y104713D01*
X145602Y104704D01*
X145369Y104676D01*
X145151Y104629D01*
X144947Y104564D01*
X144757Y104480D01*
X144581Y104378D01*
X144419Y104257D01*
X144272Y104118D01*
X144141Y103961D01*
X144027Y103791D01*
X143931Y103606D01*
X143852Y103406D01*
X143790Y103192D01*
X143747Y102963D01*
X143720Y102720D01*
X143712Y102462D01*
X143720Y102216D01*
X143746Y101981D01*
X143789Y101757D01*
X143848Y101544D01*
X143925Y101342D01*
X144019Y101151D01*
X144131Y100971D01*
X144259Y100802D01*
X144403Y100648D01*
X144560Y100510D01*
X144732Y100389D01*
X144917Y100285D01*
X145116Y100197D01*
X145329Y100127D01*
X145556Y100073D01*
X145796Y100036D01*
X145647Y98425D01*
X145287Y98482D01*
X144945Y98569D01*
X144622Y98683D01*
X144318Y98826D01*
X144033Y98998D01*
X143767Y99197D01*
X143520Y99425D01*
X143291Y99681D01*
X143086Y99961D01*
X142908Y100261D01*
X142757Y100579D01*
X142634Y100917D01*
X142538Y101275D01*
X142470Y101651D01*
X142429Y102047D01*
X142415Y102462D01*
X142429Y102915D01*
X142470Y103341D01*
X142539Y103740D01*
X142635Y104112D01*
X142759Y104457D01*
X142910Y104775D01*
X143089Y105066D01*
X143296Y105331D01*
X143527Y105566D01*
X143782Y105769D01*
X144060Y105942D01*
X144361Y106083D01*
X144685Y106192D01*
X145032Y106271D01*
X145403Y106318D01*
X145796Y106333D01*
X146155Y106313D01*
X146512Y106251D01*
X146868Y106149D01*
X147224Y106005D01*
X147578Y105821D01*
X147933Y105597D01*
X148288Y105333D01*
X148643Y105028D01*
X149046Y104630D01*
X149547Y104085D01*
X150145Y103391D01*
X150841Y102550D01*
X151243Y102072D01*
X151624Y101645D01*
X151985Y101270D01*
X152326Y100947D01*
X152653Y100670D01*
X152975Y100435D01*
X153290Y100241D01*
X153600Y100089D01*
X153600Y106526D01*
X154940Y106526D01*
X154940Y98354D01*
G37*
G36*
X125064Y227865D02*
X123391Y227865D01*
X123391Y240205D01*
X129198Y240205D01*
X129705Y240191D01*
X130181Y240147D01*
X130628Y240074D01*
X131045Y239972D01*
X131433Y239841D01*
X131791Y239681D01*
X132119Y239491D01*
X132417Y239273D01*
X132683Y239028D01*
X132913Y238761D01*
X133108Y238470D01*
X133268Y238157D01*
X133392Y237821D01*
X133480Y237462D01*
X133534Y237080D01*
X133551Y236676D01*
X133539Y236339D01*
X133501Y236016D01*
X133439Y235706D01*
X133351Y235410D01*
X133238Y235128D01*
X133101Y234859D01*
X132938Y234605D01*
X132750Y234363D01*
X132540Y234140D01*
X132311Y233938D01*
X132063Y233758D01*
X131952Y233692D01*
X131796Y233599D01*
X131510Y233462D01*
X131205Y233347D01*
X130881Y233253D01*
X130538Y233181D01*
X132030Y230918D01*
X134042Y227865D01*
X132115Y227865D01*
X128909Y232988D01*
X125064Y232988D01*
X125064Y227865D01*
G37*
%LPC*%
G36*
X129102Y234311D02*
X129423Y234321D01*
X129726Y234350D01*
X130010Y234398D01*
X130275Y234465D01*
X130521Y234552D01*
X130748Y234658D01*
X130957Y234784D01*
X131147Y234928D01*
X131316Y235091D01*
X131463Y235268D01*
X131587Y235461D01*
X131689Y235670D01*
X131768Y235894D01*
X131825Y236133D01*
X131858Y236388D01*
X131870Y236658D01*
X131858Y236920D01*
X131824Y237165D01*
X131767Y237394D01*
X131687Y237607D01*
X131584Y237805D01*
X131458Y237986D01*
X131310Y238151D01*
X131138Y238300D01*
X130945Y238433D01*
X130732Y238548D01*
X130499Y238645D01*
X130246Y238724D01*
X129973Y238786D01*
X129679Y238830D01*
X129366Y238857D01*
X129032Y238865D01*
X125064Y238865D01*
X125064Y234311D01*
X129102Y234311D01*
G37*
%LPD*%
G36*
X139859Y227690D02*
X139402Y227703D01*
X138969Y227742D01*
X138559Y227808D01*
X138174Y227901D01*
X137812Y228020D01*
X137473Y228165D01*
X137159Y228337D01*
X136868Y228535D01*
X136603Y228759D01*
X136366Y229008D01*
X136158Y229283D01*
X135977Y229582D01*
X135826Y229908D01*
X135702Y230258D01*
X135607Y230634D01*
X135541Y231035D01*
X137170Y231184D01*
X137217Y230919D01*
X137281Y230671D01*
X137360Y230440D01*
X137456Y230226D01*
X137568Y230029D01*
X137696Y229850D01*
X137840Y229687D01*
X138000Y229542D01*
X138176Y229414D01*
X138368Y229302D01*
X138576Y229208D01*
X138800Y229131D01*
X139041Y229071D01*
X139297Y229029D01*
X139570Y229003D01*
X139859Y228995D01*
X140148Y229004D01*
X140422Y229031D01*
X140680Y229077D01*
X140922Y229141D01*
X141147Y229224D01*
X141357Y229325D01*
X141551Y229444D01*
X141729Y229581D01*
X141888Y229737D01*
X142026Y229910D01*
X142142Y230102D01*
X142238Y230310D01*
X142312Y230537D01*
X142365Y230782D01*
X142397Y231044D01*
X142407Y231324D01*
X142395Y231569D01*
X142359Y231800D01*
X142298Y232018D01*
X142214Y232221D01*
X142105Y232411D01*
X141971Y232586D01*
X141814Y232748D01*
X141632Y232896D01*
X141428Y233029D01*
X141202Y233144D01*
X140954Y233241D01*
X140685Y233320D01*
X140395Y233382D01*
X140083Y233426D01*
X139749Y233453D01*
X139394Y233461D01*
X138501Y233461D01*
X138501Y234828D01*
X139359Y234828D01*
X139674Y234837D01*
X139971Y234863D01*
X140250Y234907D01*
X140510Y234969D01*
X140752Y235048D01*
X140976Y235145D01*
X141182Y235260D01*
X141369Y235393D01*
X141537Y235541D01*
X141682Y235702D01*
X141804Y235877D01*
X141905Y236066D01*
X141983Y236268D01*
X142039Y236484D01*
X142072Y236713D01*
X142083Y236956D01*
X142074Y237197D01*
X142047Y237425D01*
X142001Y237640D01*
X141938Y237842D01*
X141856Y238031D01*
X141756Y238207D01*
X141637Y238370D01*
X141501Y238519D01*
X141346Y238654D01*
X141174Y238770D01*
X140985Y238869D01*
X140777Y238950D01*
X140552Y239012D01*
X140309Y239057D01*
X140049Y239084D01*
X139771Y239093D01*
X139517Y239085D01*
X139275Y239060D01*
X139045Y239018D01*
X138828Y238960D01*
X138624Y238884D01*
X138432Y238793D01*
X138252Y238684D01*
X138085Y238559D01*
X137933Y238418D01*
X137797Y238264D01*
X137678Y238097D01*
X137576Y237915D01*
X137491Y237720D01*
X137422Y237511D01*
X137371Y237289D01*
X137336Y237052D01*
X135751Y237175D01*
X135809Y237543D01*
X135895Y237891D01*
X136010Y238218D01*
X136153Y238524D01*
X136324Y238809D01*
X136524Y239073D01*
X136751Y239317D01*
X137008Y239540D01*
X137288Y239739D01*
X137587Y239911D01*
X137906Y240058D01*
X138244Y240177D01*
X138601Y240270D01*
X138978Y240336D01*
X139373Y240376D01*
X139789Y240389D01*
X140240Y240376D01*
X140665Y240335D01*
X141065Y240268D01*
X141438Y240174D01*
X141786Y240052D01*
X142108Y239904D01*
X142404Y239729D01*
X142675Y239527D01*
X142916Y239300D01*
X143125Y239053D01*
X143302Y238784D01*
X143446Y238494D01*
X143559Y238183D01*
X143639Y237851D01*
X143688Y237497D01*
X143704Y237122D01*
X143693Y236834D01*
X143662Y236559D01*
X143611Y236298D01*
X143538Y236051D01*
X143445Y235817D01*
X143332Y235598D01*
X143197Y235392D01*
X143042Y235200D01*
X142868Y235022D01*
X142674Y234860D01*
X142462Y234712D01*
X142231Y234579D01*
X141981Y234461D01*
X141713Y234358D01*
X141426Y234270D01*
X141120Y234197D01*
X141120Y234162D01*
X141456Y234115D01*
X141773Y234048D01*
X142072Y233962D01*
X142350Y233856D01*
X142610Y233730D01*
X142851Y233584D01*
X143072Y233419D01*
X143274Y233234D01*
X143455Y233032D01*
X143612Y232819D01*
X143744Y232592D01*
X143853Y232353D01*
X143937Y232102D01*
X143997Y231838D01*
X144033Y231561D01*
X144045Y231272D01*
X144028Y230857D01*
X143977Y230466D01*
X143892Y230099D01*
X143774Y229757D01*
X143621Y229438D01*
X143434Y229143D01*
X143214Y228873D01*
X142959Y228627D01*
X142673Y228407D01*
X142358Y228217D01*
X142014Y228056D01*
X141641Y227924D01*
X141239Y227821D01*
X140808Y227748D01*
X140348Y227704D01*
X139859Y227690D01*
G37*
G36*
X125142Y175033D02*
X123469Y175033D01*
X123469Y187373D01*
X129276Y187373D01*
X129782Y187359D01*
X130259Y187315D01*
X130706Y187242D01*
X131123Y187140D01*
X131510Y187009D01*
X131868Y186849D01*
X132196Y186659D01*
X132495Y186441D01*
X132760Y186196D01*
X132991Y185929D01*
X133186Y185638D01*
X133345Y185325D01*
X133469Y184989D01*
X133558Y184630D01*
X133611Y184248D01*
X133629Y183844D01*
X133616Y183507D01*
X133579Y183184D01*
X133516Y182874D01*
X133428Y182578D01*
X133316Y182296D01*
X133178Y182027D01*
X133015Y181773D01*
X132827Y181532D01*
X132618Y181308D01*
X132389Y181106D01*
X132141Y180926D01*
X132030Y180860D01*
X131874Y180767D01*
X131588Y180630D01*
X131283Y180515D01*
X130959Y180421D01*
X130616Y180349D01*
X132107Y178086D01*
X134119Y175033D01*
X132192Y175033D01*
X128987Y180156D01*
X125142Y180156D01*
X125142Y175033D01*
G37*
%LPC*%
G36*
X129179Y181479D02*
X129501Y181489D01*
X129803Y181518D01*
X130087Y181566D01*
X130352Y181633D01*
X130598Y181720D01*
X130826Y181826D01*
X131035Y181952D01*
X131225Y182096D01*
X131394Y182259D01*
X131541Y182436D01*
X131665Y182629D01*
X131766Y182838D01*
X131846Y183062D01*
X131902Y183301D01*
X131936Y183556D01*
X131947Y183826D01*
X131936Y184088D01*
X131901Y184333D01*
X131844Y184562D01*
X131764Y184775D01*
X131661Y184973D01*
X131536Y185154D01*
X131387Y185319D01*
X131216Y185468D01*
X131023Y185601D01*
X130810Y185716D01*
X130577Y185813D01*
X130324Y185892D01*
X130050Y185954D01*
X129757Y185998D01*
X129443Y186025D01*
X129109Y186033D01*
X125142Y186033D01*
X125142Y181479D01*
X129179Y181479D01*
G37*
%LPD*%
G36*
X142651Y175033D02*
X141162Y175033D01*
X141162Y177827D01*
X135347Y177827D01*
X135347Y179053D01*
X140996Y187373D01*
X142651Y187373D01*
X142651Y179070D01*
X144385Y179070D01*
X144385Y177827D01*
X142651Y177827D01*
X142651Y175033D01*
G37*
%LPC*%
G36*
X141162Y179070D02*
X141162Y185595D01*
X140917Y185131D01*
X140575Y184553D01*
X137414Y179894D01*
X136941Y179246D01*
X136801Y179070D01*
X141162Y179070D01*
G37*
%LPD*%
G36*
X154940Y313822D02*
X142599Y313822D01*
X142599Y319629D01*
X142614Y320135D01*
X142658Y320612D01*
X142730Y321059D01*
X142832Y321476D01*
X142964Y321864D01*
X143124Y322221D01*
X143313Y322550D01*
X143532Y322848D01*
X143777Y323114D01*
X144044Y323344D01*
X144334Y323539D01*
X144648Y323699D01*
X144984Y323823D01*
X145343Y323911D01*
X145724Y323964D01*
X146129Y323982D01*
X146466Y323970D01*
X146789Y323932D01*
X147099Y323869D01*
X147395Y323782D01*
X147677Y323669D01*
X147945Y323531D01*
X148200Y323369D01*
X148441Y323181D01*
X148665Y322971D01*
X148867Y322742D01*
X149047Y322494D01*
X149113Y322383D01*
X149205Y322227D01*
X149342Y321941D01*
X149458Y321636D01*
X149551Y321312D01*
X149624Y320969D01*
X151887Y322461D01*
X154940Y324473D01*
X154940Y322546D01*
X149816Y319340D01*
X149816Y315495D01*
X154940Y315495D01*
X154940Y313822D01*
G37*
%LPC*%
G36*
X148494Y315495D02*
X148494Y319533D01*
X148484Y319854D01*
X148455Y320157D01*
X148407Y320440D01*
X148339Y320705D01*
X148253Y320952D01*
X148146Y321179D01*
X148021Y321388D01*
X147876Y321578D01*
X147714Y321747D01*
X147537Y321894D01*
X147344Y322018D01*
X147135Y322120D01*
X146911Y322199D01*
X146672Y322255D01*
X146417Y322289D01*
X146146Y322301D01*
X145885Y322289D01*
X145640Y322255D01*
X145411Y322198D01*
X145197Y322118D01*
X145000Y322015D01*
X144819Y321889D01*
X144653Y321741D01*
X144504Y321569D01*
X144372Y321376D01*
X144257Y321163D01*
X144160Y320930D01*
X144081Y320677D01*
X144019Y320404D01*
X143975Y320110D01*
X143948Y319796D01*
X143939Y319463D01*
X143939Y315495D01*
X148494Y315495D01*
G37*
%LPD*%
G36*
X152181Y326007D02*
X151997Y327601D01*
X152219Y327669D01*
X152426Y327750D01*
X152619Y327843D01*
X152798Y327948D01*
X152962Y328066D01*
X153113Y328195D01*
X153249Y328337D01*
X153370Y328492D01*
X153477Y328658D01*
X153570Y328837D01*
X153649Y329028D01*
X153713Y329231D01*
X153763Y329447D01*
X153799Y329675D01*
X153821Y329915D01*
X153828Y330167D01*
X153816Y330476D01*
X153780Y330767D01*
X153720Y331042D01*
X153636Y331299D01*
X153528Y331539D01*
X153397Y331761D01*
X153241Y331967D01*
X153061Y332155D01*
X152861Y332323D01*
X152642Y332469D01*
X152406Y332593D01*
X152152Y332694D01*
X151879Y332772D01*
X151589Y332828D01*
X151281Y332862D01*
X150955Y332873D01*
X150671Y332862D01*
X150400Y332828D01*
X150144Y332772D01*
X149902Y332693D01*
X149673Y332591D01*
X149459Y332467D01*
X149258Y332320D01*
X149072Y332151D01*
X148903Y331962D01*
X148758Y331758D01*
X148634Y331538D01*
X148533Y331302D01*
X148455Y331051D01*
X148398Y330783D01*
X148365Y330501D01*
X148354Y330202D01*
X148366Y329888D01*
X148404Y329584D01*
X148467Y329292D01*
X148555Y329011D01*
X148673Y328735D01*
X148827Y328459D01*
X149015Y328183D01*
X149238Y327907D01*
X149238Y326366D01*
X142599Y326777D01*
X142599Y333793D01*
X143939Y333793D01*
X143939Y328214D01*
X147854Y327977D01*
X147670Y328241D01*
X147510Y328521D01*
X147374Y328816D01*
X147263Y329127D01*
X147177Y329453D01*
X147115Y329795D01*
X147078Y330153D01*
X147066Y330526D01*
X147083Y330970D01*
X147133Y331391D01*
X147216Y331788D01*
X147333Y332163D01*
X147483Y332514D01*
X147667Y332842D01*
X147884Y333147D01*
X148135Y333429D01*
X148412Y333683D01*
X148709Y333903D01*
X149027Y334089D01*
X149365Y334241D01*
X149723Y334359D01*
X150102Y334443D01*
X150501Y334494D01*
X150920Y334511D01*
X151395Y334493D01*
X151844Y334439D01*
X152268Y334348D01*
X152665Y334221D01*
X153036Y334058D01*
X153382Y333858D01*
X153701Y333623D01*
X153994Y333351D01*
X154257Y333046D01*
X154485Y332714D01*
X154677Y332354D01*
X154835Y331966D01*
X154958Y331549D01*
X155045Y331105D01*
X155098Y330632D01*
X155115Y330132D01*
X155103Y329711D01*
X155068Y329311D01*
X155009Y328931D01*
X154927Y328573D01*
X154821Y328235D01*
X154692Y327918D01*
X154539Y327622D01*
X154362Y327347D01*
X154163Y327094D01*
X153943Y326865D01*
X153702Y326661D01*
X153440Y326482D01*
X153157Y326326D01*
X152853Y326195D01*
X152527Y326089D01*
X152181Y326007D01*
G37*
G36*
X78323Y238093D02*
X78323Y239192D01*
X83267Y240589D01*
X84209Y240828D01*
X85178Y241048D01*
X83852Y241354D01*
X82111Y241824D01*
X78323Y242887D01*
X78323Y243898D01*
X83167Y245251D01*
X84264Y245527D01*
X85178Y245737D01*
X84985Y245787D01*
X83949Y246030D01*
X82342Y246465D01*
X78323Y247582D01*
X78323Y248681D01*
X86106Y246389D01*
X86106Y245130D01*
X81162Y243782D01*
X80515Y243619D01*
X79500Y243395D01*
X80571Y243152D01*
X82170Y242726D01*
X86106Y241644D01*
X86106Y240385D01*
X78323Y238093D01*
G37*
G36*
X84239Y231025D02*
X84035Y232047D01*
X84204Y232098D01*
X84362Y232160D01*
X84508Y232236D01*
X84643Y232323D01*
X84766Y232423D01*
X84877Y232536D01*
X84977Y232661D01*
X85065Y232798D01*
X85209Y233111D01*
X85311Y233476D01*
X85373Y233893D01*
X85393Y234362D01*
X85372Y234843D01*
X85306Y235267D01*
X85256Y235457D01*
X85196Y235632D01*
X85125Y235793D01*
X85043Y235939D01*
X84950Y236069D01*
X84847Y236181D01*
X84733Y236277D01*
X84610Y236355D01*
X84476Y236416D01*
X84332Y236459D01*
X84177Y236485D01*
X84013Y236494D01*
X83831Y236483D01*
X83667Y236450D01*
X83522Y236396D01*
X83394Y236320D01*
X83280Y236224D01*
X83177Y236111D01*
X83084Y235979D01*
X83002Y235831D01*
X82859Y235486D01*
X82742Y235080D01*
X82516Y234113D01*
X82311Y233302D01*
X82209Y232979D01*
X82107Y232713D01*
X82002Y232486D01*
X81891Y232285D01*
X81774Y232109D01*
X81651Y231959D01*
X81520Y231829D01*
X81378Y231715D01*
X81226Y231618D01*
X81063Y231536D01*
X80888Y231472D01*
X80701Y231426D01*
X80502Y231399D01*
X80290Y231390D01*
X80047Y231402D01*
X79818Y231438D01*
X79604Y231497D01*
X79404Y231581D01*
X79219Y231689D01*
X79048Y231820D01*
X78891Y231976D01*
X78748Y232155D01*
X78622Y232356D01*
X78512Y232579D01*
X78419Y232821D01*
X78342Y233085D01*
X78283Y233369D01*
X78241Y233674D01*
X78216Y233999D01*
X78207Y234345D01*
X78213Y234667D01*
X78233Y234969D01*
X78264Y235251D01*
X78309Y235515D01*
X78366Y235758D01*
X78436Y235982D01*
X78518Y236187D01*
X78613Y236372D01*
X78724Y236541D01*
X78852Y236697D01*
X78998Y236839D01*
X79162Y236969D01*
X79344Y237085D01*
X79544Y237188D01*
X79761Y237278D01*
X79997Y237355D01*
X80179Y236317D01*
X79891Y236212D01*
X79645Y236068D01*
X79442Y235886D01*
X79281Y235665D01*
X79159Y235402D01*
X79072Y235092D01*
X79020Y234736D01*
X79003Y234334D01*
X79022Y233895D01*
X79080Y233511D01*
X79177Y233182D01*
X79312Y232909D01*
X79394Y232794D01*
X79486Y232694D01*
X79587Y232609D01*
X79697Y232540D01*
X79817Y232486D01*
X79947Y232448D01*
X80086Y232425D01*
X80234Y232417D01*
X80406Y232429D01*
X80562Y232465D01*
X80703Y232524D01*
X80828Y232608D01*
X80941Y232714D01*
X81045Y232840D01*
X81140Y232988D01*
X81226Y233157D01*
X81312Y233381D01*
X81407Y233695D01*
X81626Y234588D01*
X81795Y235303D01*
X81889Y235652D01*
X81999Y235986D01*
X82128Y236301D01*
X82278Y236596D01*
X82456Y236862D01*
X82670Y237090D01*
X82923Y237277D01*
X83217Y237419D01*
X83381Y237471D01*
X83560Y237508D01*
X83752Y237530D01*
X83957Y237538D01*
X84219Y237525D01*
X84465Y237485D01*
X84697Y237419D01*
X84913Y237327D01*
X85114Y237209D01*
X85300Y237064D01*
X85470Y236893D01*
X85625Y236695D01*
X85764Y236474D01*
X85884Y236231D01*
X85986Y235967D01*
X86069Y235681D01*
X86133Y235374D01*
X86180Y235045D01*
X86207Y234695D01*
X86216Y234323D01*
X86209Y233977D01*
X86186Y233649D01*
X86147Y233340D01*
X86093Y233050D01*
X86023Y232779D01*
X85938Y232526D01*
X85838Y232292D01*
X85722Y232076D01*
X85591Y231879D01*
X85444Y231701D01*
X85282Y231542D01*
X85104Y231401D01*
X84911Y231279D01*
X84702Y231176D01*
X84478Y231091D01*
X84239Y231025D01*
G37*
G36*
X86106Y249299D02*
X85404Y249299D01*
X85091Y249448D01*
X84796Y249612D01*
X84521Y249792D01*
X84264Y249987D01*
X83793Y250403D01*
X83369Y250840D01*
X82983Y251286D01*
X82626Y251727D01*
X82284Y252145D01*
X81941Y252520D01*
X81590Y252839D01*
X81223Y253091D01*
X81029Y253187D01*
X80823Y253255D01*
X80604Y253296D01*
X80372Y253309D01*
X80070Y253286D01*
X79803Y253216D01*
X79573Y253098D01*
X79378Y252934D01*
X79223Y252728D01*
X79113Y252485D01*
X79047Y252206D01*
X79025Y251890D01*
X79046Y251586D01*
X79111Y251311D01*
X79219Y251063D01*
X79370Y250843D01*
X79560Y250659D01*
X79785Y250517D01*
X80045Y250417D01*
X80339Y250360D01*
X80245Y249343D01*
X80018Y249380D01*
X79802Y249434D01*
X79599Y249507D01*
X79407Y249597D01*
X79227Y249705D01*
X79060Y249831D01*
X78904Y249974D01*
X78760Y250136D01*
X78630Y250313D01*
X78518Y250502D01*
X78423Y250702D01*
X78345Y250916D01*
X78285Y251141D01*
X78242Y251378D01*
X78216Y251628D01*
X78207Y251890D01*
X78216Y252175D01*
X78242Y252444D01*
X78285Y252696D01*
X78346Y252930D01*
X78424Y253148D01*
X78519Y253349D01*
X78632Y253532D01*
X78762Y253699D01*
X78908Y253847D01*
X79069Y253976D01*
X79244Y254084D01*
X79434Y254173D01*
X79639Y254242D01*
X79858Y254292D01*
X80091Y254321D01*
X80339Y254331D01*
X80565Y254318D01*
X80791Y254280D01*
X81016Y254215D01*
X81240Y254124D01*
X81463Y254008D01*
X81687Y253867D01*
X81911Y253700D01*
X82134Y253508D01*
X82389Y253257D01*
X82705Y252913D01*
X83521Y251945D01*
X84015Y251375D01*
X84457Y250934D01*
X84664Y250760D01*
X84867Y250611D01*
X85066Y250489D01*
X85261Y250393D01*
X85261Y254453D01*
X86106Y254453D01*
X86106Y249299D01*
G37*
G36*
X76920Y153411D02*
X76920Y154511D01*
X81864Y155908D01*
X82806Y156147D01*
X83775Y156367D01*
X82449Y156673D01*
X80708Y157143D01*
X76920Y158206D01*
X76920Y159217D01*
X81764Y160570D01*
X82861Y160846D01*
X83775Y161056D01*
X83582Y161106D01*
X82546Y161349D01*
X80939Y161784D01*
X76920Y162901D01*
X76920Y164000D01*
X84703Y161708D01*
X84703Y160449D01*
X79759Y159101D01*
X79112Y158938D01*
X78097Y158714D01*
X79168Y158471D01*
X80767Y158044D01*
X84703Y156963D01*
X84703Y155704D01*
X76920Y153411D01*
G37*
G36*
X82836Y146344D02*
X82632Y147366D01*
X82801Y147417D01*
X82959Y147479D01*
X83105Y147555D01*
X83240Y147642D01*
X83363Y147742D01*
X83474Y147855D01*
X83574Y147980D01*
X83662Y148117D01*
X83806Y148430D01*
X83908Y148795D01*
X83970Y149212D01*
X83990Y149681D01*
X83969Y150162D01*
X83903Y150586D01*
X83853Y150776D01*
X83793Y150951D01*
X83722Y151111D01*
X83640Y151258D01*
X83547Y151388D01*
X83444Y151500D01*
X83330Y151596D01*
X83207Y151674D01*
X83073Y151735D01*
X82929Y151778D01*
X82774Y151804D01*
X82610Y151813D01*
X82428Y151802D01*
X82264Y151769D01*
X82119Y151715D01*
X81991Y151639D01*
X81877Y151543D01*
X81774Y151429D01*
X81681Y151298D01*
X81599Y151150D01*
X81456Y150805D01*
X81339Y150399D01*
X81113Y149432D01*
X80908Y148621D01*
X80806Y148298D01*
X80704Y148032D01*
X80599Y147805D01*
X80488Y147604D01*
X80371Y147428D01*
X80248Y147278D01*
X80117Y147148D01*
X79975Y147034D01*
X79823Y146936D01*
X79660Y146855D01*
X79485Y146791D01*
X79298Y146745D01*
X79099Y146718D01*
X78887Y146709D01*
X78644Y146721D01*
X78415Y146757D01*
X78201Y146816D01*
X78001Y146900D01*
X77816Y147008D01*
X77645Y147139D01*
X77488Y147295D01*
X77345Y147474D01*
X77219Y147675D01*
X77109Y147898D01*
X77016Y148140D01*
X76939Y148404D01*
X76880Y148688D01*
X76838Y148993D01*
X76813Y149318D01*
X76804Y149664D01*
X76810Y149986D01*
X76830Y150288D01*
X76861Y150570D01*
X76906Y150834D01*
X76963Y151077D01*
X77033Y151301D01*
X77115Y151506D01*
X77210Y151691D01*
X77321Y151860D01*
X77449Y152016D01*
X77595Y152158D01*
X77759Y152288D01*
X77941Y152404D01*
X78141Y152507D01*
X78358Y152597D01*
X78594Y152674D01*
X78776Y151636D01*
X78488Y151531D01*
X78242Y151387D01*
X78039Y151205D01*
X77878Y150984D01*
X77756Y150721D01*
X77669Y150411D01*
X77617Y150055D01*
X77600Y149653D01*
X77619Y149214D01*
X77677Y148830D01*
X77774Y148501D01*
X77909Y148228D01*
X77991Y148113D01*
X78083Y148013D01*
X78184Y147928D01*
X78294Y147859D01*
X78414Y147805D01*
X78544Y147767D01*
X78683Y147744D01*
X78831Y147736D01*
X79003Y147748D01*
X79159Y147784D01*
X79300Y147843D01*
X79425Y147927D01*
X79538Y148033D01*
X79642Y148159D01*
X79737Y148307D01*
X79823Y148476D01*
X79909Y148700D01*
X80004Y149014D01*
X80223Y149907D01*
X80392Y150622D01*
X80486Y150971D01*
X80596Y151304D01*
X80725Y151620D01*
X80875Y151915D01*
X81053Y152181D01*
X81267Y152409D01*
X81520Y152596D01*
X81814Y152738D01*
X81978Y152790D01*
X82157Y152827D01*
X82349Y152849D01*
X82554Y152857D01*
X82816Y152843D01*
X83062Y152804D01*
X83294Y152738D01*
X83510Y152646D01*
X83711Y152528D01*
X83897Y152383D01*
X84067Y152212D01*
X84222Y152014D01*
X84361Y151793D01*
X84481Y151550D01*
X84583Y151286D01*
X84666Y151000D01*
X84730Y150693D01*
X84777Y150364D01*
X84804Y150014D01*
X84813Y149642D01*
X84806Y149296D01*
X84783Y148968D01*
X84744Y148659D01*
X84690Y148369D01*
X84620Y148098D01*
X84535Y147845D01*
X84435Y147611D01*
X84319Y147395D01*
X84188Y147198D01*
X84041Y147020D01*
X83879Y146861D01*
X83701Y146720D01*
X83508Y146598D01*
X83299Y146495D01*
X83075Y146410D01*
X82836Y146344D01*
G37*
G36*
X84703Y164911D02*
X83858Y164911D01*
X83858Y166894D01*
X77870Y166894D01*
X79124Y165137D01*
X78185Y165137D01*
X76920Y166977D01*
X76920Y167894D01*
X83858Y167894D01*
X83858Y169788D01*
X84703Y169788D01*
X84703Y164911D01*
G37*
G36*
X285363Y302270D02*
X277629Y302270D01*
X277629Y303610D01*
X280773Y303610D01*
X280773Y313105D01*
X277988Y311117D01*
X277988Y312605D01*
X280904Y314611D01*
X282358Y314611D01*
X282358Y303610D01*
X285363Y303610D01*
X285363Y302270D01*
G37*
G36*
X235806Y302270D02*
X227635Y302270D01*
X227635Y303383D01*
X227870Y303880D01*
X228131Y304347D01*
X228415Y304784D01*
X228725Y305191D01*
X229051Y305574D01*
X229385Y305938D01*
X229728Y306283D01*
X230078Y306610D01*
X230784Y307222D01*
X231484Y307788D01*
X232146Y308331D01*
X232741Y308874D01*
X233008Y309149D01*
X233248Y309431D01*
X233461Y309718D01*
X233647Y310013D01*
X233799Y310321D01*
X233907Y310648D01*
X233972Y310995D01*
X233993Y311362D01*
X233984Y311609D01*
X233956Y311841D01*
X233910Y312060D01*
X233844Y312264D01*
X233761Y312454D01*
X233658Y312630D01*
X233537Y312791D01*
X233398Y312938D01*
X233242Y313070D01*
X233071Y313184D01*
X232886Y313280D01*
X232686Y313359D01*
X232472Y313420D01*
X232243Y313464D01*
X232000Y313490D01*
X231742Y313499D01*
X231496Y313490D01*
X231261Y313465D01*
X231037Y313422D01*
X230824Y313362D01*
X230622Y313285D01*
X230431Y313191D01*
X230251Y313080D01*
X230083Y312951D01*
X229928Y312808D01*
X229790Y312650D01*
X229669Y312479D01*
X229565Y312293D01*
X229477Y312094D01*
X229407Y311882D01*
X229353Y311655D01*
X229316Y311414D01*
X227705Y311563D01*
X227763Y311924D01*
X227849Y312266D01*
X227963Y312588D01*
X228106Y312892D01*
X228278Y313177D01*
X228477Y313444D01*
X228705Y313691D01*
X228961Y313919D01*
X229242Y314125D01*
X229541Y314302D01*
X229860Y314453D01*
X230198Y314576D01*
X230555Y314672D01*
X230931Y314740D01*
X231327Y314781D01*
X231742Y314795D01*
X232195Y314781D01*
X232621Y314740D01*
X233020Y314671D01*
X233392Y314575D01*
X233737Y314451D01*
X234055Y314300D01*
X234347Y314121D01*
X234611Y313915D01*
X234846Y313683D01*
X235049Y313429D01*
X235222Y313151D01*
X235363Y312850D01*
X235473Y312525D01*
X235551Y312178D01*
X235598Y311808D01*
X235614Y311414D01*
X235593Y311056D01*
X235531Y310698D01*
X235429Y310342D01*
X235285Y309987D01*
X235101Y309632D01*
X234877Y309277D01*
X234613Y308923D01*
X234309Y308568D01*
X233911Y308164D01*
X233365Y307663D01*
X232671Y307065D01*
X231830Y306369D01*
X231352Y305968D01*
X230926Y305587D01*
X230551Y305226D01*
X230227Y304885D01*
X229950Y304557D01*
X229715Y304236D01*
X229521Y303920D01*
X229369Y303610D01*
X235806Y303610D01*
X235806Y302270D01*
G37*
G36*
X235441Y266627D02*
X233707Y266627D01*
X238743Y278968D01*
X240644Y278968D01*
X245601Y266627D01*
X243893Y266627D01*
X242483Y270236D01*
X236860Y270236D01*
X235441Y266627D01*
G37*
%LPC*%
G36*
X241984Y271541D02*
X240399Y275614D01*
X240153Y276257D01*
X239908Y276980D01*
X239672Y277707D01*
X239593Y277462D01*
X239321Y276632D01*
X238945Y275596D01*
X237368Y271541D01*
X241984Y271541D01*
G37*
%LPD*%
G36*
X248938Y266627D02*
X247265Y266627D01*
X247265Y278968D01*
X248938Y278968D01*
X248938Y266627D01*
G37*
G36*
X307062Y61866D02*
X299328Y61866D01*
X299328Y63206D01*
X302473Y63206D01*
X302473Y72700D01*
X299687Y70712D01*
X299687Y72201D01*
X302604Y74206D01*
X304058Y74206D01*
X304058Y63206D01*
X307062Y63206D01*
X307062Y61866D01*
G37*
G36*
X356566Y61866D02*
X348394Y61866D01*
X348394Y62978D01*
X348630Y63475D01*
X348890Y63942D01*
X349175Y64380D01*
X349485Y64787D01*
X349811Y65169D01*
X350145Y65533D01*
X350487Y65879D01*
X350838Y66205D01*
X351544Y66817D01*
X352244Y67383D01*
X352906Y67926D01*
X353500Y68470D01*
X353767Y68744D01*
X354007Y69026D01*
X354220Y69314D01*
X354407Y69608D01*
X354558Y69916D01*
X354666Y70243D01*
X354731Y70590D01*
X354753Y70957D01*
X354744Y71204D01*
X354716Y71436D01*
X354669Y71655D01*
X354604Y71859D01*
X354520Y72049D01*
X354418Y72225D01*
X354297Y72386D01*
X354157Y72533D01*
X354001Y72665D01*
X353830Y72779D01*
X353645Y72875D01*
X353446Y72954D01*
X353231Y73015D01*
X353003Y73059D01*
X352760Y73085D01*
X352502Y73094D01*
X352256Y73085D01*
X352020Y73060D01*
X351796Y73017D01*
X351583Y72957D01*
X351381Y72880D01*
X351191Y72786D01*
X351011Y72675D01*
X350842Y72547D01*
X350687Y72403D01*
X350550Y72245D01*
X350429Y72074D01*
X350324Y71889D01*
X350237Y71690D01*
X350166Y71477D01*
X350113Y71250D01*
X350076Y71009D01*
X348464Y71158D01*
X348522Y71519D01*
X348608Y71861D01*
X348723Y72184D01*
X348866Y72487D01*
X349037Y72773D01*
X349237Y73039D01*
X349465Y73286D01*
X349721Y73514D01*
X350001Y73720D01*
X350300Y73898D01*
X350619Y74048D01*
X350957Y74171D01*
X351314Y74267D01*
X351691Y74336D01*
X352087Y74377D01*
X352502Y74390D01*
X352955Y74377D01*
X353381Y74335D01*
X353780Y74266D01*
X354152Y74170D01*
X354497Y74046D01*
X354815Y73895D01*
X355106Y73716D01*
X355370Y73510D01*
X355605Y73278D01*
X355809Y73024D01*
X355981Y72746D01*
X356122Y72445D01*
X356232Y72121D01*
X356310Y71773D01*
X356357Y71403D01*
X356373Y71009D01*
X356353Y70651D01*
X356291Y70293D01*
X356188Y69937D01*
X356045Y69582D01*
X355861Y69227D01*
X355636Y68872D01*
X355372Y68518D01*
X355068Y68163D01*
X354670Y67760D01*
X354124Y67259D01*
X353431Y66660D01*
X352589Y65965D01*
X352112Y65563D01*
X351685Y65182D01*
X351310Y64821D01*
X350987Y64480D01*
X350710Y64152D01*
X350474Y63831D01*
X350281Y63515D01*
X350128Y63206D01*
X356566Y63206D01*
X356566Y61866D01*
G37*
G36*
X348272Y98062D02*
X347805Y98075D01*
X347355Y98111D01*
X346920Y98171D01*
X346502Y98255D01*
X346100Y98364D01*
X345715Y98496D01*
X345345Y98653D01*
X344992Y98833D01*
X344658Y99037D01*
X344343Y99262D01*
X344049Y99508D01*
X343776Y99776D01*
X343523Y100065D01*
X343290Y100376D01*
X343078Y100708D01*
X342886Y101062D01*
X342715Y101434D01*
X342568Y101822D01*
X342443Y102224D01*
X342341Y102642D01*
X342261Y103075D01*
X342204Y103523D01*
X342170Y103986D01*
X342159Y104465D01*
X342165Y104830D01*
X342184Y105185D01*
X342216Y105530D01*
X342260Y105864D01*
X342317Y106189D01*
X342387Y106504D01*
X342469Y106808D01*
X342564Y107102D01*
X342672Y107387D01*
X342792Y107661D01*
X342925Y107925D01*
X343070Y108179D01*
X343399Y108657D01*
X343779Y109094D01*
X344204Y109485D01*
X344431Y109661D01*
X344669Y109824D01*
X344916Y109974D01*
X345173Y110111D01*
X345440Y110234D01*
X345717Y110345D01*
X346004Y110443D01*
X346301Y110528D01*
X346607Y110599D01*
X346924Y110658D01*
X347251Y110704D01*
X347587Y110736D01*
X347933Y110756D01*
X348290Y110762D01*
X348753Y110751D01*
X349200Y110716D01*
X349632Y110657D01*
X350048Y110575D01*
X350449Y110470D01*
X350834Y110341D01*
X351203Y110189D01*
X351557Y110013D01*
X351893Y109816D01*
X352208Y109597D01*
X352503Y109356D01*
X352777Y109095D01*
X353032Y108812D01*
X353265Y108508D01*
X353479Y108183D01*
X353672Y107837D01*
X353843Y107472D01*
X353992Y107091D01*
X354118Y106694D01*
X354220Y106280D01*
X354300Y105851D01*
X354358Y105405D01*
X354392Y104943D01*
X354403Y104465D01*
X354392Y103989D01*
X354357Y103527D01*
X354299Y103081D01*
X354218Y102650D01*
X354114Y102234D01*
X353987Y101832D01*
X353837Y101446D01*
X353663Y101075D01*
X353468Y100722D01*
X353253Y100391D01*
X353018Y100080D01*
X352762Y99790D01*
X352487Y99521D01*
X352191Y99274D01*
X351875Y99047D01*
X351539Y98842D01*
X351185Y98659D01*
X350816Y98501D01*
X350431Y98367D01*
X350031Y98257D01*
X349614Y98172D01*
X349183Y98111D01*
X348735Y98075D01*
X348272Y98062D01*
G37*
%LPC*%
G36*
X348272Y99420D02*
X348791Y99441D01*
X349279Y99502D01*
X349735Y99605D01*
X350161Y99750D01*
X350555Y99935D01*
X350919Y100161D01*
X351251Y100429D01*
X351552Y100738D01*
X351820Y101085D01*
X352052Y101465D01*
X352249Y101880D01*
X352410Y102329D01*
X352535Y102812D01*
X352624Y103329D01*
X352677Y103880D01*
X352695Y104465D01*
X352677Y105025D01*
X352623Y105555D01*
X352533Y106053D01*
X352407Y106521D01*
X352245Y106958D01*
X352047Y107363D01*
X351814Y107738D01*
X351544Y108082D01*
X351241Y108390D01*
X350908Y108657D01*
X350546Y108883D01*
X350154Y109068D01*
X349733Y109211D01*
X349281Y109314D01*
X348800Y109375D01*
X348290Y109396D01*
X347775Y109376D01*
X347290Y109315D01*
X346836Y109214D01*
X346411Y109072D01*
X346017Y108890D01*
X345652Y108667D01*
X345318Y108404D01*
X345014Y108100D01*
X344743Y107759D01*
X344508Y107386D01*
X344310Y106981D01*
X344147Y106543D01*
X344021Y106072D01*
X343930Y105569D01*
X343876Y105033D01*
X343858Y104465D01*
X343876Y103900D01*
X343931Y103364D01*
X344022Y102859D01*
X344150Y102384D01*
X344315Y101938D01*
X344516Y101523D01*
X344753Y101137D01*
X345027Y100782D01*
X345334Y100463D01*
X345669Y100186D01*
X346032Y99952D01*
X346423Y99761D01*
X346843Y99612D01*
X347291Y99505D01*
X347768Y99441D01*
X348272Y99420D01*
G37*
%LPD*%
G36*
X331141Y98238D02*
X329407Y98238D01*
X334443Y110578D01*
X336344Y110578D01*
X341301Y98238D01*
X339593Y98238D01*
X338183Y101846D01*
X332560Y101846D01*
X331141Y98238D01*
G37*
%LPC*%
G36*
X337684Y103151D02*
X336098Y107224D01*
X335853Y107868D01*
X335608Y108590D01*
X335371Y109317D01*
X335293Y109072D01*
X335021Y108242D01*
X334644Y107206D01*
X333068Y103151D01*
X337684Y103151D01*
G37*
%LPD*%
G36*
X205462Y61734D02*
X197728Y61734D01*
X197728Y63074D01*
X200873Y63074D01*
X200873Y72568D01*
X198087Y70580D01*
X198087Y72069D01*
X201004Y74075D01*
X202458Y74075D01*
X202458Y63074D01*
X205462Y63074D01*
X205462Y61734D01*
G37*
G36*
X254966Y61734D02*
X246794Y61734D01*
X246794Y62846D01*
X247030Y63343D01*
X247290Y63811D01*
X247575Y64248D01*
X247885Y64655D01*
X248211Y65037D01*
X248545Y65401D01*
X248887Y65747D01*
X249238Y66074D01*
X249944Y66686D01*
X250644Y67252D01*
X251306Y67795D01*
X251900Y68338D01*
X252167Y68612D01*
X252407Y68894D01*
X252620Y69182D01*
X252807Y69476D01*
X252958Y69784D01*
X253066Y70111D01*
X253131Y70458D01*
X253153Y70825D01*
X253144Y71072D01*
X253116Y71305D01*
X253069Y71523D01*
X253004Y71727D01*
X252920Y71917D01*
X252818Y72093D01*
X252697Y72254D01*
X252557Y72402D01*
X252401Y72533D01*
X252230Y72647D01*
X252045Y72743D01*
X251846Y72822D01*
X251631Y72883D01*
X251403Y72927D01*
X251160Y72953D01*
X250902Y72962D01*
X250656Y72954D01*
X250420Y72928D01*
X250196Y72885D01*
X249983Y72825D01*
X249781Y72748D01*
X249591Y72654D01*
X249411Y72543D01*
X249242Y72415D01*
X249087Y72271D01*
X248950Y72113D01*
X248829Y71942D01*
X248724Y71757D01*
X248637Y71558D01*
X248566Y71345D01*
X248513Y71118D01*
X248476Y70878D01*
X246864Y71027D01*
X246922Y71387D01*
X247008Y71729D01*
X247123Y72052D01*
X247266Y72356D01*
X247437Y72641D01*
X247637Y72907D01*
X247865Y73154D01*
X248121Y73383D01*
X248401Y73588D01*
X248700Y73766D01*
X249019Y73916D01*
X249357Y74039D01*
X249714Y74135D01*
X250091Y74204D01*
X250487Y74245D01*
X250902Y74258D01*
X251355Y74245D01*
X251781Y74203D01*
X252180Y74135D01*
X252552Y74038D01*
X252897Y73915D01*
X253215Y73763D01*
X253506Y73585D01*
X253770Y73378D01*
X254005Y73147D01*
X254209Y72892D01*
X254381Y72614D01*
X254522Y72313D01*
X254632Y71989D01*
X254710Y71642D01*
X254757Y71271D01*
X254773Y70878D01*
X254753Y70519D01*
X254691Y70162D01*
X254588Y69805D01*
X254445Y69450D01*
X254261Y69095D01*
X254036Y68741D01*
X253772Y68386D01*
X253468Y68031D01*
X253070Y67628D01*
X252524Y67127D01*
X251831Y66528D01*
X250989Y65833D01*
X250512Y65431D01*
X250085Y65050D01*
X249710Y64689D01*
X249387Y64348D01*
X249110Y64021D01*
X248874Y63699D01*
X248681Y63383D01*
X248528Y63074D01*
X254966Y63074D01*
X254966Y61734D01*
G37*
G36*
X278796Y6272D02*
X278247Y6284D01*
X277728Y6321D01*
X277238Y6382D01*
X276778Y6468D01*
X276348Y6578D01*
X275947Y6713D01*
X275575Y6872D01*
X275234Y7056D01*
X274922Y7264D01*
X274639Y7497D01*
X274387Y7754D01*
X274164Y8036D01*
X273970Y8342D01*
X273806Y8672D01*
X273672Y9028D01*
X273568Y9407D01*
X275188Y9731D01*
X275268Y9463D01*
X275367Y9212D01*
X275487Y8980D01*
X275626Y8767D01*
X275785Y8572D01*
X275963Y8395D01*
X276161Y8237D01*
X276379Y8098D01*
X276617Y7976D01*
X276876Y7870D01*
X277155Y7780D01*
X277454Y7707D01*
X277774Y7650D01*
X278115Y7609D01*
X278476Y7585D01*
X278858Y7577D01*
X279251Y7585D01*
X279622Y7612D01*
X279969Y7655D01*
X280293Y7716D01*
X280594Y7794D01*
X280872Y7890D01*
X281127Y8003D01*
X281358Y8133D01*
X281565Y8280D01*
X281743Y8444D01*
X281895Y8623D01*
X282018Y8819D01*
X282115Y9032D01*
X282183Y9260D01*
X282225Y9505D01*
X282238Y9766D01*
X282221Y10054D01*
X282169Y10314D01*
X282083Y10545D01*
X281963Y10747D01*
X281811Y10927D01*
X281631Y11091D01*
X281423Y11238D01*
X281187Y11369D01*
X280926Y11487D01*
X280640Y11595D01*
X280330Y11693D01*
X279996Y11781D01*
X278464Y12140D01*
X277776Y12302D01*
X277177Y12464D01*
X276666Y12626D01*
X276243Y12788D01*
X275884Y12955D01*
X275566Y13131D01*
X275287Y13316D01*
X275048Y13511D01*
X274842Y13718D01*
X274661Y13943D01*
X274507Y14185D01*
X274378Y14443D01*
X274276Y14720D01*
X274204Y15017D01*
X274160Y15334D01*
X274146Y15670D01*
X274165Y16055D01*
X274221Y16417D01*
X274316Y16756D01*
X274449Y17073D01*
X274619Y17367D01*
X274828Y17639D01*
X275074Y17887D01*
X275359Y18113D01*
X275678Y18314D01*
X276031Y18489D01*
X276416Y18636D01*
X276833Y18757D01*
X277284Y18851D01*
X277767Y18918D01*
X278283Y18958D01*
X278831Y18972D01*
X279341Y18962D01*
X279821Y18931D01*
X280269Y18881D01*
X280686Y18811D01*
X281072Y18720D01*
X281428Y18610D01*
X281752Y18479D01*
X282046Y18328D01*
X282313Y18153D01*
X282560Y17949D01*
X282786Y17718D01*
X282992Y17458D01*
X283176Y17169D01*
X283340Y16852D01*
X283483Y16507D01*
X283605Y16134D01*
X281958Y15845D01*
X281883Y16082D01*
X281792Y16302D01*
X281686Y16505D01*
X281564Y16691D01*
X281427Y16861D01*
X281275Y17013D01*
X281108Y17149D01*
X280925Y17268D01*
X280725Y17372D01*
X280507Y17462D01*
X280271Y17538D01*
X280016Y17600D01*
X279743Y17648D01*
X279452Y17683D01*
X279142Y17704D01*
X278814Y17710D01*
X278455Y17703D01*
X278118Y17680D01*
X277802Y17641D01*
X277509Y17588D01*
X277237Y17519D01*
X276988Y17435D01*
X276760Y17335D01*
X276554Y17220D01*
X276371Y17090D01*
X276213Y16945D01*
X276079Y16784D01*
X275970Y16609D01*
X275884Y16419D01*
X275823Y16213D01*
X275787Y15993D01*
X275775Y15757D01*
X275794Y15485D01*
X275850Y15237D01*
X275945Y15014D01*
X276077Y14816D01*
X276245Y14637D01*
X276446Y14472D01*
X276680Y14321D01*
X276948Y14185D01*
X277304Y14049D01*
X277800Y13897D01*
X278438Y13731D01*
X279217Y13550D01*
X280351Y13283D01*
X280904Y13134D01*
X281433Y12959D01*
X281933Y12754D01*
X282401Y12517D01*
X282619Y12382D01*
X282822Y12234D01*
X283011Y12072D01*
X283184Y11895D01*
X283342Y11703D01*
X283481Y11494D01*
X283602Y11269D01*
X283706Y11028D01*
X283788Y10767D01*
X283847Y10485D01*
X283882Y10180D01*
X283894Y9854D01*
X283873Y9439D01*
X283810Y9048D01*
X283706Y8681D01*
X283560Y8339D01*
X283372Y8020D01*
X283143Y7726D01*
X282871Y7455D01*
X282558Y7209D01*
X282207Y6989D01*
X281822Y6799D01*
X281403Y6638D01*
X280950Y6506D01*
X280463Y6404D01*
X279941Y6330D01*
X279386Y6286D01*
X278796Y6272D01*
G37*
G36*
X267665Y6447D02*
X265930Y6447D01*
X260894Y18788D01*
X262655Y18788D01*
X266071Y10099D01*
X266806Y7918D01*
X267542Y10099D01*
X270940Y18788D01*
X272701Y18788D01*
X267665Y6447D01*
G37*
G36*
X387345Y302652D02*
X379611Y302652D01*
X379611Y303992D01*
X382755Y303992D01*
X382755Y313487D01*
X379970Y311498D01*
X379970Y312987D01*
X382886Y314993D01*
X384340Y314993D01*
X384340Y303992D01*
X387345Y303992D01*
X387345Y302652D01*
G37*
G36*
X337788Y302652D02*
X329617Y302652D01*
X329617Y303765D01*
X329852Y304262D01*
X330113Y304729D01*
X330397Y305166D01*
X330707Y305573D01*
X331033Y305956D01*
X331367Y306320D01*
X331710Y306665D01*
X332060Y306992D01*
X332766Y307604D01*
X333466Y308170D01*
X334128Y308713D01*
X334723Y309256D01*
X334990Y309531D01*
X335230Y309812D01*
X335443Y310100D01*
X335629Y310395D01*
X335781Y310702D01*
X335889Y311030D01*
X335954Y311377D01*
X335975Y311744D01*
X335966Y311991D01*
X335938Y312223D01*
X335892Y312442D01*
X335826Y312646D01*
X335743Y312836D01*
X335640Y313011D01*
X335519Y313173D01*
X335380Y313320D01*
X335224Y313452D01*
X335053Y313565D01*
X334868Y313662D01*
X334668Y313741D01*
X334454Y313802D01*
X334225Y313846D01*
X333982Y313872D01*
X333724Y313881D01*
X333478Y313872D01*
X333243Y313846D01*
X333019Y313804D01*
X332806Y313744D01*
X332604Y313667D01*
X332413Y313573D01*
X332233Y313462D01*
X332065Y313333D01*
X331910Y313190D01*
X331772Y313032D01*
X331651Y312861D01*
X331547Y312675D01*
X331459Y312476D01*
X331389Y312263D01*
X331335Y312037D01*
X331298Y311796D01*
X329687Y311945D01*
X329745Y312306D01*
X329831Y312647D01*
X329945Y312970D01*
X330088Y313274D01*
X330260Y313559D01*
X330459Y313825D01*
X330687Y314073D01*
X330943Y314301D01*
X331224Y314506D01*
X331523Y314684D01*
X331842Y314835D01*
X332180Y314958D01*
X332537Y315054D01*
X332913Y315122D01*
X333309Y315163D01*
X333724Y315177D01*
X334177Y315163D01*
X334603Y315122D01*
X335002Y315053D01*
X335374Y314957D01*
X335719Y314833D01*
X336037Y314682D01*
X336329Y314503D01*
X336593Y314297D01*
X336828Y314065D01*
X337031Y313810D01*
X337204Y313532D01*
X337345Y313231D01*
X337455Y312907D01*
X337533Y312560D01*
X337580Y312190D01*
X337596Y311796D01*
X337575Y311438D01*
X337513Y311080D01*
X337411Y310724D01*
X337267Y310369D01*
X337083Y310014D01*
X336859Y309659D01*
X336595Y309304D01*
X336291Y308950D01*
X335893Y308546D01*
X335347Y308045D01*
X334653Y307447D01*
X333812Y306751D01*
X333334Y306350D01*
X332908Y305968D01*
X332533Y305607D01*
X332209Y305267D01*
X331932Y304939D01*
X331697Y304617D01*
X331503Y304302D01*
X331351Y303992D01*
X337788Y303992D01*
X337788Y302652D01*
G37*
G36*
X323133Y267009D02*
X321461Y267009D01*
X321461Y279350D01*
X326654Y279350D01*
X327159Y279335D01*
X327634Y279289D01*
X328079Y279213D01*
X328496Y279107D01*
X328883Y278970D01*
X329241Y278803D01*
X329569Y278606D01*
X329869Y278378D01*
X330136Y278122D01*
X330367Y277842D01*
X330563Y277537D01*
X330723Y277206D01*
X330847Y276851D01*
X330936Y276471D01*
X330990Y276066D01*
X331007Y275636D01*
X330989Y275210D01*
X330936Y274805D01*
X330847Y274424D01*
X330722Y274064D01*
X330561Y273727D01*
X330364Y273413D01*
X330132Y273121D01*
X329864Y272851D01*
X329566Y272609D01*
X329242Y272399D01*
X328892Y272221D01*
X328517Y272076D01*
X328116Y271963D01*
X327689Y271882D01*
X327237Y271834D01*
X326759Y271818D01*
X323133Y271818D01*
X323133Y267009D01*
G37*
%LPC*%
G36*
X326523Y273140D02*
X326862Y273150D01*
X327180Y273179D01*
X327475Y273227D01*
X327749Y273295D01*
X328001Y273382D01*
X328231Y273489D01*
X328439Y273615D01*
X328625Y273760D01*
X328789Y273924D01*
X328932Y274108D01*
X329052Y274312D01*
X329151Y274534D01*
X329227Y274777D01*
X329282Y275038D01*
X329315Y275319D01*
X329326Y275619D01*
X329314Y275908D01*
X329281Y276179D01*
X329225Y276431D01*
X329146Y276665D01*
X329045Y276880D01*
X328922Y277076D01*
X328776Y277253D01*
X328608Y277412D01*
X328417Y277552D01*
X328204Y277674D01*
X327968Y277776D01*
X327710Y277861D01*
X327429Y277926D01*
X327126Y277973D01*
X326801Y278001D01*
X326453Y278010D01*
X323133Y278010D01*
X323133Y273140D01*
X326523Y273140D01*
G37*
%LPD*%
G36*
X337637Y267009D02*
X335640Y267009D01*
X332005Y279350D01*
X333748Y279350D01*
X335964Y271511D01*
X336343Y270018D01*
X336691Y268481D01*
X337177Y270583D01*
X337433Y271558D01*
X337923Y273344D01*
X339608Y279350D01*
X341211Y279350D01*
X343356Y271669D01*
X343794Y269930D01*
X344127Y268481D01*
X344206Y268787D01*
X344591Y270429D01*
X345281Y272977D01*
X347053Y279350D01*
X348796Y279350D01*
X345161Y267009D01*
X343164Y267009D01*
X341027Y274848D01*
X340768Y275875D01*
X340414Y277484D01*
X340028Y275785D01*
X339352Y273250D01*
X337637Y267009D01*
G37*
G36*
X351824Y267009D02*
X350336Y267009D01*
X350336Y279350D01*
X352534Y279350D01*
X355818Y270793D01*
X355990Y270258D01*
X356156Y269685D01*
X356370Y268831D01*
X356479Y269272D01*
X356664Y269895D01*
X356851Y270477D01*
X356966Y270793D01*
X360189Y279350D01*
X362335Y279350D01*
X362335Y267009D01*
X360828Y267009D01*
X360828Y275242D01*
X360848Y276582D01*
X360907Y277870D01*
X360500Y276473D01*
X360313Y275902D01*
X360136Y275417D01*
X356948Y267009D01*
X355775Y267009D01*
X352543Y275417D01*
X352052Y276906D01*
X351763Y277870D01*
X351789Y276898D01*
X351824Y275242D01*
X351824Y267009D01*
G37*
G36*
X263073Y185152D02*
X250733Y185152D01*
X250733Y190345D01*
X250748Y190850D01*
X250793Y191325D01*
X250869Y191770D01*
X250976Y192187D01*
X251112Y192574D01*
X251280Y192932D01*
X251477Y193261D01*
X251705Y193560D01*
X251960Y193827D01*
X252241Y194058D01*
X252546Y194254D01*
X252876Y194414D01*
X253231Y194538D01*
X253611Y194627D01*
X254016Y194681D01*
X254446Y194698D01*
X254873Y194681D01*
X255277Y194627D01*
X255659Y194538D01*
X256018Y194413D01*
X256355Y194252D01*
X256670Y194056D01*
X256962Y193823D01*
X257231Y193555D01*
X257474Y193257D01*
X257684Y192933D01*
X257861Y192583D01*
X258007Y192208D01*
X258120Y191807D01*
X258200Y191380D01*
X258249Y190928D01*
X258265Y190451D01*
X258265Y186825D01*
X263073Y186825D01*
X263073Y185152D01*
G37*
%LPC*%
G36*
X256942Y186825D02*
X256942Y190214D01*
X256933Y190553D01*
X256904Y190871D01*
X256855Y191167D01*
X256788Y191440D01*
X256700Y191692D01*
X256594Y191922D01*
X256468Y192130D01*
X256323Y192316D01*
X256158Y192480D01*
X255974Y192623D01*
X255771Y192743D01*
X255548Y192842D01*
X255306Y192918D01*
X255045Y192973D01*
X254764Y193006D01*
X254464Y193017D01*
X254174Y193006D01*
X253903Y192972D01*
X253651Y192916D01*
X253418Y192837D01*
X253203Y192736D01*
X253007Y192613D01*
X252829Y192467D01*
X252670Y192299D01*
X252530Y192108D01*
X252409Y191895D01*
X252306Y191659D01*
X252222Y191401D01*
X252157Y191120D01*
X252110Y190817D01*
X252082Y190492D01*
X252073Y190144D01*
X252073Y186825D01*
X256942Y186825D01*
G37*
%LPD*%
G36*
X260113Y172557D02*
X259789Y174178D01*
X260058Y174257D01*
X260308Y174357D01*
X260540Y174476D01*
X260754Y174615D01*
X260948Y174774D01*
X261125Y174953D01*
X261283Y175151D01*
X261422Y175369D01*
X261545Y175607D01*
X261650Y175865D01*
X261740Y176144D01*
X261813Y176444D01*
X261870Y176764D01*
X261911Y177105D01*
X261935Y177466D01*
X261944Y177847D01*
X261935Y178241D01*
X261909Y178611D01*
X261865Y178959D01*
X261805Y179283D01*
X261726Y179584D01*
X261631Y179862D01*
X261518Y180116D01*
X261387Y180348D01*
X261240Y180554D01*
X261077Y180733D01*
X260897Y180884D01*
X260701Y181008D01*
X260489Y181104D01*
X260260Y181173D01*
X260015Y181214D01*
X259754Y181228D01*
X259466Y181211D01*
X259207Y181159D01*
X258976Y181073D01*
X258773Y180952D01*
X258593Y180800D01*
X258429Y180621D01*
X258282Y180413D01*
X258151Y180177D01*
X258033Y179916D01*
X257926Y179630D01*
X257828Y179320D01*
X257739Y178986D01*
X257380Y177453D01*
X257218Y176766D01*
X257056Y176167D01*
X256894Y175656D01*
X256732Y175233D01*
X256566Y174874D01*
X256390Y174555D01*
X256204Y174276D01*
X256010Y174037D01*
X255802Y173831D01*
X255577Y173651D01*
X255336Y173496D01*
X255077Y173367D01*
X254800Y173266D01*
X254503Y173193D01*
X254187Y173150D01*
X253851Y173135D01*
X253466Y173154D01*
X253103Y173211D01*
X252764Y173306D01*
X252447Y173439D01*
X252153Y173609D01*
X251882Y173818D01*
X251633Y174064D01*
X251407Y174348D01*
X251206Y174668D01*
X251032Y175020D01*
X250884Y175405D01*
X250763Y175823D01*
X250669Y176274D01*
X250602Y176757D01*
X250562Y177273D01*
X250549Y177821D01*
X250559Y178331D01*
X250589Y178810D01*
X250639Y179258D01*
X250710Y179676D01*
X250800Y180062D01*
X250911Y180417D01*
X251042Y180742D01*
X251192Y181036D01*
X251368Y181303D01*
X251571Y181550D01*
X251803Y181776D01*
X252063Y181981D01*
X252351Y182166D01*
X252668Y182330D01*
X253013Y182472D01*
X253386Y182595D01*
X253676Y180948D01*
X253439Y180872D01*
X253219Y180782D01*
X253016Y180675D01*
X252829Y180554D01*
X252660Y180417D01*
X252507Y180265D01*
X252371Y180097D01*
X252252Y179914D01*
X252149Y179715D01*
X252059Y179497D01*
X251983Y179260D01*
X251921Y179006D01*
X251872Y178733D01*
X251838Y178441D01*
X251817Y178132D01*
X251810Y177804D01*
X251818Y177445D01*
X251841Y177107D01*
X251879Y176792D01*
X251933Y176499D01*
X252002Y176227D01*
X252086Y175977D01*
X252185Y175750D01*
X252300Y175544D01*
X252431Y175361D01*
X252576Y175203D01*
X252736Y175069D01*
X252911Y174959D01*
X253102Y174874D01*
X253307Y174813D01*
X253528Y174777D01*
X253763Y174764D01*
X254035Y174783D01*
X254283Y174840D01*
X254506Y174934D01*
X254705Y175067D01*
X254884Y175234D01*
X255048Y175436D01*
X255199Y175670D01*
X255335Y175938D01*
X255472Y176293D01*
X255623Y176790D01*
X255789Y177428D01*
X255970Y178206D01*
X256237Y179341D01*
X256386Y179894D01*
X256561Y180422D01*
X256766Y180923D01*
X257004Y181390D01*
X257138Y181608D01*
X257286Y181812D01*
X257449Y182000D01*
X257626Y182174D01*
X257818Y182331D01*
X258026Y182471D01*
X258251Y182592D01*
X258493Y182695D01*
X258753Y182778D01*
X259036Y182836D01*
X259340Y182872D01*
X259666Y182884D01*
X260081Y182863D01*
X260472Y182800D01*
X260839Y182696D01*
X261182Y182550D01*
X261500Y182362D01*
X261795Y182132D01*
X262065Y181861D01*
X262311Y181548D01*
X262531Y181197D01*
X262721Y180812D01*
X262883Y180393D01*
X263014Y179940D01*
X263117Y179452D01*
X263190Y178931D01*
X263234Y178376D01*
X263249Y177786D01*
X263236Y177237D01*
X263200Y176718D01*
X263138Y176228D01*
X263053Y175768D01*
X262942Y175337D01*
X262808Y174936D01*
X262648Y174565D01*
X262465Y174224D01*
X262256Y173912D01*
X262024Y173629D01*
X261767Y173376D01*
X261485Y173153D01*
X261179Y172960D01*
X260848Y172796D01*
X260493Y172662D01*
X260113Y172557D01*
G37*
G36*
X263073Y197015D02*
X261733Y197015D01*
X261733Y200160D01*
X252239Y200160D01*
X254227Y197374D01*
X252738Y197374D01*
X250733Y200291D01*
X250733Y201745D01*
X261733Y201745D01*
X261733Y204749D01*
X263073Y204749D01*
X263073Y197015D01*
G37*
D10*
X487161Y214001D02*
X489701Y216541D01*
X487161Y214001D02*
X393181Y214001D01*
X390641Y216541D01*
X489701Y216541D02*
X490971Y245751D01*
X389371Y245751D02*
X390641Y216541D01*
D11*
X395213Y220097D03*
D12*
X440171Y253371D03*
D13*
X396356Y247021D03*
D14*
X427471Y247021D03*
X452871Y247021D03*
D13*
X483986Y247021D03*
D10*
X487226Y158750D02*
X487326Y158748D01*
X487425Y158742D01*
X487525Y158732D01*
X487623Y158719D01*
X487722Y158701D01*
X487819Y158680D01*
X487915Y158655D01*
X488011Y158626D01*
X488105Y158593D01*
X488198Y158557D01*
X488289Y158517D01*
X488379Y158473D01*
X488467Y158426D01*
X488553Y158376D01*
X488637Y158322D01*
X488719Y158265D01*
X488798Y158205D01*
X488876Y158141D01*
X488950Y158075D01*
X489022Y158006D01*
X489091Y157934D01*
X489157Y157860D01*
X489221Y157782D01*
X489281Y157703D01*
X489338Y157621D01*
X489392Y157537D01*
X489442Y157451D01*
X489489Y157363D01*
X489533Y157273D01*
X489573Y157182D01*
X489609Y157089D01*
X489642Y156995D01*
X489671Y156899D01*
X489696Y156803D01*
X489717Y156706D01*
X489735Y156607D01*
X489748Y156509D01*
X489758Y156409D01*
X489764Y156310D01*
X489766Y156210D01*
X469446Y158750D02*
X469346Y158748D01*
X469247Y158742D01*
X469147Y158732D01*
X469049Y158719D01*
X468950Y158701D01*
X468853Y158680D01*
X468757Y158655D01*
X468661Y158626D01*
X468567Y158593D01*
X468474Y158557D01*
X468383Y158517D01*
X468293Y158473D01*
X468205Y158426D01*
X468119Y158376D01*
X468035Y158322D01*
X467953Y158265D01*
X467874Y158205D01*
X467796Y158141D01*
X467722Y158075D01*
X467650Y158006D01*
X467581Y157934D01*
X467515Y157860D01*
X467451Y157782D01*
X467391Y157703D01*
X467334Y157621D01*
X467280Y157537D01*
X467230Y157451D01*
X467183Y157363D01*
X467139Y157273D01*
X467099Y157182D01*
X467063Y157089D01*
X467030Y156995D01*
X467001Y156899D01*
X466976Y156803D01*
X466955Y156706D01*
X466937Y156607D01*
X466924Y156509D01*
X466914Y156409D01*
X466908Y156310D01*
X466906Y156210D01*
X466906Y97790D02*
X466908Y97690D01*
X466914Y97591D01*
X466924Y97491D01*
X466937Y97393D01*
X466955Y97294D01*
X466976Y97197D01*
X467001Y97101D01*
X467030Y97005D01*
X467063Y96911D01*
X467099Y96818D01*
X467139Y96727D01*
X467183Y96637D01*
X467230Y96549D01*
X467280Y96463D01*
X467334Y96379D01*
X467391Y96297D01*
X467451Y96218D01*
X467515Y96140D01*
X467581Y96066D01*
X467650Y95994D01*
X467722Y95925D01*
X467796Y95859D01*
X467874Y95795D01*
X467953Y95735D01*
X468035Y95678D01*
X468119Y95624D01*
X468205Y95574D01*
X468293Y95527D01*
X468383Y95483D01*
X468474Y95443D01*
X468567Y95407D01*
X468661Y95374D01*
X468757Y95345D01*
X468853Y95320D01*
X468950Y95299D01*
X469049Y95281D01*
X469147Y95268D01*
X469247Y95258D01*
X469346Y95252D01*
X469446Y95250D01*
X487226Y95250D02*
X487326Y95252D01*
X487425Y95258D01*
X487525Y95268D01*
X487623Y95281D01*
X487722Y95299D01*
X487819Y95320D01*
X487915Y95345D01*
X488011Y95374D01*
X488105Y95407D01*
X488198Y95443D01*
X488289Y95483D01*
X488379Y95527D01*
X488467Y95574D01*
X488553Y95624D01*
X488637Y95678D01*
X488719Y95735D01*
X488798Y95795D01*
X488876Y95859D01*
X488950Y95925D01*
X489022Y95994D01*
X489091Y96066D01*
X489157Y96140D01*
X489221Y96218D01*
X489281Y96297D01*
X489338Y96379D01*
X489392Y96463D01*
X489442Y96549D01*
X489489Y96637D01*
X489533Y96727D01*
X489573Y96818D01*
X489609Y96911D01*
X489642Y97005D01*
X489671Y97101D01*
X489696Y97197D01*
X489717Y97294D01*
X489735Y97393D01*
X489748Y97491D01*
X489758Y97591D01*
X489764Y97690D01*
X489766Y97790D01*
X487226Y158750D02*
X469446Y158750D01*
X489766Y156210D02*
X489766Y152400D01*
X488496Y151130D01*
X466906Y152400D02*
X466906Y156210D01*
X466906Y152400D02*
X468176Y151130D01*
X488496Y102870D02*
X489766Y101600D01*
X488496Y102870D02*
X488496Y151130D01*
X468176Y102870D02*
X466906Y101600D01*
X468176Y102870D02*
X468176Y151130D01*
X489766Y101600D02*
X489766Y97790D01*
X466906Y97790D02*
X466906Y101600D01*
X469446Y95250D02*
X487226Y95250D01*
D15*
X478336Y90932D03*
X478336Y163068D03*
D10*
X138430Y106174D02*
X138428Y106274D01*
X138422Y106373D01*
X138412Y106473D01*
X138399Y106571D01*
X138381Y106670D01*
X138360Y106767D01*
X138335Y106863D01*
X138306Y106959D01*
X138273Y107053D01*
X138237Y107146D01*
X138197Y107237D01*
X138153Y107327D01*
X138106Y107415D01*
X138056Y107501D01*
X138002Y107585D01*
X137945Y107667D01*
X137885Y107746D01*
X137821Y107824D01*
X137755Y107898D01*
X137686Y107970D01*
X137614Y108039D01*
X137540Y108105D01*
X137462Y108169D01*
X137383Y108229D01*
X137301Y108286D01*
X137217Y108340D01*
X137131Y108390D01*
X137043Y108437D01*
X136953Y108481D01*
X136862Y108521D01*
X136769Y108557D01*
X136675Y108590D01*
X136579Y108619D01*
X136483Y108644D01*
X136386Y108665D01*
X136287Y108683D01*
X136189Y108696D01*
X136089Y108706D01*
X135990Y108712D01*
X135890Y108714D01*
X118110Y108714D02*
X118010Y108712D01*
X117911Y108706D01*
X117811Y108696D01*
X117713Y108683D01*
X117614Y108665D01*
X117517Y108644D01*
X117421Y108619D01*
X117325Y108590D01*
X117231Y108557D01*
X117138Y108521D01*
X117047Y108481D01*
X116957Y108437D01*
X116869Y108390D01*
X116783Y108340D01*
X116699Y108286D01*
X116617Y108229D01*
X116538Y108169D01*
X116460Y108105D01*
X116386Y108039D01*
X116314Y107970D01*
X116245Y107898D01*
X116179Y107824D01*
X116115Y107746D01*
X116055Y107667D01*
X115998Y107585D01*
X115944Y107501D01*
X115894Y107415D01*
X115847Y107327D01*
X115803Y107237D01*
X115763Y107146D01*
X115727Y107053D01*
X115694Y106959D01*
X115665Y106863D01*
X115640Y106767D01*
X115619Y106670D01*
X115601Y106571D01*
X115588Y106473D01*
X115578Y106373D01*
X115572Y106274D01*
X115570Y106174D01*
X115570Y47754D02*
X115572Y47654D01*
X115578Y47555D01*
X115588Y47455D01*
X115601Y47357D01*
X115619Y47258D01*
X115640Y47161D01*
X115665Y47065D01*
X115694Y46969D01*
X115727Y46875D01*
X115763Y46782D01*
X115803Y46691D01*
X115847Y46601D01*
X115894Y46513D01*
X115944Y46427D01*
X115998Y46343D01*
X116055Y46261D01*
X116115Y46182D01*
X116179Y46104D01*
X116245Y46030D01*
X116314Y45958D01*
X116386Y45889D01*
X116460Y45823D01*
X116538Y45759D01*
X116617Y45699D01*
X116699Y45642D01*
X116783Y45588D01*
X116869Y45538D01*
X116957Y45491D01*
X117047Y45447D01*
X117138Y45407D01*
X117231Y45371D01*
X117325Y45338D01*
X117421Y45309D01*
X117517Y45284D01*
X117614Y45263D01*
X117713Y45245D01*
X117811Y45232D01*
X117911Y45222D01*
X118010Y45216D01*
X118110Y45214D01*
X135890Y45214D02*
X135990Y45216D01*
X136089Y45222D01*
X136189Y45232D01*
X136287Y45245D01*
X136386Y45263D01*
X136483Y45284D01*
X136579Y45309D01*
X136675Y45338D01*
X136769Y45371D01*
X136862Y45407D01*
X136953Y45447D01*
X137043Y45491D01*
X137131Y45538D01*
X137217Y45588D01*
X137301Y45642D01*
X137383Y45699D01*
X137462Y45759D01*
X137540Y45823D01*
X137614Y45889D01*
X137686Y45958D01*
X137755Y46030D01*
X137821Y46104D01*
X137885Y46182D01*
X137945Y46261D01*
X138002Y46343D01*
X138056Y46427D01*
X138106Y46513D01*
X138153Y46601D01*
X138197Y46691D01*
X138237Y46782D01*
X138273Y46875D01*
X138306Y46969D01*
X138335Y47065D01*
X138360Y47161D01*
X138381Y47258D01*
X138399Y47357D01*
X138412Y47455D01*
X138422Y47555D01*
X138428Y47654D01*
X138430Y47754D01*
X135890Y108714D02*
X118110Y108714D01*
X138430Y106174D02*
X138430Y102364D01*
X137160Y101094D01*
X115570Y102364D02*
X115570Y106174D01*
X115570Y102364D02*
X116840Y101094D01*
X137160Y52834D02*
X138430Y51564D01*
X137160Y52834D02*
X137160Y101094D01*
X116840Y52834D02*
X115570Y51564D01*
X116840Y52834D02*
X116840Y101094D01*
X138430Y51564D02*
X138430Y47754D01*
X115570Y47754D02*
X115570Y51564D01*
X118110Y45214D02*
X135890Y45214D01*
D15*
X127000Y40896D03*
X127000Y113032D03*
D10*
X120650Y221515D02*
X120652Y221615D01*
X120658Y221714D01*
X120668Y221814D01*
X120681Y221912D01*
X120699Y222011D01*
X120720Y222108D01*
X120745Y222204D01*
X120774Y222300D01*
X120807Y222394D01*
X120843Y222487D01*
X120883Y222578D01*
X120927Y222668D01*
X120974Y222756D01*
X121024Y222842D01*
X121078Y222926D01*
X121135Y223008D01*
X121195Y223087D01*
X121259Y223165D01*
X121325Y223239D01*
X121394Y223311D01*
X121466Y223380D01*
X121540Y223446D01*
X121618Y223510D01*
X121697Y223570D01*
X121779Y223627D01*
X121863Y223681D01*
X121949Y223731D01*
X122037Y223778D01*
X122127Y223822D01*
X122218Y223862D01*
X122311Y223898D01*
X122405Y223931D01*
X122501Y223960D01*
X122597Y223985D01*
X122694Y224006D01*
X122793Y224024D01*
X122891Y224037D01*
X122991Y224047D01*
X123090Y224053D01*
X123190Y224055D01*
X120650Y203735D02*
X120652Y203635D01*
X120658Y203536D01*
X120668Y203436D01*
X120681Y203338D01*
X120699Y203239D01*
X120720Y203142D01*
X120745Y203046D01*
X120774Y202950D01*
X120807Y202856D01*
X120843Y202763D01*
X120883Y202672D01*
X120927Y202582D01*
X120974Y202494D01*
X121024Y202408D01*
X121078Y202324D01*
X121135Y202242D01*
X121195Y202163D01*
X121259Y202085D01*
X121325Y202011D01*
X121394Y201939D01*
X121466Y201870D01*
X121540Y201804D01*
X121618Y201740D01*
X121697Y201680D01*
X121779Y201623D01*
X121863Y201569D01*
X121949Y201519D01*
X122037Y201472D01*
X122127Y201428D01*
X122218Y201388D01*
X122311Y201352D01*
X122405Y201319D01*
X122501Y201290D01*
X122597Y201265D01*
X122694Y201244D01*
X122793Y201226D01*
X122891Y201213D01*
X122991Y201203D01*
X123090Y201197D01*
X123190Y201195D01*
X181610Y201195D02*
X181710Y201197D01*
X181809Y201203D01*
X181909Y201213D01*
X182007Y201226D01*
X182106Y201244D01*
X182203Y201265D01*
X182299Y201290D01*
X182395Y201319D01*
X182489Y201352D01*
X182582Y201388D01*
X182673Y201428D01*
X182763Y201472D01*
X182851Y201519D01*
X182937Y201569D01*
X183021Y201623D01*
X183103Y201680D01*
X183182Y201740D01*
X183260Y201804D01*
X183334Y201870D01*
X183406Y201939D01*
X183475Y202011D01*
X183541Y202085D01*
X183605Y202163D01*
X183665Y202242D01*
X183722Y202324D01*
X183776Y202408D01*
X183826Y202494D01*
X183873Y202582D01*
X183917Y202672D01*
X183957Y202763D01*
X183993Y202856D01*
X184026Y202950D01*
X184055Y203046D01*
X184080Y203142D01*
X184101Y203239D01*
X184119Y203338D01*
X184132Y203436D01*
X184142Y203536D01*
X184148Y203635D01*
X184150Y203735D01*
X184150Y221515D02*
X184148Y221615D01*
X184142Y221714D01*
X184132Y221814D01*
X184119Y221912D01*
X184101Y222011D01*
X184080Y222108D01*
X184055Y222204D01*
X184026Y222300D01*
X183993Y222394D01*
X183957Y222487D01*
X183917Y222578D01*
X183873Y222668D01*
X183826Y222756D01*
X183776Y222842D01*
X183722Y222926D01*
X183665Y223008D01*
X183605Y223087D01*
X183541Y223165D01*
X183475Y223239D01*
X183406Y223311D01*
X183334Y223380D01*
X183260Y223446D01*
X183182Y223510D01*
X183103Y223570D01*
X183021Y223627D01*
X182937Y223681D01*
X182851Y223731D01*
X182763Y223778D01*
X182673Y223822D01*
X182582Y223862D01*
X182489Y223898D01*
X182395Y223931D01*
X182299Y223960D01*
X182203Y223985D01*
X182106Y224006D01*
X182007Y224024D01*
X181909Y224037D01*
X181809Y224047D01*
X181710Y224053D01*
X181610Y224055D01*
X120650Y221515D02*
X120650Y203735D01*
X123190Y224055D02*
X127000Y224055D01*
X128270Y222785D01*
X127000Y201195D02*
X123190Y201195D01*
X127000Y201195D02*
X128270Y202465D01*
X176530Y222785D02*
X177800Y224055D01*
X176530Y222785D02*
X128270Y222785D01*
X176530Y202465D02*
X177800Y201195D01*
X176530Y202465D02*
X128270Y202465D01*
X177800Y224055D02*
X181610Y224055D01*
X181610Y201195D02*
X177800Y201195D01*
X184150Y203735D02*
X184150Y221515D01*
D16*
X188468Y212625D03*
X116332Y212625D03*
D10*
X123267Y171223D02*
X123167Y171221D01*
X123068Y171215D01*
X122968Y171205D01*
X122870Y171192D01*
X122771Y171174D01*
X122674Y171153D01*
X122578Y171128D01*
X122482Y171099D01*
X122388Y171066D01*
X122295Y171030D01*
X122204Y170990D01*
X122114Y170946D01*
X122026Y170899D01*
X121940Y170849D01*
X121856Y170795D01*
X121774Y170738D01*
X121695Y170678D01*
X121617Y170614D01*
X121543Y170548D01*
X121471Y170479D01*
X121402Y170407D01*
X121336Y170333D01*
X121272Y170255D01*
X121212Y170176D01*
X121155Y170094D01*
X121101Y170010D01*
X121051Y169924D01*
X121004Y169836D01*
X120960Y169746D01*
X120920Y169655D01*
X120884Y169562D01*
X120851Y169468D01*
X120822Y169372D01*
X120797Y169276D01*
X120776Y169179D01*
X120758Y169080D01*
X120745Y168982D01*
X120735Y168882D01*
X120729Y168783D01*
X120727Y168683D01*
X120727Y150903D02*
X120729Y150803D01*
X120735Y150704D01*
X120745Y150604D01*
X120758Y150506D01*
X120776Y150407D01*
X120797Y150310D01*
X120822Y150214D01*
X120851Y150118D01*
X120884Y150024D01*
X120920Y149931D01*
X120960Y149840D01*
X121004Y149750D01*
X121051Y149662D01*
X121101Y149576D01*
X121155Y149492D01*
X121212Y149410D01*
X121272Y149331D01*
X121336Y149253D01*
X121402Y149179D01*
X121471Y149107D01*
X121543Y149038D01*
X121617Y148972D01*
X121695Y148908D01*
X121774Y148848D01*
X121856Y148791D01*
X121940Y148737D01*
X122026Y148687D01*
X122114Y148640D01*
X122204Y148596D01*
X122295Y148556D01*
X122388Y148520D01*
X122482Y148487D01*
X122578Y148458D01*
X122674Y148433D01*
X122771Y148412D01*
X122870Y148394D01*
X122968Y148381D01*
X123068Y148371D01*
X123167Y148365D01*
X123267Y148363D01*
X181687Y148363D02*
X181787Y148365D01*
X181886Y148371D01*
X181986Y148381D01*
X182084Y148394D01*
X182183Y148412D01*
X182280Y148433D01*
X182376Y148458D01*
X182472Y148487D01*
X182566Y148520D01*
X182659Y148556D01*
X182750Y148596D01*
X182840Y148640D01*
X182928Y148687D01*
X183014Y148737D01*
X183098Y148791D01*
X183180Y148848D01*
X183259Y148908D01*
X183337Y148972D01*
X183411Y149038D01*
X183483Y149107D01*
X183552Y149179D01*
X183618Y149253D01*
X183682Y149331D01*
X183742Y149410D01*
X183799Y149492D01*
X183853Y149576D01*
X183903Y149662D01*
X183950Y149750D01*
X183994Y149840D01*
X184034Y149931D01*
X184070Y150024D01*
X184103Y150118D01*
X184132Y150214D01*
X184157Y150310D01*
X184178Y150407D01*
X184196Y150506D01*
X184209Y150604D01*
X184219Y150704D01*
X184225Y150803D01*
X184227Y150903D01*
X184227Y168683D02*
X184225Y168783D01*
X184219Y168882D01*
X184209Y168982D01*
X184196Y169080D01*
X184178Y169179D01*
X184157Y169276D01*
X184132Y169372D01*
X184103Y169468D01*
X184070Y169562D01*
X184034Y169655D01*
X183994Y169746D01*
X183950Y169836D01*
X183903Y169924D01*
X183853Y170010D01*
X183799Y170094D01*
X183742Y170176D01*
X183682Y170255D01*
X183618Y170333D01*
X183552Y170407D01*
X183483Y170479D01*
X183411Y170548D01*
X183337Y170614D01*
X183259Y170678D01*
X183180Y170738D01*
X183098Y170795D01*
X183014Y170849D01*
X182928Y170899D01*
X182840Y170946D01*
X182750Y170990D01*
X182659Y171030D01*
X182566Y171066D01*
X182472Y171099D01*
X182376Y171128D01*
X182280Y171153D01*
X182183Y171174D01*
X182084Y171192D01*
X181986Y171205D01*
X181886Y171215D01*
X181787Y171221D01*
X181687Y171223D01*
X120727Y168683D02*
X120727Y150903D01*
X123267Y171223D02*
X127077Y171223D01*
X128347Y169953D01*
X127077Y148363D02*
X123267Y148363D01*
X127077Y148363D02*
X128347Y149633D01*
X176607Y169953D02*
X177877Y171223D01*
X176607Y169953D02*
X128347Y169953D01*
X176607Y149633D02*
X177877Y148363D01*
X176607Y149633D02*
X128347Y149633D01*
X177877Y171223D02*
X181687Y171223D01*
X181687Y148363D02*
X177877Y148363D01*
X184227Y150903D02*
X184227Y168683D01*
D16*
X188545Y159793D03*
X116409Y159793D03*
D10*
X138430Y334010D02*
X138428Y334110D01*
X138422Y334209D01*
X138412Y334309D01*
X138399Y334407D01*
X138381Y334506D01*
X138360Y334603D01*
X138335Y334699D01*
X138306Y334795D01*
X138273Y334889D01*
X138237Y334982D01*
X138197Y335073D01*
X138153Y335163D01*
X138106Y335251D01*
X138056Y335337D01*
X138002Y335421D01*
X137945Y335503D01*
X137885Y335582D01*
X137821Y335660D01*
X137755Y335734D01*
X137686Y335806D01*
X137614Y335875D01*
X137540Y335941D01*
X137462Y336005D01*
X137383Y336065D01*
X137301Y336122D01*
X137217Y336176D01*
X137131Y336226D01*
X137043Y336273D01*
X136953Y336317D01*
X136862Y336357D01*
X136769Y336393D01*
X136675Y336426D01*
X136579Y336455D01*
X136483Y336480D01*
X136386Y336501D01*
X136287Y336519D01*
X136189Y336532D01*
X136089Y336542D01*
X135990Y336548D01*
X135890Y336550D01*
X118110Y336550D02*
X118010Y336548D01*
X117911Y336542D01*
X117811Y336532D01*
X117713Y336519D01*
X117614Y336501D01*
X117517Y336480D01*
X117421Y336455D01*
X117325Y336426D01*
X117231Y336393D01*
X117138Y336357D01*
X117047Y336317D01*
X116957Y336273D01*
X116869Y336226D01*
X116783Y336176D01*
X116699Y336122D01*
X116617Y336065D01*
X116538Y336005D01*
X116460Y335941D01*
X116386Y335875D01*
X116314Y335806D01*
X116245Y335734D01*
X116179Y335660D01*
X116115Y335582D01*
X116055Y335503D01*
X115998Y335421D01*
X115944Y335337D01*
X115894Y335251D01*
X115847Y335163D01*
X115803Y335073D01*
X115763Y334982D01*
X115727Y334889D01*
X115694Y334795D01*
X115665Y334699D01*
X115640Y334603D01*
X115619Y334506D01*
X115601Y334407D01*
X115588Y334309D01*
X115578Y334209D01*
X115572Y334110D01*
X115570Y334010D01*
X115570Y275590D02*
X115572Y275490D01*
X115578Y275391D01*
X115588Y275291D01*
X115601Y275193D01*
X115619Y275094D01*
X115640Y274997D01*
X115665Y274901D01*
X115694Y274805D01*
X115727Y274711D01*
X115763Y274618D01*
X115803Y274527D01*
X115847Y274437D01*
X115894Y274349D01*
X115944Y274263D01*
X115998Y274179D01*
X116055Y274097D01*
X116115Y274018D01*
X116179Y273940D01*
X116245Y273866D01*
X116314Y273794D01*
X116386Y273725D01*
X116460Y273659D01*
X116538Y273595D01*
X116617Y273535D01*
X116699Y273478D01*
X116783Y273424D01*
X116869Y273374D01*
X116957Y273327D01*
X117047Y273283D01*
X117138Y273243D01*
X117231Y273207D01*
X117325Y273174D01*
X117421Y273145D01*
X117517Y273120D01*
X117614Y273099D01*
X117713Y273081D01*
X117811Y273068D01*
X117911Y273058D01*
X118010Y273052D01*
X118110Y273050D01*
X135890Y273050D02*
X135990Y273052D01*
X136089Y273058D01*
X136189Y273068D01*
X136287Y273081D01*
X136386Y273099D01*
X136483Y273120D01*
X136579Y273145D01*
X136675Y273174D01*
X136769Y273207D01*
X136862Y273243D01*
X136953Y273283D01*
X137043Y273327D01*
X137131Y273374D01*
X137217Y273424D01*
X137301Y273478D01*
X137383Y273535D01*
X137462Y273595D01*
X137540Y273659D01*
X137614Y273725D01*
X137686Y273794D01*
X137755Y273866D01*
X137821Y273940D01*
X137885Y274018D01*
X137945Y274097D01*
X138002Y274179D01*
X138056Y274263D01*
X138106Y274349D01*
X138153Y274437D01*
X138197Y274527D01*
X138237Y274618D01*
X138273Y274711D01*
X138306Y274805D01*
X138335Y274901D01*
X138360Y274997D01*
X138381Y275094D01*
X138399Y275193D01*
X138412Y275291D01*
X138422Y275391D01*
X138428Y275490D01*
X138430Y275590D01*
X135890Y336550D02*
X118110Y336550D01*
X138430Y334010D02*
X138430Y330200D01*
X137160Y328930D01*
X115570Y330200D02*
X115570Y334010D01*
X115570Y330200D02*
X116840Y328930D01*
X137160Y280670D02*
X138430Y279400D01*
X137160Y280670D02*
X137160Y328930D01*
X116840Y280670D02*
X115570Y279400D01*
X116840Y280670D02*
X116840Y328930D01*
X138430Y279400D02*
X138430Y275590D01*
X115570Y275590D02*
X115570Y279400D01*
X118110Y273050D02*
X135890Y273050D01*
D15*
X127000Y268732D03*
X127000Y340868D03*
D17*
X70100Y265700D02*
X70100Y220700D01*
X51650Y213700D02*
X28650Y213700D01*
X10200Y220700D02*
X10200Y266700D01*
X28650Y273650D02*
X51650Y273650D01*
X22600Y243700D02*
X22605Y244131D01*
X22621Y244561D01*
X22648Y244991D01*
X22685Y245420D01*
X22732Y245848D01*
X22790Y246275D01*
X22858Y246700D01*
X22937Y247124D01*
X23026Y247545D01*
X23126Y247964D01*
X23236Y248381D01*
X23356Y248794D01*
X23486Y249205D01*
X23626Y249612D01*
X23776Y250016D01*
X23936Y250416D01*
X24106Y250812D01*
X24285Y251204D01*
X24474Y251591D01*
X24672Y251973D01*
X24880Y252350D01*
X25097Y252723D01*
X25323Y253089D01*
X25558Y253450D01*
X25801Y253805D01*
X26054Y254155D01*
X26315Y254497D01*
X26584Y254834D01*
X26861Y255163D01*
X27146Y255486D01*
X27439Y255801D01*
X27740Y256110D01*
X28049Y256411D01*
X28364Y256704D01*
X28687Y256989D01*
X29016Y257266D01*
X29353Y257535D01*
X29695Y257796D01*
X30045Y258049D01*
X30400Y258292D01*
X30761Y258527D01*
X31127Y258753D01*
X31500Y258970D01*
X31877Y259178D01*
X32259Y259376D01*
X32646Y259565D01*
X33038Y259744D01*
X33434Y259914D01*
X33834Y260074D01*
X34238Y260224D01*
X34645Y260364D01*
X35056Y260494D01*
X35469Y260614D01*
X35886Y260724D01*
X36305Y260824D01*
X36726Y260913D01*
X37150Y260992D01*
X37575Y261060D01*
X38002Y261118D01*
X38430Y261165D01*
X38859Y261202D01*
X39289Y261229D01*
X39719Y261245D01*
X40150Y261250D01*
X40581Y261245D01*
X41011Y261229D01*
X41441Y261202D01*
X41870Y261165D01*
X42298Y261118D01*
X42725Y261060D01*
X43150Y260992D01*
X43574Y260913D01*
X43995Y260824D01*
X44414Y260724D01*
X44831Y260614D01*
X45244Y260494D01*
X45655Y260364D01*
X46062Y260224D01*
X46466Y260074D01*
X46866Y259914D01*
X47262Y259744D01*
X47654Y259565D01*
X48041Y259376D01*
X48423Y259178D01*
X48800Y258970D01*
X49173Y258753D01*
X49539Y258527D01*
X49900Y258292D01*
X50255Y258049D01*
X50605Y257796D01*
X50947Y257535D01*
X51284Y257266D01*
X51613Y256989D01*
X51936Y256704D01*
X52251Y256411D01*
X52560Y256110D01*
X52861Y255801D01*
X53154Y255486D01*
X53439Y255163D01*
X53716Y254834D01*
X53985Y254497D01*
X54246Y254155D01*
X54499Y253805D01*
X54742Y253450D01*
X54977Y253089D01*
X55203Y252723D01*
X55420Y252350D01*
X55628Y251973D01*
X55826Y251591D01*
X56015Y251204D01*
X56194Y250812D01*
X56364Y250416D01*
X56524Y250016D01*
X56674Y249612D01*
X56814Y249205D01*
X56944Y248794D01*
X57064Y248381D01*
X57174Y247964D01*
X57274Y247545D01*
X57363Y247124D01*
X57442Y246700D01*
X57510Y246275D01*
X57568Y245848D01*
X57615Y245420D01*
X57652Y244991D01*
X57679Y244561D01*
X57695Y244131D01*
X57700Y243700D01*
X57695Y243269D01*
X57679Y242839D01*
X57652Y242409D01*
X57615Y241980D01*
X57568Y241552D01*
X57510Y241125D01*
X57442Y240700D01*
X57363Y240276D01*
X57274Y239855D01*
X57174Y239436D01*
X57064Y239019D01*
X56944Y238606D01*
X56814Y238195D01*
X56674Y237788D01*
X56524Y237384D01*
X56364Y236984D01*
X56194Y236588D01*
X56015Y236196D01*
X55826Y235809D01*
X55628Y235427D01*
X55420Y235050D01*
X55203Y234677D01*
X54977Y234311D01*
X54742Y233950D01*
X54499Y233595D01*
X54246Y233245D01*
X53985Y232903D01*
X53716Y232566D01*
X53439Y232237D01*
X53154Y231914D01*
X52861Y231599D01*
X52560Y231290D01*
X52251Y230989D01*
X51936Y230696D01*
X51613Y230411D01*
X51284Y230134D01*
X50947Y229865D01*
X50605Y229604D01*
X50255Y229351D01*
X49900Y229108D01*
X49539Y228873D01*
X49173Y228647D01*
X48800Y228430D01*
X48423Y228222D01*
X48041Y228024D01*
X47654Y227835D01*
X47262Y227656D01*
X46866Y227486D01*
X46466Y227326D01*
X46062Y227176D01*
X45655Y227036D01*
X45244Y226906D01*
X44831Y226786D01*
X44414Y226676D01*
X43995Y226576D01*
X43574Y226487D01*
X43150Y226408D01*
X42725Y226340D01*
X42298Y226282D01*
X41870Y226235D01*
X41441Y226198D01*
X41011Y226171D01*
X40581Y226155D01*
X40150Y226150D01*
X39719Y226155D01*
X39289Y226171D01*
X38859Y226198D01*
X38430Y226235D01*
X38002Y226282D01*
X37575Y226340D01*
X37150Y226408D01*
X36726Y226487D01*
X36305Y226576D01*
X35886Y226676D01*
X35469Y226786D01*
X35056Y226906D01*
X34645Y227036D01*
X34238Y227176D01*
X33834Y227326D01*
X33434Y227486D01*
X33038Y227656D01*
X32646Y227835D01*
X32259Y228024D01*
X31877Y228222D01*
X31500Y228430D01*
X31127Y228647D01*
X30761Y228873D01*
X30400Y229108D01*
X30045Y229351D01*
X29695Y229604D01*
X29353Y229865D01*
X29016Y230134D01*
X28687Y230411D01*
X28364Y230696D01*
X28049Y230989D01*
X27740Y231290D01*
X27439Y231599D01*
X27146Y231914D01*
X26861Y232237D01*
X26584Y232566D01*
X26315Y232903D01*
X26054Y233245D01*
X25801Y233595D01*
X25558Y233950D01*
X25323Y234311D01*
X25097Y234677D01*
X24880Y235050D01*
X24672Y235427D01*
X24474Y235809D01*
X24285Y236196D01*
X24106Y236588D01*
X23936Y236984D01*
X23776Y237384D01*
X23626Y237788D01*
X23486Y238195D01*
X23356Y238606D01*
X23236Y239019D01*
X23126Y239436D01*
X23026Y239855D01*
X22937Y240276D01*
X22858Y240700D01*
X22790Y241125D01*
X22732Y241552D01*
X22685Y241980D01*
X22648Y242409D01*
X22621Y242839D01*
X22605Y243269D01*
X22600Y243700D01*
D18*
X61650Y199250D02*
X61652Y199313D01*
X61658Y199375D01*
X61668Y199437D01*
X61681Y199499D01*
X61699Y199559D01*
X61720Y199618D01*
X61745Y199676D01*
X61774Y199732D01*
X61806Y199786D01*
X61841Y199838D01*
X61879Y199887D01*
X61921Y199935D01*
X61965Y199979D01*
X62013Y200021D01*
X62062Y200059D01*
X62114Y200094D01*
X62168Y200126D01*
X62224Y200155D01*
X62282Y200180D01*
X62341Y200201D01*
X62401Y200219D01*
X62463Y200232D01*
X62525Y200242D01*
X62587Y200248D01*
X62650Y200250D01*
X62713Y200248D01*
X62775Y200242D01*
X62837Y200232D01*
X62899Y200219D01*
X62959Y200201D01*
X63018Y200180D01*
X63076Y200155D01*
X63132Y200126D01*
X63186Y200094D01*
X63238Y200059D01*
X63287Y200021D01*
X63335Y199979D01*
X63379Y199935D01*
X63421Y199887D01*
X63459Y199838D01*
X63494Y199786D01*
X63526Y199732D01*
X63555Y199676D01*
X63580Y199618D01*
X63601Y199559D01*
X63619Y199499D01*
X63632Y199437D01*
X63642Y199375D01*
X63648Y199313D01*
X63650Y199250D01*
X63648Y199187D01*
X63642Y199125D01*
X63632Y199063D01*
X63619Y199001D01*
X63601Y198941D01*
X63580Y198882D01*
X63555Y198824D01*
X63526Y198768D01*
X63494Y198714D01*
X63459Y198662D01*
X63421Y198613D01*
X63379Y198565D01*
X63335Y198521D01*
X63287Y198479D01*
X63238Y198441D01*
X63186Y198406D01*
X63132Y198374D01*
X63076Y198345D01*
X63018Y198320D01*
X62959Y198299D01*
X62899Y198281D01*
X62837Y198268D01*
X62775Y198258D01*
X62713Y198252D01*
X62650Y198250D01*
X62587Y198252D01*
X62525Y198258D01*
X62463Y198268D01*
X62401Y198281D01*
X62341Y198299D01*
X62282Y198320D01*
X62224Y198345D01*
X62168Y198374D01*
X62114Y198406D01*
X62062Y198441D01*
X62013Y198479D01*
X61965Y198521D01*
X61921Y198565D01*
X61879Y198613D01*
X61841Y198662D01*
X61806Y198714D01*
X61774Y198768D01*
X61745Y198824D01*
X61720Y198882D01*
X61699Y198941D01*
X61681Y199001D01*
X61668Y199063D01*
X61658Y199125D01*
X61652Y199187D01*
X61650Y199250D01*
D17*
X70100Y177506D02*
X70100Y132506D01*
X51650Y125506D02*
X28650Y125506D01*
X10200Y132506D02*
X10200Y178506D01*
X28650Y185456D02*
X51650Y185456D01*
X22600Y155506D02*
X22605Y155937D01*
X22621Y156367D01*
X22648Y156797D01*
X22685Y157226D01*
X22732Y157654D01*
X22790Y158081D01*
X22858Y158506D01*
X22937Y158930D01*
X23026Y159351D01*
X23126Y159770D01*
X23236Y160187D01*
X23356Y160600D01*
X23486Y161011D01*
X23626Y161418D01*
X23776Y161822D01*
X23936Y162222D01*
X24106Y162618D01*
X24285Y163010D01*
X24474Y163397D01*
X24672Y163779D01*
X24880Y164156D01*
X25097Y164529D01*
X25323Y164895D01*
X25558Y165256D01*
X25801Y165611D01*
X26054Y165961D01*
X26315Y166303D01*
X26584Y166640D01*
X26861Y166969D01*
X27146Y167292D01*
X27439Y167607D01*
X27740Y167916D01*
X28049Y168217D01*
X28364Y168510D01*
X28687Y168795D01*
X29016Y169072D01*
X29353Y169341D01*
X29695Y169602D01*
X30045Y169855D01*
X30400Y170098D01*
X30761Y170333D01*
X31127Y170559D01*
X31500Y170776D01*
X31877Y170984D01*
X32259Y171182D01*
X32646Y171371D01*
X33038Y171550D01*
X33434Y171720D01*
X33834Y171880D01*
X34238Y172030D01*
X34645Y172170D01*
X35056Y172300D01*
X35469Y172420D01*
X35886Y172530D01*
X36305Y172630D01*
X36726Y172719D01*
X37150Y172798D01*
X37575Y172866D01*
X38002Y172924D01*
X38430Y172971D01*
X38859Y173008D01*
X39289Y173035D01*
X39719Y173051D01*
X40150Y173056D01*
X40581Y173051D01*
X41011Y173035D01*
X41441Y173008D01*
X41870Y172971D01*
X42298Y172924D01*
X42725Y172866D01*
X43150Y172798D01*
X43574Y172719D01*
X43995Y172630D01*
X44414Y172530D01*
X44831Y172420D01*
X45244Y172300D01*
X45655Y172170D01*
X46062Y172030D01*
X46466Y171880D01*
X46866Y171720D01*
X47262Y171550D01*
X47654Y171371D01*
X48041Y171182D01*
X48423Y170984D01*
X48800Y170776D01*
X49173Y170559D01*
X49539Y170333D01*
X49900Y170098D01*
X50255Y169855D01*
X50605Y169602D01*
X50947Y169341D01*
X51284Y169072D01*
X51613Y168795D01*
X51936Y168510D01*
X52251Y168217D01*
X52560Y167916D01*
X52861Y167607D01*
X53154Y167292D01*
X53439Y166969D01*
X53716Y166640D01*
X53985Y166303D01*
X54246Y165961D01*
X54499Y165611D01*
X54742Y165256D01*
X54977Y164895D01*
X55203Y164529D01*
X55420Y164156D01*
X55628Y163779D01*
X55826Y163397D01*
X56015Y163010D01*
X56194Y162618D01*
X56364Y162222D01*
X56524Y161822D01*
X56674Y161418D01*
X56814Y161011D01*
X56944Y160600D01*
X57064Y160187D01*
X57174Y159770D01*
X57274Y159351D01*
X57363Y158930D01*
X57442Y158506D01*
X57510Y158081D01*
X57568Y157654D01*
X57615Y157226D01*
X57652Y156797D01*
X57679Y156367D01*
X57695Y155937D01*
X57700Y155506D01*
X57695Y155075D01*
X57679Y154645D01*
X57652Y154215D01*
X57615Y153786D01*
X57568Y153358D01*
X57510Y152931D01*
X57442Y152506D01*
X57363Y152082D01*
X57274Y151661D01*
X57174Y151242D01*
X57064Y150825D01*
X56944Y150412D01*
X56814Y150001D01*
X56674Y149594D01*
X56524Y149190D01*
X56364Y148790D01*
X56194Y148394D01*
X56015Y148002D01*
X55826Y147615D01*
X55628Y147233D01*
X55420Y146856D01*
X55203Y146483D01*
X54977Y146117D01*
X54742Y145756D01*
X54499Y145401D01*
X54246Y145051D01*
X53985Y144709D01*
X53716Y144372D01*
X53439Y144043D01*
X53154Y143720D01*
X52861Y143405D01*
X52560Y143096D01*
X52251Y142795D01*
X51936Y142502D01*
X51613Y142217D01*
X51284Y141940D01*
X50947Y141671D01*
X50605Y141410D01*
X50255Y141157D01*
X49900Y140914D01*
X49539Y140679D01*
X49173Y140453D01*
X48800Y140236D01*
X48423Y140028D01*
X48041Y139830D01*
X47654Y139641D01*
X47262Y139462D01*
X46866Y139292D01*
X46466Y139132D01*
X46062Y138982D01*
X45655Y138842D01*
X45244Y138712D01*
X44831Y138592D01*
X44414Y138482D01*
X43995Y138382D01*
X43574Y138293D01*
X43150Y138214D01*
X42725Y138146D01*
X42298Y138088D01*
X41870Y138041D01*
X41441Y138004D01*
X41011Y137977D01*
X40581Y137961D01*
X40150Y137956D01*
X39719Y137961D01*
X39289Y137977D01*
X38859Y138004D01*
X38430Y138041D01*
X38002Y138088D01*
X37575Y138146D01*
X37150Y138214D01*
X36726Y138293D01*
X36305Y138382D01*
X35886Y138482D01*
X35469Y138592D01*
X35056Y138712D01*
X34645Y138842D01*
X34238Y138982D01*
X33834Y139132D01*
X33434Y139292D01*
X33038Y139462D01*
X32646Y139641D01*
X32259Y139830D01*
X31877Y140028D01*
X31500Y140236D01*
X31127Y140453D01*
X30761Y140679D01*
X30400Y140914D01*
X30045Y141157D01*
X29695Y141410D01*
X29353Y141671D01*
X29016Y141940D01*
X28687Y142217D01*
X28364Y142502D01*
X28049Y142795D01*
X27740Y143096D01*
X27439Y143405D01*
X27146Y143720D01*
X26861Y144043D01*
X26584Y144372D01*
X26315Y144709D01*
X26054Y145051D01*
X25801Y145401D01*
X25558Y145756D01*
X25323Y146117D01*
X25097Y146483D01*
X24880Y146856D01*
X24672Y147233D01*
X24474Y147615D01*
X24285Y148002D01*
X24106Y148394D01*
X23936Y148790D01*
X23776Y149190D01*
X23626Y149594D01*
X23486Y150001D01*
X23356Y150412D01*
X23236Y150825D01*
X23126Y151242D01*
X23026Y151661D01*
X22937Y152082D01*
X22858Y152506D01*
X22790Y152931D01*
X22732Y153358D01*
X22685Y153786D01*
X22648Y154215D01*
X22621Y154645D01*
X22605Y155075D01*
X22600Y155506D01*
D18*
X61650Y111056D02*
X61652Y111119D01*
X61658Y111181D01*
X61668Y111243D01*
X61681Y111305D01*
X61699Y111365D01*
X61720Y111424D01*
X61745Y111482D01*
X61774Y111538D01*
X61806Y111592D01*
X61841Y111644D01*
X61879Y111693D01*
X61921Y111741D01*
X61965Y111785D01*
X62013Y111827D01*
X62062Y111865D01*
X62114Y111900D01*
X62168Y111932D01*
X62224Y111961D01*
X62282Y111986D01*
X62341Y112007D01*
X62401Y112025D01*
X62463Y112038D01*
X62525Y112048D01*
X62587Y112054D01*
X62650Y112056D01*
X62713Y112054D01*
X62775Y112048D01*
X62837Y112038D01*
X62899Y112025D01*
X62959Y112007D01*
X63018Y111986D01*
X63076Y111961D01*
X63132Y111932D01*
X63186Y111900D01*
X63238Y111865D01*
X63287Y111827D01*
X63335Y111785D01*
X63379Y111741D01*
X63421Y111693D01*
X63459Y111644D01*
X63494Y111592D01*
X63526Y111538D01*
X63555Y111482D01*
X63580Y111424D01*
X63601Y111365D01*
X63619Y111305D01*
X63632Y111243D01*
X63642Y111181D01*
X63648Y111119D01*
X63650Y111056D01*
X63648Y110993D01*
X63642Y110931D01*
X63632Y110869D01*
X63619Y110807D01*
X63601Y110747D01*
X63580Y110688D01*
X63555Y110630D01*
X63526Y110574D01*
X63494Y110520D01*
X63459Y110468D01*
X63421Y110419D01*
X63379Y110371D01*
X63335Y110327D01*
X63287Y110285D01*
X63238Y110247D01*
X63186Y110212D01*
X63132Y110180D01*
X63076Y110151D01*
X63018Y110126D01*
X62959Y110105D01*
X62899Y110087D01*
X62837Y110074D01*
X62775Y110064D01*
X62713Y110058D01*
X62650Y110056D01*
X62587Y110058D01*
X62525Y110064D01*
X62463Y110074D01*
X62401Y110087D01*
X62341Y110105D01*
X62282Y110126D01*
X62224Y110151D01*
X62168Y110180D01*
X62114Y110212D01*
X62062Y110247D01*
X62013Y110285D01*
X61965Y110327D01*
X61921Y110371D01*
X61879Y110419D01*
X61841Y110468D01*
X61806Y110520D01*
X61774Y110574D01*
X61745Y110630D01*
X61720Y110688D01*
X61699Y110747D01*
X61681Y110807D01*
X61668Y110869D01*
X61658Y110931D01*
X61652Y110993D01*
X61650Y111056D01*
D10*
X382488Y130743D02*
X438368Y130743D01*
X382488Y130743D02*
X382488Y161223D01*
X438368Y161223D01*
X438368Y130743D01*
X290808Y375930D02*
X190988Y375930D01*
X190988Y286010D02*
X190988Y283980D01*
X290808Y283980D01*
X290808Y352050D02*
X290808Y375930D01*
X290808Y352050D02*
X274808Y352050D01*
X257028Y352050D02*
X224768Y352050D01*
X206988Y352050D02*
X190988Y352050D01*
X290808Y352050D02*
X290808Y286010D01*
X190988Y352050D02*
X190988Y375930D01*
X190988Y286010D02*
X290808Y286010D01*
X290808Y283980D01*
X190988Y286010D02*
X190988Y352050D01*
X260838Y299222D02*
X260840Y299364D01*
X260846Y299507D01*
X260856Y299649D01*
X260870Y299791D01*
X260888Y299932D01*
X260910Y300073D01*
X260936Y300213D01*
X260965Y300352D01*
X260999Y300491D01*
X261037Y300628D01*
X261078Y300765D01*
X261123Y300900D01*
X261172Y301034D01*
X261225Y301166D01*
X261281Y301297D01*
X261341Y301426D01*
X261405Y301554D01*
X261472Y301679D01*
X261543Y301803D01*
X261617Y301925D01*
X261694Y302044D01*
X261775Y302162D01*
X261859Y302277D01*
X261946Y302389D01*
X262037Y302499D01*
X262130Y302607D01*
X262227Y302712D01*
X262326Y302814D01*
X262428Y302913D01*
X262533Y303010D01*
X262641Y303103D01*
X262751Y303194D01*
X262863Y303281D01*
X262978Y303365D01*
X263096Y303446D01*
X263215Y303523D01*
X263337Y303597D01*
X263461Y303668D01*
X263586Y303735D01*
X263714Y303799D01*
X263843Y303859D01*
X263974Y303915D01*
X264106Y303968D01*
X264240Y304017D01*
X264375Y304062D01*
X264512Y304103D01*
X264649Y304141D01*
X264788Y304175D01*
X264927Y304204D01*
X265067Y304230D01*
X265208Y304252D01*
X265349Y304270D01*
X265491Y304284D01*
X265633Y304294D01*
X265776Y304300D01*
X265918Y304302D01*
X266060Y304300D01*
X266203Y304294D01*
X266345Y304284D01*
X266487Y304270D01*
X266628Y304252D01*
X266769Y304230D01*
X266909Y304204D01*
X267048Y304175D01*
X267187Y304141D01*
X267324Y304103D01*
X267461Y304062D01*
X267596Y304017D01*
X267730Y303968D01*
X267862Y303915D01*
X267993Y303859D01*
X268122Y303799D01*
X268250Y303735D01*
X268375Y303668D01*
X268499Y303597D01*
X268621Y303523D01*
X268740Y303446D01*
X268858Y303365D01*
X268973Y303281D01*
X269085Y303194D01*
X269195Y303103D01*
X269303Y303010D01*
X269408Y302913D01*
X269510Y302814D01*
X269609Y302712D01*
X269706Y302607D01*
X269799Y302499D01*
X269890Y302389D01*
X269977Y302277D01*
X270061Y302162D01*
X270142Y302044D01*
X270219Y301925D01*
X270293Y301803D01*
X270364Y301679D01*
X270431Y301554D01*
X270495Y301426D01*
X270555Y301297D01*
X270611Y301166D01*
X270664Y301034D01*
X270713Y300900D01*
X270758Y300765D01*
X270799Y300628D01*
X270837Y300491D01*
X270871Y300352D01*
X270900Y300213D01*
X270926Y300073D01*
X270948Y299932D01*
X270966Y299791D01*
X270980Y299649D01*
X270990Y299507D01*
X270996Y299364D01*
X270998Y299222D01*
X270996Y299080D01*
X270990Y298937D01*
X270980Y298795D01*
X270966Y298653D01*
X270948Y298512D01*
X270926Y298371D01*
X270900Y298231D01*
X270871Y298092D01*
X270837Y297953D01*
X270799Y297816D01*
X270758Y297679D01*
X270713Y297544D01*
X270664Y297410D01*
X270611Y297278D01*
X270555Y297147D01*
X270495Y297018D01*
X270431Y296890D01*
X270364Y296765D01*
X270293Y296641D01*
X270219Y296519D01*
X270142Y296400D01*
X270061Y296282D01*
X269977Y296167D01*
X269890Y296055D01*
X269799Y295945D01*
X269706Y295837D01*
X269609Y295732D01*
X269510Y295630D01*
X269408Y295531D01*
X269303Y295434D01*
X269195Y295341D01*
X269085Y295250D01*
X268973Y295163D01*
X268858Y295079D01*
X268740Y294998D01*
X268621Y294921D01*
X268499Y294847D01*
X268375Y294776D01*
X268250Y294709D01*
X268122Y294645D01*
X267993Y294585D01*
X267862Y294529D01*
X267730Y294476D01*
X267596Y294427D01*
X267461Y294382D01*
X267324Y294341D01*
X267187Y294303D01*
X267048Y294269D01*
X266909Y294240D01*
X266769Y294214D01*
X266628Y294192D01*
X266487Y294174D01*
X266345Y294160D01*
X266203Y294150D01*
X266060Y294144D01*
X265918Y294142D01*
X265776Y294144D01*
X265633Y294150D01*
X265491Y294160D01*
X265349Y294174D01*
X265208Y294192D01*
X265067Y294214D01*
X264927Y294240D01*
X264788Y294269D01*
X264649Y294303D01*
X264512Y294341D01*
X264375Y294382D01*
X264240Y294427D01*
X264106Y294476D01*
X263974Y294529D01*
X263843Y294585D01*
X263714Y294645D01*
X263586Y294709D01*
X263461Y294776D01*
X263337Y294847D01*
X263215Y294921D01*
X263096Y294998D01*
X262978Y295079D01*
X262863Y295163D01*
X262751Y295250D01*
X262641Y295341D01*
X262533Y295434D01*
X262428Y295531D01*
X262326Y295630D01*
X262227Y295732D01*
X262130Y295837D01*
X262037Y295945D01*
X261946Y296055D01*
X261859Y296167D01*
X261775Y296282D01*
X261694Y296400D01*
X261617Y296519D01*
X261543Y296641D01*
X261472Y296765D01*
X261405Y296890D01*
X261341Y297018D01*
X261281Y297147D01*
X261225Y297278D01*
X261172Y297410D01*
X261123Y297544D01*
X261078Y297679D01*
X261037Y297816D01*
X260999Y297953D01*
X260965Y298092D01*
X260936Y298231D01*
X260910Y298371D01*
X260888Y298512D01*
X260870Y298653D01*
X260856Y298795D01*
X260846Y298937D01*
X260840Y299080D01*
X260838Y299222D01*
X210800Y299222D02*
X210802Y299364D01*
X210808Y299507D01*
X210818Y299649D01*
X210832Y299791D01*
X210850Y299932D01*
X210872Y300073D01*
X210898Y300213D01*
X210927Y300352D01*
X210961Y300491D01*
X210999Y300628D01*
X211040Y300765D01*
X211085Y300900D01*
X211134Y301034D01*
X211187Y301166D01*
X211243Y301297D01*
X211303Y301426D01*
X211367Y301554D01*
X211434Y301679D01*
X211505Y301803D01*
X211579Y301925D01*
X211656Y302044D01*
X211737Y302162D01*
X211821Y302277D01*
X211908Y302389D01*
X211999Y302499D01*
X212092Y302607D01*
X212189Y302712D01*
X212288Y302814D01*
X212390Y302913D01*
X212495Y303010D01*
X212603Y303103D01*
X212713Y303194D01*
X212825Y303281D01*
X212940Y303365D01*
X213058Y303446D01*
X213177Y303523D01*
X213299Y303597D01*
X213423Y303668D01*
X213548Y303735D01*
X213676Y303799D01*
X213805Y303859D01*
X213936Y303915D01*
X214068Y303968D01*
X214202Y304017D01*
X214337Y304062D01*
X214474Y304103D01*
X214611Y304141D01*
X214750Y304175D01*
X214889Y304204D01*
X215029Y304230D01*
X215170Y304252D01*
X215311Y304270D01*
X215453Y304284D01*
X215595Y304294D01*
X215738Y304300D01*
X215880Y304302D01*
X216022Y304300D01*
X216165Y304294D01*
X216307Y304284D01*
X216449Y304270D01*
X216590Y304252D01*
X216731Y304230D01*
X216871Y304204D01*
X217010Y304175D01*
X217149Y304141D01*
X217286Y304103D01*
X217423Y304062D01*
X217558Y304017D01*
X217692Y303968D01*
X217824Y303915D01*
X217955Y303859D01*
X218084Y303799D01*
X218212Y303735D01*
X218337Y303668D01*
X218461Y303597D01*
X218583Y303523D01*
X218702Y303446D01*
X218820Y303365D01*
X218935Y303281D01*
X219047Y303194D01*
X219157Y303103D01*
X219265Y303010D01*
X219370Y302913D01*
X219472Y302814D01*
X219571Y302712D01*
X219668Y302607D01*
X219761Y302499D01*
X219852Y302389D01*
X219939Y302277D01*
X220023Y302162D01*
X220104Y302044D01*
X220181Y301925D01*
X220255Y301803D01*
X220326Y301679D01*
X220393Y301554D01*
X220457Y301426D01*
X220517Y301297D01*
X220573Y301166D01*
X220626Y301034D01*
X220675Y300900D01*
X220720Y300765D01*
X220761Y300628D01*
X220799Y300491D01*
X220833Y300352D01*
X220862Y300213D01*
X220888Y300073D01*
X220910Y299932D01*
X220928Y299791D01*
X220942Y299649D01*
X220952Y299507D01*
X220958Y299364D01*
X220960Y299222D01*
X220958Y299080D01*
X220952Y298937D01*
X220942Y298795D01*
X220928Y298653D01*
X220910Y298512D01*
X220888Y298371D01*
X220862Y298231D01*
X220833Y298092D01*
X220799Y297953D01*
X220761Y297816D01*
X220720Y297679D01*
X220675Y297544D01*
X220626Y297410D01*
X220573Y297278D01*
X220517Y297147D01*
X220457Y297018D01*
X220393Y296890D01*
X220326Y296765D01*
X220255Y296641D01*
X220181Y296519D01*
X220104Y296400D01*
X220023Y296282D01*
X219939Y296167D01*
X219852Y296055D01*
X219761Y295945D01*
X219668Y295837D01*
X219571Y295732D01*
X219472Y295630D01*
X219370Y295531D01*
X219265Y295434D01*
X219157Y295341D01*
X219047Y295250D01*
X218935Y295163D01*
X218820Y295079D01*
X218702Y294998D01*
X218583Y294921D01*
X218461Y294847D01*
X218337Y294776D01*
X218212Y294709D01*
X218084Y294645D01*
X217955Y294585D01*
X217824Y294529D01*
X217692Y294476D01*
X217558Y294427D01*
X217423Y294382D01*
X217286Y294341D01*
X217149Y294303D01*
X217010Y294269D01*
X216871Y294240D01*
X216731Y294214D01*
X216590Y294192D01*
X216449Y294174D01*
X216307Y294160D01*
X216165Y294150D01*
X216022Y294144D01*
X215880Y294142D01*
X215738Y294144D01*
X215595Y294150D01*
X215453Y294160D01*
X215311Y294174D01*
X215170Y294192D01*
X215029Y294214D01*
X214889Y294240D01*
X214750Y294269D01*
X214611Y294303D01*
X214474Y294341D01*
X214337Y294382D01*
X214202Y294427D01*
X214068Y294476D01*
X213936Y294529D01*
X213805Y294585D01*
X213676Y294645D01*
X213548Y294709D01*
X213423Y294776D01*
X213299Y294847D01*
X213177Y294921D01*
X213058Y294998D01*
X212940Y295079D01*
X212825Y295163D01*
X212713Y295250D01*
X212603Y295341D01*
X212495Y295434D01*
X212390Y295531D01*
X212288Y295630D01*
X212189Y295732D01*
X212092Y295837D01*
X211999Y295945D01*
X211908Y296055D01*
X211821Y296167D01*
X211737Y296282D01*
X211656Y296400D01*
X211579Y296519D01*
X211505Y296641D01*
X211434Y296765D01*
X211367Y296890D01*
X211303Y297018D01*
X211243Y297147D01*
X211187Y297278D01*
X211134Y297410D01*
X211085Y297544D01*
X211040Y297679D01*
X210999Y297816D01*
X210961Y297953D01*
X210927Y298092D01*
X210898Y298231D01*
X210872Y298371D01*
X210850Y298512D01*
X210832Y298653D01*
X210818Y298795D01*
X210808Y298937D01*
X210802Y299080D01*
X210800Y299222D01*
X293392Y906D02*
X393212Y906D01*
X393212Y90826D02*
X393212Y92856D01*
X293392Y92856D01*
X293392Y24786D02*
X293392Y906D01*
X293392Y24786D02*
X309392Y24786D01*
X327172Y24786D02*
X359432Y24786D01*
X377212Y24786D02*
X393212Y24786D01*
X293392Y24786D02*
X293392Y90826D01*
X393212Y24786D02*
X393212Y906D01*
X393212Y90826D02*
X293392Y90826D01*
X293392Y92856D01*
X393212Y90826D02*
X393212Y24786D01*
X313202Y77614D02*
X313204Y77756D01*
X313210Y77899D01*
X313220Y78041D01*
X313234Y78183D01*
X313252Y78324D01*
X313274Y78465D01*
X313300Y78605D01*
X313329Y78744D01*
X313363Y78883D01*
X313401Y79020D01*
X313442Y79157D01*
X313487Y79292D01*
X313536Y79426D01*
X313589Y79558D01*
X313645Y79689D01*
X313705Y79818D01*
X313769Y79946D01*
X313836Y80071D01*
X313907Y80195D01*
X313981Y80317D01*
X314058Y80436D01*
X314139Y80554D01*
X314223Y80669D01*
X314310Y80781D01*
X314401Y80891D01*
X314494Y80999D01*
X314591Y81104D01*
X314690Y81206D01*
X314792Y81305D01*
X314897Y81402D01*
X315005Y81495D01*
X315115Y81586D01*
X315227Y81673D01*
X315342Y81757D01*
X315460Y81838D01*
X315579Y81915D01*
X315701Y81989D01*
X315825Y82060D01*
X315950Y82127D01*
X316078Y82191D01*
X316207Y82251D01*
X316338Y82307D01*
X316470Y82360D01*
X316604Y82409D01*
X316739Y82454D01*
X316876Y82495D01*
X317013Y82533D01*
X317152Y82567D01*
X317291Y82596D01*
X317431Y82622D01*
X317572Y82644D01*
X317713Y82662D01*
X317855Y82676D01*
X317997Y82686D01*
X318140Y82692D01*
X318282Y82694D01*
X318424Y82692D01*
X318567Y82686D01*
X318709Y82676D01*
X318851Y82662D01*
X318992Y82644D01*
X319133Y82622D01*
X319273Y82596D01*
X319412Y82567D01*
X319551Y82533D01*
X319688Y82495D01*
X319825Y82454D01*
X319960Y82409D01*
X320094Y82360D01*
X320226Y82307D01*
X320357Y82251D01*
X320486Y82191D01*
X320614Y82127D01*
X320739Y82060D01*
X320863Y81989D01*
X320985Y81915D01*
X321104Y81838D01*
X321222Y81757D01*
X321337Y81673D01*
X321449Y81586D01*
X321559Y81495D01*
X321667Y81402D01*
X321772Y81305D01*
X321874Y81206D01*
X321973Y81104D01*
X322070Y80999D01*
X322163Y80891D01*
X322254Y80781D01*
X322341Y80669D01*
X322425Y80554D01*
X322506Y80436D01*
X322583Y80317D01*
X322657Y80195D01*
X322728Y80071D01*
X322795Y79946D01*
X322859Y79818D01*
X322919Y79689D01*
X322975Y79558D01*
X323028Y79426D01*
X323077Y79292D01*
X323122Y79157D01*
X323163Y79020D01*
X323201Y78883D01*
X323235Y78744D01*
X323264Y78605D01*
X323290Y78465D01*
X323312Y78324D01*
X323330Y78183D01*
X323344Y78041D01*
X323354Y77899D01*
X323360Y77756D01*
X323362Y77614D01*
X323360Y77472D01*
X323354Y77329D01*
X323344Y77187D01*
X323330Y77045D01*
X323312Y76904D01*
X323290Y76763D01*
X323264Y76623D01*
X323235Y76484D01*
X323201Y76345D01*
X323163Y76208D01*
X323122Y76071D01*
X323077Y75936D01*
X323028Y75802D01*
X322975Y75670D01*
X322919Y75539D01*
X322859Y75410D01*
X322795Y75282D01*
X322728Y75157D01*
X322657Y75033D01*
X322583Y74911D01*
X322506Y74792D01*
X322425Y74674D01*
X322341Y74559D01*
X322254Y74447D01*
X322163Y74337D01*
X322070Y74229D01*
X321973Y74124D01*
X321874Y74022D01*
X321772Y73923D01*
X321667Y73826D01*
X321559Y73733D01*
X321449Y73642D01*
X321337Y73555D01*
X321222Y73471D01*
X321104Y73390D01*
X320985Y73313D01*
X320863Y73239D01*
X320739Y73168D01*
X320614Y73101D01*
X320486Y73037D01*
X320357Y72977D01*
X320226Y72921D01*
X320094Y72868D01*
X319960Y72819D01*
X319825Y72774D01*
X319688Y72733D01*
X319551Y72695D01*
X319412Y72661D01*
X319273Y72632D01*
X319133Y72606D01*
X318992Y72584D01*
X318851Y72566D01*
X318709Y72552D01*
X318567Y72542D01*
X318424Y72536D01*
X318282Y72534D01*
X318140Y72536D01*
X317997Y72542D01*
X317855Y72552D01*
X317713Y72566D01*
X317572Y72584D01*
X317431Y72606D01*
X317291Y72632D01*
X317152Y72661D01*
X317013Y72695D01*
X316876Y72733D01*
X316739Y72774D01*
X316604Y72819D01*
X316470Y72868D01*
X316338Y72921D01*
X316207Y72977D01*
X316078Y73037D01*
X315950Y73101D01*
X315825Y73168D01*
X315701Y73239D01*
X315579Y73313D01*
X315460Y73390D01*
X315342Y73471D01*
X315227Y73555D01*
X315115Y73642D01*
X315005Y73733D01*
X314897Y73826D01*
X314792Y73923D01*
X314690Y74022D01*
X314591Y74124D01*
X314494Y74229D01*
X314401Y74337D01*
X314310Y74447D01*
X314223Y74559D01*
X314139Y74674D01*
X314058Y74792D01*
X313981Y74911D01*
X313907Y75033D01*
X313836Y75157D01*
X313769Y75282D01*
X313705Y75410D01*
X313645Y75539D01*
X313589Y75670D01*
X313536Y75802D01*
X313487Y75936D01*
X313442Y76071D01*
X313401Y76208D01*
X313363Y76345D01*
X313329Y76484D01*
X313300Y76623D01*
X313274Y76763D01*
X313252Y76904D01*
X313234Y77045D01*
X313220Y77187D01*
X313210Y77329D01*
X313204Y77472D01*
X313202Y77614D01*
X363240Y77614D02*
X363242Y77756D01*
X363248Y77899D01*
X363258Y78041D01*
X363272Y78183D01*
X363290Y78324D01*
X363312Y78465D01*
X363338Y78605D01*
X363367Y78744D01*
X363401Y78883D01*
X363439Y79020D01*
X363480Y79157D01*
X363525Y79292D01*
X363574Y79426D01*
X363627Y79558D01*
X363683Y79689D01*
X363743Y79818D01*
X363807Y79946D01*
X363874Y80071D01*
X363945Y80195D01*
X364019Y80317D01*
X364096Y80436D01*
X364177Y80554D01*
X364261Y80669D01*
X364348Y80781D01*
X364439Y80891D01*
X364532Y80999D01*
X364629Y81104D01*
X364728Y81206D01*
X364830Y81305D01*
X364935Y81402D01*
X365043Y81495D01*
X365153Y81586D01*
X365265Y81673D01*
X365380Y81757D01*
X365498Y81838D01*
X365617Y81915D01*
X365739Y81989D01*
X365863Y82060D01*
X365988Y82127D01*
X366116Y82191D01*
X366245Y82251D01*
X366376Y82307D01*
X366508Y82360D01*
X366642Y82409D01*
X366777Y82454D01*
X366914Y82495D01*
X367051Y82533D01*
X367190Y82567D01*
X367329Y82596D01*
X367469Y82622D01*
X367610Y82644D01*
X367751Y82662D01*
X367893Y82676D01*
X368035Y82686D01*
X368178Y82692D01*
X368320Y82694D01*
X368462Y82692D01*
X368605Y82686D01*
X368747Y82676D01*
X368889Y82662D01*
X369030Y82644D01*
X369171Y82622D01*
X369311Y82596D01*
X369450Y82567D01*
X369589Y82533D01*
X369726Y82495D01*
X369863Y82454D01*
X369998Y82409D01*
X370132Y82360D01*
X370264Y82307D01*
X370395Y82251D01*
X370524Y82191D01*
X370652Y82127D01*
X370777Y82060D01*
X370901Y81989D01*
X371023Y81915D01*
X371142Y81838D01*
X371260Y81757D01*
X371375Y81673D01*
X371487Y81586D01*
X371597Y81495D01*
X371705Y81402D01*
X371810Y81305D01*
X371912Y81206D01*
X372011Y81104D01*
X372108Y80999D01*
X372201Y80891D01*
X372292Y80781D01*
X372379Y80669D01*
X372463Y80554D01*
X372544Y80436D01*
X372621Y80317D01*
X372695Y80195D01*
X372766Y80071D01*
X372833Y79946D01*
X372897Y79818D01*
X372957Y79689D01*
X373013Y79558D01*
X373066Y79426D01*
X373115Y79292D01*
X373160Y79157D01*
X373201Y79020D01*
X373239Y78883D01*
X373273Y78744D01*
X373302Y78605D01*
X373328Y78465D01*
X373350Y78324D01*
X373368Y78183D01*
X373382Y78041D01*
X373392Y77899D01*
X373398Y77756D01*
X373400Y77614D01*
X373398Y77472D01*
X373392Y77329D01*
X373382Y77187D01*
X373368Y77045D01*
X373350Y76904D01*
X373328Y76763D01*
X373302Y76623D01*
X373273Y76484D01*
X373239Y76345D01*
X373201Y76208D01*
X373160Y76071D01*
X373115Y75936D01*
X373066Y75802D01*
X373013Y75670D01*
X372957Y75539D01*
X372897Y75410D01*
X372833Y75282D01*
X372766Y75157D01*
X372695Y75033D01*
X372621Y74911D01*
X372544Y74792D01*
X372463Y74674D01*
X372379Y74559D01*
X372292Y74447D01*
X372201Y74337D01*
X372108Y74229D01*
X372011Y74124D01*
X371912Y74022D01*
X371810Y73923D01*
X371705Y73826D01*
X371597Y73733D01*
X371487Y73642D01*
X371375Y73555D01*
X371260Y73471D01*
X371142Y73390D01*
X371023Y73313D01*
X370901Y73239D01*
X370777Y73168D01*
X370652Y73101D01*
X370524Y73037D01*
X370395Y72977D01*
X370264Y72921D01*
X370132Y72868D01*
X369998Y72819D01*
X369863Y72774D01*
X369726Y72733D01*
X369589Y72695D01*
X369450Y72661D01*
X369311Y72632D01*
X369171Y72606D01*
X369030Y72584D01*
X368889Y72566D01*
X368747Y72552D01*
X368605Y72542D01*
X368462Y72536D01*
X368320Y72534D01*
X368178Y72536D01*
X368035Y72542D01*
X367893Y72552D01*
X367751Y72566D01*
X367610Y72584D01*
X367469Y72606D01*
X367329Y72632D01*
X367190Y72661D01*
X367051Y72695D01*
X366914Y72733D01*
X366777Y72774D01*
X366642Y72819D01*
X366508Y72868D01*
X366376Y72921D01*
X366245Y72977D01*
X366116Y73037D01*
X365988Y73101D01*
X365863Y73168D01*
X365739Y73239D01*
X365617Y73313D01*
X365498Y73390D01*
X365380Y73471D01*
X365265Y73555D01*
X365153Y73642D01*
X365043Y73733D01*
X364935Y73826D01*
X364830Y73923D01*
X364728Y74022D01*
X364629Y74124D01*
X364532Y74229D01*
X364439Y74337D01*
X364348Y74447D01*
X364261Y74559D01*
X364177Y74674D01*
X364096Y74792D01*
X364019Y74911D01*
X363945Y75033D01*
X363874Y75157D01*
X363807Y75282D01*
X363743Y75410D01*
X363683Y75539D01*
X363627Y75670D01*
X363574Y75802D01*
X363525Y75936D01*
X363480Y76071D01*
X363439Y76208D01*
X363401Y76345D01*
X363367Y76484D01*
X363338Y76623D01*
X363312Y76763D01*
X363290Y76904D01*
X363272Y77045D01*
X363258Y77187D01*
X363248Y77329D01*
X363242Y77472D01*
X363240Y77614D01*
X291612Y774D02*
X191792Y774D01*
X291612Y90694D02*
X291612Y92724D01*
X191792Y92724D01*
X191792Y24654D02*
X191792Y774D01*
X191792Y24654D02*
X207792Y24654D01*
X225572Y24654D02*
X257832Y24654D01*
X275612Y24654D02*
X291612Y24654D01*
X191792Y24654D02*
X191792Y90694D01*
X291612Y24654D02*
X291612Y774D01*
X291612Y90694D02*
X191792Y90694D01*
X191792Y92724D01*
X291612Y90694D02*
X291612Y24654D01*
X211602Y77482D02*
X211604Y77624D01*
X211610Y77767D01*
X211620Y77909D01*
X211634Y78051D01*
X211652Y78192D01*
X211674Y78333D01*
X211700Y78473D01*
X211729Y78612D01*
X211763Y78751D01*
X211801Y78888D01*
X211842Y79025D01*
X211887Y79160D01*
X211936Y79294D01*
X211989Y79426D01*
X212045Y79557D01*
X212105Y79686D01*
X212169Y79814D01*
X212236Y79939D01*
X212307Y80063D01*
X212381Y80185D01*
X212458Y80304D01*
X212539Y80422D01*
X212623Y80537D01*
X212710Y80649D01*
X212801Y80759D01*
X212894Y80867D01*
X212991Y80972D01*
X213090Y81074D01*
X213192Y81173D01*
X213297Y81270D01*
X213405Y81363D01*
X213515Y81454D01*
X213627Y81541D01*
X213742Y81625D01*
X213860Y81706D01*
X213979Y81783D01*
X214101Y81857D01*
X214225Y81928D01*
X214350Y81995D01*
X214478Y82059D01*
X214607Y82119D01*
X214738Y82175D01*
X214870Y82228D01*
X215004Y82277D01*
X215139Y82322D01*
X215276Y82363D01*
X215413Y82401D01*
X215552Y82435D01*
X215691Y82464D01*
X215831Y82490D01*
X215972Y82512D01*
X216113Y82530D01*
X216255Y82544D01*
X216397Y82554D01*
X216540Y82560D01*
X216682Y82562D01*
X216824Y82560D01*
X216967Y82554D01*
X217109Y82544D01*
X217251Y82530D01*
X217392Y82512D01*
X217533Y82490D01*
X217673Y82464D01*
X217812Y82435D01*
X217951Y82401D01*
X218088Y82363D01*
X218225Y82322D01*
X218360Y82277D01*
X218494Y82228D01*
X218626Y82175D01*
X218757Y82119D01*
X218886Y82059D01*
X219014Y81995D01*
X219139Y81928D01*
X219263Y81857D01*
X219385Y81783D01*
X219504Y81706D01*
X219622Y81625D01*
X219737Y81541D01*
X219849Y81454D01*
X219959Y81363D01*
X220067Y81270D01*
X220172Y81173D01*
X220274Y81074D01*
X220373Y80972D01*
X220470Y80867D01*
X220563Y80759D01*
X220654Y80649D01*
X220741Y80537D01*
X220825Y80422D01*
X220906Y80304D01*
X220983Y80185D01*
X221057Y80063D01*
X221128Y79939D01*
X221195Y79814D01*
X221259Y79686D01*
X221319Y79557D01*
X221375Y79426D01*
X221428Y79294D01*
X221477Y79160D01*
X221522Y79025D01*
X221563Y78888D01*
X221601Y78751D01*
X221635Y78612D01*
X221664Y78473D01*
X221690Y78333D01*
X221712Y78192D01*
X221730Y78051D01*
X221744Y77909D01*
X221754Y77767D01*
X221760Y77624D01*
X221762Y77482D01*
X221760Y77340D01*
X221754Y77197D01*
X221744Y77055D01*
X221730Y76913D01*
X221712Y76772D01*
X221690Y76631D01*
X221664Y76491D01*
X221635Y76352D01*
X221601Y76213D01*
X221563Y76076D01*
X221522Y75939D01*
X221477Y75804D01*
X221428Y75670D01*
X221375Y75538D01*
X221319Y75407D01*
X221259Y75278D01*
X221195Y75150D01*
X221128Y75025D01*
X221057Y74901D01*
X220983Y74779D01*
X220906Y74660D01*
X220825Y74542D01*
X220741Y74427D01*
X220654Y74315D01*
X220563Y74205D01*
X220470Y74097D01*
X220373Y73992D01*
X220274Y73890D01*
X220172Y73791D01*
X220067Y73694D01*
X219959Y73601D01*
X219849Y73510D01*
X219737Y73423D01*
X219622Y73339D01*
X219504Y73258D01*
X219385Y73181D01*
X219263Y73107D01*
X219139Y73036D01*
X219014Y72969D01*
X218886Y72905D01*
X218757Y72845D01*
X218626Y72789D01*
X218494Y72736D01*
X218360Y72687D01*
X218225Y72642D01*
X218088Y72601D01*
X217951Y72563D01*
X217812Y72529D01*
X217673Y72500D01*
X217533Y72474D01*
X217392Y72452D01*
X217251Y72434D01*
X217109Y72420D01*
X216967Y72410D01*
X216824Y72404D01*
X216682Y72402D01*
X216540Y72404D01*
X216397Y72410D01*
X216255Y72420D01*
X216113Y72434D01*
X215972Y72452D01*
X215831Y72474D01*
X215691Y72500D01*
X215552Y72529D01*
X215413Y72563D01*
X215276Y72601D01*
X215139Y72642D01*
X215004Y72687D01*
X214870Y72736D01*
X214738Y72789D01*
X214607Y72845D01*
X214478Y72905D01*
X214350Y72969D01*
X214225Y73036D01*
X214101Y73107D01*
X213979Y73181D01*
X213860Y73258D01*
X213742Y73339D01*
X213627Y73423D01*
X213515Y73510D01*
X213405Y73601D01*
X213297Y73694D01*
X213192Y73791D01*
X213090Y73890D01*
X212991Y73992D01*
X212894Y74097D01*
X212801Y74205D01*
X212710Y74315D01*
X212623Y74427D01*
X212539Y74542D01*
X212458Y74660D01*
X212381Y74779D01*
X212307Y74901D01*
X212236Y75025D01*
X212169Y75150D01*
X212105Y75278D01*
X212045Y75407D01*
X211989Y75538D01*
X211936Y75670D01*
X211887Y75804D01*
X211842Y75939D01*
X211801Y76076D01*
X211763Y76213D01*
X211729Y76352D01*
X211700Y76491D01*
X211674Y76631D01*
X211652Y76772D01*
X211634Y76913D01*
X211620Y77055D01*
X211610Y77197D01*
X211604Y77340D01*
X211602Y77482D01*
X261640Y77482D02*
X261642Y77624D01*
X261648Y77767D01*
X261658Y77909D01*
X261672Y78051D01*
X261690Y78192D01*
X261712Y78333D01*
X261738Y78473D01*
X261767Y78612D01*
X261801Y78751D01*
X261839Y78888D01*
X261880Y79025D01*
X261925Y79160D01*
X261974Y79294D01*
X262027Y79426D01*
X262083Y79557D01*
X262143Y79686D01*
X262207Y79814D01*
X262274Y79939D01*
X262345Y80063D01*
X262419Y80185D01*
X262496Y80304D01*
X262577Y80422D01*
X262661Y80537D01*
X262748Y80649D01*
X262839Y80759D01*
X262932Y80867D01*
X263029Y80972D01*
X263128Y81074D01*
X263230Y81173D01*
X263335Y81270D01*
X263443Y81363D01*
X263553Y81454D01*
X263665Y81541D01*
X263780Y81625D01*
X263898Y81706D01*
X264017Y81783D01*
X264139Y81857D01*
X264263Y81928D01*
X264388Y81995D01*
X264516Y82059D01*
X264645Y82119D01*
X264776Y82175D01*
X264908Y82228D01*
X265042Y82277D01*
X265177Y82322D01*
X265314Y82363D01*
X265451Y82401D01*
X265590Y82435D01*
X265729Y82464D01*
X265869Y82490D01*
X266010Y82512D01*
X266151Y82530D01*
X266293Y82544D01*
X266435Y82554D01*
X266578Y82560D01*
X266720Y82562D01*
X266862Y82560D01*
X267005Y82554D01*
X267147Y82544D01*
X267289Y82530D01*
X267430Y82512D01*
X267571Y82490D01*
X267711Y82464D01*
X267850Y82435D01*
X267989Y82401D01*
X268126Y82363D01*
X268263Y82322D01*
X268398Y82277D01*
X268532Y82228D01*
X268664Y82175D01*
X268795Y82119D01*
X268924Y82059D01*
X269052Y81995D01*
X269177Y81928D01*
X269301Y81857D01*
X269423Y81783D01*
X269542Y81706D01*
X269660Y81625D01*
X269775Y81541D01*
X269887Y81454D01*
X269997Y81363D01*
X270105Y81270D01*
X270210Y81173D01*
X270312Y81074D01*
X270411Y80972D01*
X270508Y80867D01*
X270601Y80759D01*
X270692Y80649D01*
X270779Y80537D01*
X270863Y80422D01*
X270944Y80304D01*
X271021Y80185D01*
X271095Y80063D01*
X271166Y79939D01*
X271233Y79814D01*
X271297Y79686D01*
X271357Y79557D01*
X271413Y79426D01*
X271466Y79294D01*
X271515Y79160D01*
X271560Y79025D01*
X271601Y78888D01*
X271639Y78751D01*
X271673Y78612D01*
X271702Y78473D01*
X271728Y78333D01*
X271750Y78192D01*
X271768Y78051D01*
X271782Y77909D01*
X271792Y77767D01*
X271798Y77624D01*
X271800Y77482D01*
X271798Y77340D01*
X271792Y77197D01*
X271782Y77055D01*
X271768Y76913D01*
X271750Y76772D01*
X271728Y76631D01*
X271702Y76491D01*
X271673Y76352D01*
X271639Y76213D01*
X271601Y76076D01*
X271560Y75939D01*
X271515Y75804D01*
X271466Y75670D01*
X271413Y75538D01*
X271357Y75407D01*
X271297Y75278D01*
X271233Y75150D01*
X271166Y75025D01*
X271095Y74901D01*
X271021Y74779D01*
X270944Y74660D01*
X270863Y74542D01*
X270779Y74427D01*
X270692Y74315D01*
X270601Y74205D01*
X270508Y74097D01*
X270411Y73992D01*
X270312Y73890D01*
X270210Y73791D01*
X270105Y73694D01*
X269997Y73601D01*
X269887Y73510D01*
X269775Y73423D01*
X269660Y73339D01*
X269542Y73258D01*
X269423Y73181D01*
X269301Y73107D01*
X269177Y73036D01*
X269052Y72969D01*
X268924Y72905D01*
X268795Y72845D01*
X268664Y72789D01*
X268532Y72736D01*
X268398Y72687D01*
X268263Y72642D01*
X268126Y72601D01*
X267989Y72563D01*
X267850Y72529D01*
X267711Y72500D01*
X267571Y72474D01*
X267430Y72452D01*
X267289Y72434D01*
X267147Y72420D01*
X267005Y72410D01*
X266862Y72404D01*
X266720Y72402D01*
X266578Y72404D01*
X266435Y72410D01*
X266293Y72420D01*
X266151Y72434D01*
X266010Y72452D01*
X265869Y72474D01*
X265729Y72500D01*
X265590Y72529D01*
X265451Y72563D01*
X265314Y72601D01*
X265177Y72642D01*
X265042Y72687D01*
X264908Y72736D01*
X264776Y72789D01*
X264645Y72845D01*
X264516Y72905D01*
X264388Y72969D01*
X264263Y73036D01*
X264139Y73107D01*
X264017Y73181D01*
X263898Y73258D01*
X263780Y73339D01*
X263665Y73423D01*
X263553Y73510D01*
X263443Y73601D01*
X263335Y73694D01*
X263230Y73791D01*
X263128Y73890D01*
X263029Y73992D01*
X262932Y74097D01*
X262839Y74205D01*
X262748Y74315D01*
X262661Y74427D01*
X262577Y74542D01*
X262496Y74660D01*
X262419Y74779D01*
X262345Y74901D01*
X262274Y75025D01*
X262207Y75150D01*
X262143Y75278D01*
X262083Y75407D01*
X262027Y75538D01*
X261974Y75670D01*
X261925Y75804D01*
X261880Y75939D01*
X261839Y76076D01*
X261801Y76213D01*
X261767Y76352D01*
X261738Y76491D01*
X261712Y76631D01*
X261690Y76772D01*
X261672Y76913D01*
X261658Y77055D01*
X261648Y77197D01*
X261642Y77340D01*
X261640Y77482D01*
X292970Y376312D02*
X392790Y376312D01*
X292970Y286392D02*
X292970Y284362D01*
X392790Y284362D01*
X392790Y352432D02*
X392790Y376312D01*
X392790Y352432D02*
X376790Y352432D01*
X359010Y352432D02*
X326750Y352432D01*
X308970Y352432D02*
X292970Y352432D01*
X392790Y352432D02*
X392790Y286392D01*
X292970Y352432D02*
X292970Y376312D01*
X292970Y286392D02*
X392790Y286392D01*
X392790Y284362D01*
X292970Y286392D02*
X292970Y352432D01*
X362820Y299604D02*
X362822Y299746D01*
X362828Y299889D01*
X362838Y300031D01*
X362852Y300173D01*
X362870Y300314D01*
X362892Y300455D01*
X362918Y300595D01*
X362947Y300734D01*
X362981Y300873D01*
X363019Y301010D01*
X363060Y301147D01*
X363105Y301282D01*
X363154Y301416D01*
X363207Y301548D01*
X363263Y301679D01*
X363323Y301808D01*
X363387Y301936D01*
X363454Y302061D01*
X363525Y302185D01*
X363599Y302307D01*
X363676Y302426D01*
X363757Y302544D01*
X363841Y302659D01*
X363928Y302771D01*
X364019Y302881D01*
X364112Y302989D01*
X364209Y303094D01*
X364308Y303196D01*
X364410Y303295D01*
X364515Y303392D01*
X364623Y303485D01*
X364733Y303576D01*
X364845Y303663D01*
X364960Y303747D01*
X365078Y303828D01*
X365197Y303905D01*
X365319Y303979D01*
X365443Y304050D01*
X365568Y304117D01*
X365696Y304181D01*
X365825Y304241D01*
X365956Y304297D01*
X366088Y304350D01*
X366222Y304399D01*
X366357Y304444D01*
X366494Y304485D01*
X366631Y304523D01*
X366770Y304557D01*
X366909Y304586D01*
X367049Y304612D01*
X367190Y304634D01*
X367331Y304652D01*
X367473Y304666D01*
X367615Y304676D01*
X367758Y304682D01*
X367900Y304684D01*
X368042Y304682D01*
X368185Y304676D01*
X368327Y304666D01*
X368469Y304652D01*
X368610Y304634D01*
X368751Y304612D01*
X368891Y304586D01*
X369030Y304557D01*
X369169Y304523D01*
X369306Y304485D01*
X369443Y304444D01*
X369578Y304399D01*
X369712Y304350D01*
X369844Y304297D01*
X369975Y304241D01*
X370104Y304181D01*
X370232Y304117D01*
X370357Y304050D01*
X370481Y303979D01*
X370603Y303905D01*
X370722Y303828D01*
X370840Y303747D01*
X370955Y303663D01*
X371067Y303576D01*
X371177Y303485D01*
X371285Y303392D01*
X371390Y303295D01*
X371492Y303196D01*
X371591Y303094D01*
X371688Y302989D01*
X371781Y302881D01*
X371872Y302771D01*
X371959Y302659D01*
X372043Y302544D01*
X372124Y302426D01*
X372201Y302307D01*
X372275Y302185D01*
X372346Y302061D01*
X372413Y301936D01*
X372477Y301808D01*
X372537Y301679D01*
X372593Y301548D01*
X372646Y301416D01*
X372695Y301282D01*
X372740Y301147D01*
X372781Y301010D01*
X372819Y300873D01*
X372853Y300734D01*
X372882Y300595D01*
X372908Y300455D01*
X372930Y300314D01*
X372948Y300173D01*
X372962Y300031D01*
X372972Y299889D01*
X372978Y299746D01*
X372980Y299604D01*
X372978Y299462D01*
X372972Y299319D01*
X372962Y299177D01*
X372948Y299035D01*
X372930Y298894D01*
X372908Y298753D01*
X372882Y298613D01*
X372853Y298474D01*
X372819Y298335D01*
X372781Y298198D01*
X372740Y298061D01*
X372695Y297926D01*
X372646Y297792D01*
X372593Y297660D01*
X372537Y297529D01*
X372477Y297400D01*
X372413Y297272D01*
X372346Y297147D01*
X372275Y297023D01*
X372201Y296901D01*
X372124Y296782D01*
X372043Y296664D01*
X371959Y296549D01*
X371872Y296437D01*
X371781Y296327D01*
X371688Y296219D01*
X371591Y296114D01*
X371492Y296012D01*
X371390Y295913D01*
X371285Y295816D01*
X371177Y295723D01*
X371067Y295632D01*
X370955Y295545D01*
X370840Y295461D01*
X370722Y295380D01*
X370603Y295303D01*
X370481Y295229D01*
X370357Y295158D01*
X370232Y295091D01*
X370104Y295027D01*
X369975Y294967D01*
X369844Y294911D01*
X369712Y294858D01*
X369578Y294809D01*
X369443Y294764D01*
X369306Y294723D01*
X369169Y294685D01*
X369030Y294651D01*
X368891Y294622D01*
X368751Y294596D01*
X368610Y294574D01*
X368469Y294556D01*
X368327Y294542D01*
X368185Y294532D01*
X368042Y294526D01*
X367900Y294524D01*
X367758Y294526D01*
X367615Y294532D01*
X367473Y294542D01*
X367331Y294556D01*
X367190Y294574D01*
X367049Y294596D01*
X366909Y294622D01*
X366770Y294651D01*
X366631Y294685D01*
X366494Y294723D01*
X366357Y294764D01*
X366222Y294809D01*
X366088Y294858D01*
X365956Y294911D01*
X365825Y294967D01*
X365696Y295027D01*
X365568Y295091D01*
X365443Y295158D01*
X365319Y295229D01*
X365197Y295303D01*
X365078Y295380D01*
X364960Y295461D01*
X364845Y295545D01*
X364733Y295632D01*
X364623Y295723D01*
X364515Y295816D01*
X364410Y295913D01*
X364308Y296012D01*
X364209Y296114D01*
X364112Y296219D01*
X364019Y296327D01*
X363928Y296437D01*
X363841Y296549D01*
X363757Y296664D01*
X363676Y296782D01*
X363599Y296901D01*
X363525Y297023D01*
X363454Y297147D01*
X363387Y297272D01*
X363323Y297400D01*
X363263Y297529D01*
X363207Y297660D01*
X363154Y297792D01*
X363105Y297926D01*
X363060Y298061D01*
X363019Y298198D01*
X362981Y298335D01*
X362947Y298474D01*
X362918Y298613D01*
X362892Y298753D01*
X362870Y298894D01*
X362852Y299035D01*
X362838Y299177D01*
X362828Y299319D01*
X362822Y299462D01*
X362820Y299604D01*
X312782Y299604D02*
X312784Y299746D01*
X312790Y299889D01*
X312800Y300031D01*
X312814Y300173D01*
X312832Y300314D01*
X312854Y300455D01*
X312880Y300595D01*
X312909Y300734D01*
X312943Y300873D01*
X312981Y301010D01*
X313022Y301147D01*
X313067Y301282D01*
X313116Y301416D01*
X313169Y301548D01*
X313225Y301679D01*
X313285Y301808D01*
X313349Y301936D01*
X313416Y302061D01*
X313487Y302185D01*
X313561Y302307D01*
X313638Y302426D01*
X313719Y302544D01*
X313803Y302659D01*
X313890Y302771D01*
X313981Y302881D01*
X314074Y302989D01*
X314171Y303094D01*
X314270Y303196D01*
X314372Y303295D01*
X314477Y303392D01*
X314585Y303485D01*
X314695Y303576D01*
X314807Y303663D01*
X314922Y303747D01*
X315040Y303828D01*
X315159Y303905D01*
X315281Y303979D01*
X315405Y304050D01*
X315530Y304117D01*
X315658Y304181D01*
X315787Y304241D01*
X315918Y304297D01*
X316050Y304350D01*
X316184Y304399D01*
X316319Y304444D01*
X316456Y304485D01*
X316593Y304523D01*
X316732Y304557D01*
X316871Y304586D01*
X317011Y304612D01*
X317152Y304634D01*
X317293Y304652D01*
X317435Y304666D01*
X317577Y304676D01*
X317720Y304682D01*
X317862Y304684D01*
X318004Y304682D01*
X318147Y304676D01*
X318289Y304666D01*
X318431Y304652D01*
X318572Y304634D01*
X318713Y304612D01*
X318853Y304586D01*
X318992Y304557D01*
X319131Y304523D01*
X319268Y304485D01*
X319405Y304444D01*
X319540Y304399D01*
X319674Y304350D01*
X319806Y304297D01*
X319937Y304241D01*
X320066Y304181D01*
X320194Y304117D01*
X320319Y304050D01*
X320443Y303979D01*
X320565Y303905D01*
X320684Y303828D01*
X320802Y303747D01*
X320917Y303663D01*
X321029Y303576D01*
X321139Y303485D01*
X321247Y303392D01*
X321352Y303295D01*
X321454Y303196D01*
X321553Y303094D01*
X321650Y302989D01*
X321743Y302881D01*
X321834Y302771D01*
X321921Y302659D01*
X322005Y302544D01*
X322086Y302426D01*
X322163Y302307D01*
X322237Y302185D01*
X322308Y302061D01*
X322375Y301936D01*
X322439Y301808D01*
X322499Y301679D01*
X322555Y301548D01*
X322608Y301416D01*
X322657Y301282D01*
X322702Y301147D01*
X322743Y301010D01*
X322781Y300873D01*
X322815Y300734D01*
X322844Y300595D01*
X322870Y300455D01*
X322892Y300314D01*
X322910Y300173D01*
X322924Y300031D01*
X322934Y299889D01*
X322940Y299746D01*
X322942Y299604D01*
X322940Y299462D01*
X322934Y299319D01*
X322924Y299177D01*
X322910Y299035D01*
X322892Y298894D01*
X322870Y298753D01*
X322844Y298613D01*
X322815Y298474D01*
X322781Y298335D01*
X322743Y298198D01*
X322702Y298061D01*
X322657Y297926D01*
X322608Y297792D01*
X322555Y297660D01*
X322499Y297529D01*
X322439Y297400D01*
X322375Y297272D01*
X322308Y297147D01*
X322237Y297023D01*
X322163Y296901D01*
X322086Y296782D01*
X322005Y296664D01*
X321921Y296549D01*
X321834Y296437D01*
X321743Y296327D01*
X321650Y296219D01*
X321553Y296114D01*
X321454Y296012D01*
X321352Y295913D01*
X321247Y295816D01*
X321139Y295723D01*
X321029Y295632D01*
X320917Y295545D01*
X320802Y295461D01*
X320684Y295380D01*
X320565Y295303D01*
X320443Y295229D01*
X320319Y295158D01*
X320194Y295091D01*
X320066Y295027D01*
X319937Y294967D01*
X319806Y294911D01*
X319674Y294858D01*
X319540Y294809D01*
X319405Y294764D01*
X319268Y294723D01*
X319131Y294685D01*
X318992Y294651D01*
X318853Y294622D01*
X318713Y294596D01*
X318572Y294574D01*
X318431Y294556D01*
X318289Y294542D01*
X318147Y294532D01*
X318004Y294526D01*
X317862Y294524D01*
X317720Y294526D01*
X317577Y294532D01*
X317435Y294542D01*
X317293Y294556D01*
X317152Y294574D01*
X317011Y294596D01*
X316871Y294622D01*
X316732Y294651D01*
X316593Y294685D01*
X316456Y294723D01*
X316319Y294764D01*
X316184Y294809D01*
X316050Y294858D01*
X315918Y294911D01*
X315787Y294967D01*
X315658Y295027D01*
X315530Y295091D01*
X315405Y295158D01*
X315281Y295229D01*
X315159Y295303D01*
X315040Y295380D01*
X314922Y295461D01*
X314807Y295545D01*
X314695Y295632D01*
X314585Y295723D01*
X314477Y295816D01*
X314372Y295913D01*
X314270Y296012D01*
X314171Y296114D01*
X314074Y296219D01*
X313981Y296327D01*
X313890Y296437D01*
X313803Y296549D01*
X313719Y296664D01*
X313638Y296782D01*
X313561Y296901D01*
X313487Y297023D01*
X313416Y297147D01*
X313349Y297272D01*
X313285Y297400D01*
X313225Y297529D01*
X313169Y297660D01*
X313116Y297792D01*
X313067Y297926D01*
X313022Y298061D01*
X312981Y298198D01*
X312943Y298335D01*
X312909Y298474D01*
X312880Y298613D01*
X312854Y298753D01*
X312832Y298894D01*
X312814Y299035D01*
X312800Y299177D01*
X312790Y299319D01*
X312784Y299462D01*
X312782Y299604D01*
X232947Y185203D02*
X232964Y186606D01*
X233016Y188007D01*
X233102Y189407D01*
X233222Y190805D01*
X233377Y192199D01*
X233566Y193589D01*
X233788Y194973D01*
X234045Y196352D01*
X234336Y197725D01*
X234660Y199089D01*
X235017Y200446D01*
X235408Y201793D01*
X235831Y203130D01*
X236288Y204456D01*
X236776Y205771D01*
X237297Y207073D01*
X237850Y208363D01*
X238434Y209638D01*
X239049Y210898D01*
X239695Y212143D01*
X240372Y213372D01*
X241078Y214584D01*
X241814Y215778D01*
X242579Y216954D01*
X243372Y218110D01*
X244194Y219247D01*
X245043Y220363D01*
X245919Y221459D01*
X246823Y222532D01*
X247752Y223583D01*
X248706Y224610D01*
X249686Y225614D01*
X250690Y226594D01*
X251717Y227548D01*
X252768Y228477D01*
X253841Y229381D01*
X254937Y230257D01*
X256053Y231106D01*
X257190Y231928D01*
X258346Y232721D01*
X259522Y233486D01*
X260716Y234222D01*
X261928Y234928D01*
X263157Y235605D01*
X264402Y236251D01*
X265662Y236866D01*
X266937Y237450D01*
X268227Y238003D01*
X269529Y238524D01*
X270844Y239012D01*
X272170Y239469D01*
X273507Y239892D01*
X274854Y240283D01*
X276211Y240640D01*
X277575Y240964D01*
X278948Y241255D01*
X280327Y241512D01*
X281711Y241734D01*
X283101Y241923D01*
X284495Y242078D01*
X285893Y242198D01*
X287293Y242284D01*
X288694Y242336D01*
X290097Y242353D01*
X291500Y242336D01*
X292901Y242284D01*
X294301Y242198D01*
X295699Y242078D01*
X297093Y241923D01*
X298483Y241734D01*
X299867Y241512D01*
X301246Y241255D01*
X302619Y240964D01*
X303983Y240640D01*
X305340Y240283D01*
X306687Y239892D01*
X308024Y239469D01*
X309350Y239012D01*
X310665Y238524D01*
X311967Y238003D01*
X313257Y237450D01*
X314532Y236866D01*
X315792Y236251D01*
X317037Y235605D01*
X318266Y234928D01*
X319478Y234222D01*
X320672Y233486D01*
X321848Y232721D01*
X323004Y231928D01*
X324141Y231106D01*
X325257Y230257D01*
X326353Y229381D01*
X327426Y228477D01*
X328477Y227548D01*
X329504Y226594D01*
X330508Y225614D01*
X331488Y224610D01*
X332442Y223583D01*
X333371Y222532D01*
X334275Y221459D01*
X335151Y220363D01*
X336000Y219247D01*
X336822Y218110D01*
X337615Y216954D01*
X338380Y215778D01*
X339116Y214584D01*
X339822Y213372D01*
X340499Y212143D01*
X341145Y210898D01*
X341760Y209638D01*
X342344Y208363D01*
X342897Y207073D01*
X343418Y205771D01*
X343906Y204456D01*
X344363Y203130D01*
X344786Y201793D01*
X345177Y200446D01*
X345534Y199089D01*
X345858Y197725D01*
X346149Y196352D01*
X346406Y194973D01*
X346628Y193589D01*
X346817Y192199D01*
X346972Y190805D01*
X347092Y189407D01*
X347178Y188007D01*
X347230Y186606D01*
X347247Y185203D01*
X347230Y183800D01*
X347178Y182399D01*
X347092Y180999D01*
X346972Y179601D01*
X346817Y178207D01*
X346628Y176817D01*
X346406Y175433D01*
X346149Y174054D01*
X345858Y172681D01*
X345534Y171317D01*
X345177Y169960D01*
X344786Y168613D01*
X344363Y167276D01*
X343906Y165950D01*
X343418Y164635D01*
X342897Y163333D01*
X342344Y162043D01*
X341760Y160768D01*
X341145Y159508D01*
X340499Y158263D01*
X339822Y157034D01*
X339116Y155822D01*
X338380Y154628D01*
X337615Y153452D01*
X336822Y152296D01*
X336000Y151159D01*
X335151Y150043D01*
X334275Y148947D01*
X333371Y147874D01*
X332442Y146823D01*
X331488Y145796D01*
X330508Y144792D01*
X329504Y143812D01*
X328477Y142858D01*
X327426Y141929D01*
X326353Y141025D01*
X325257Y140149D01*
X324141Y139300D01*
X323004Y138478D01*
X321848Y137685D01*
X320672Y136920D01*
X319478Y136184D01*
X318266Y135478D01*
X317037Y134801D01*
X315792Y134155D01*
X314532Y133540D01*
X313257Y132956D01*
X311967Y132403D01*
X310665Y131882D01*
X309350Y131394D01*
X308024Y130937D01*
X306687Y130514D01*
X305340Y130123D01*
X303983Y129766D01*
X302619Y129442D01*
X301246Y129151D01*
X299867Y128894D01*
X298483Y128672D01*
X297093Y128483D01*
X295699Y128328D01*
X294301Y128208D01*
X292901Y128122D01*
X291500Y128070D01*
X290097Y128053D01*
X288694Y128070D01*
X287293Y128122D01*
X285893Y128208D01*
X284495Y128328D01*
X283101Y128483D01*
X281711Y128672D01*
X280327Y128894D01*
X278948Y129151D01*
X277575Y129442D01*
X276211Y129766D01*
X274854Y130123D01*
X273507Y130514D01*
X272170Y130937D01*
X270844Y131394D01*
X269529Y131882D01*
X268227Y132403D01*
X266937Y132956D01*
X265662Y133540D01*
X264402Y134155D01*
X263157Y134801D01*
X261928Y135478D01*
X260716Y136184D01*
X259522Y136920D01*
X258346Y137685D01*
X257190Y138478D01*
X256053Y139300D01*
X254937Y140149D01*
X253841Y141025D01*
X252768Y141929D01*
X251717Y142858D01*
X250690Y143812D01*
X249686Y144792D01*
X248706Y145796D01*
X247752Y146823D01*
X246823Y147874D01*
X245919Y148947D01*
X245043Y150043D01*
X244194Y151159D01*
X243372Y152296D01*
X242579Y153452D01*
X241814Y154628D01*
X241078Y155822D01*
X240372Y157034D01*
X239695Y158263D01*
X239049Y159508D01*
X238434Y160768D01*
X237850Y162043D01*
X237297Y163333D01*
X236776Y164635D01*
X236288Y165950D01*
X235831Y167276D01*
X235408Y168613D01*
X235017Y169960D01*
X234660Y171317D01*
X234336Y172681D01*
X234045Y174054D01*
X233788Y175433D01*
X233566Y176817D01*
X233377Y178207D01*
X233222Y179601D01*
X233102Y180999D01*
X233016Y182399D01*
X232964Y183800D01*
X232947Y185203D01*
X227867Y185203D02*
X227886Y186730D01*
X227942Y188256D01*
X228036Y189781D01*
X228167Y191303D01*
X228335Y192821D01*
X228541Y194334D01*
X228783Y195842D01*
X229063Y197343D01*
X229379Y198838D01*
X229732Y200324D01*
X230121Y201801D01*
X230547Y203267D01*
X231008Y204723D01*
X231505Y206168D01*
X232037Y207599D01*
X232604Y209017D01*
X233206Y210421D01*
X233842Y211810D01*
X234512Y213182D01*
X235215Y214538D01*
X235951Y215876D01*
X236721Y217196D01*
X237522Y218496D01*
X238355Y219776D01*
X239219Y221036D01*
X240113Y222273D01*
X241038Y223489D01*
X241993Y224681D01*
X242976Y225850D01*
X243988Y226994D01*
X245027Y228113D01*
X246094Y229206D01*
X247187Y230273D01*
X248306Y231312D01*
X249450Y232324D01*
X250619Y233307D01*
X251811Y234262D01*
X253027Y235187D01*
X254264Y236081D01*
X255524Y236945D01*
X256804Y237778D01*
X258104Y238579D01*
X259424Y239349D01*
X260762Y240085D01*
X262118Y240788D01*
X263490Y241458D01*
X264879Y242094D01*
X266283Y242696D01*
X267701Y243263D01*
X269132Y243795D01*
X270577Y244292D01*
X272033Y244753D01*
X273499Y245179D01*
X274976Y245568D01*
X276462Y245921D01*
X277957Y246237D01*
X279458Y246517D01*
X280966Y246759D01*
X282479Y246965D01*
X283997Y247133D01*
X285519Y247264D01*
X287044Y247358D01*
X288570Y247414D01*
X290097Y247433D01*
X291624Y247414D01*
X293150Y247358D01*
X294675Y247264D01*
X296197Y247133D01*
X297715Y246965D01*
X299228Y246759D01*
X300736Y246517D01*
X302237Y246237D01*
X303732Y245921D01*
X305218Y245568D01*
X306695Y245179D01*
X308161Y244753D01*
X309617Y244292D01*
X311062Y243795D01*
X312493Y243263D01*
X313911Y242696D01*
X315315Y242094D01*
X316704Y241458D01*
X318076Y240788D01*
X319432Y240085D01*
X320770Y239349D01*
X322090Y238579D01*
X323390Y237778D01*
X324670Y236945D01*
X325930Y236081D01*
X327167Y235187D01*
X328383Y234262D01*
X329575Y233307D01*
X330744Y232324D01*
X331888Y231312D01*
X333007Y230273D01*
X334100Y229206D01*
X335167Y228113D01*
X336206Y226994D01*
X337218Y225850D01*
X338201Y224681D01*
X339156Y223489D01*
X340081Y222273D01*
X340975Y221036D01*
X341839Y219776D01*
X342672Y218496D01*
X343473Y217196D01*
X344243Y215876D01*
X344979Y214538D01*
X345682Y213182D01*
X346352Y211810D01*
X346988Y210421D01*
X347590Y209017D01*
X348157Y207599D01*
X348689Y206168D01*
X349186Y204723D01*
X349647Y203267D01*
X350073Y201801D01*
X350462Y200324D01*
X350815Y198838D01*
X351131Y197343D01*
X351411Y195842D01*
X351653Y194334D01*
X351859Y192821D01*
X352027Y191303D01*
X352158Y189781D01*
X352252Y188256D01*
X352308Y186730D01*
X352327Y185203D01*
X352308Y183676D01*
X352252Y182150D01*
X352158Y180625D01*
X352027Y179103D01*
X351859Y177585D01*
X351653Y176072D01*
X351411Y174564D01*
X351131Y173063D01*
X350815Y171568D01*
X350462Y170082D01*
X350073Y168605D01*
X349647Y167139D01*
X349186Y165683D01*
X348689Y164238D01*
X348157Y162807D01*
X347590Y161389D01*
X346988Y159985D01*
X346352Y158596D01*
X345682Y157224D01*
X344979Y155868D01*
X344243Y154530D01*
X343473Y153210D01*
X342672Y151910D01*
X341839Y150630D01*
X340975Y149370D01*
X340081Y148133D01*
X339156Y146917D01*
X338201Y145725D01*
X337218Y144556D01*
X336206Y143412D01*
X335167Y142293D01*
X334100Y141200D01*
X333007Y140133D01*
X331888Y139094D01*
X330744Y138082D01*
X329575Y137099D01*
X328383Y136144D01*
X327167Y135219D01*
X325930Y134325D01*
X324670Y133461D01*
X323390Y132628D01*
X322090Y131827D01*
X320770Y131057D01*
X319432Y130321D01*
X318076Y129618D01*
X316704Y128948D01*
X315315Y128312D01*
X313911Y127710D01*
X312493Y127143D01*
X311062Y126611D01*
X309617Y126114D01*
X308161Y125653D01*
X306695Y125227D01*
X305218Y124838D01*
X303732Y124485D01*
X302237Y124169D01*
X300736Y123889D01*
X299228Y123647D01*
X297715Y123441D01*
X296197Y123273D01*
X294675Y123142D01*
X293150Y123048D01*
X291624Y122992D01*
X290097Y122973D01*
X288570Y122992D01*
X287044Y123048D01*
X285519Y123142D01*
X283997Y123273D01*
X282479Y123441D01*
X280966Y123647D01*
X279458Y123889D01*
X277957Y124169D01*
X276462Y124485D01*
X274976Y124838D01*
X273499Y125227D01*
X272033Y125653D01*
X270577Y126114D01*
X269132Y126611D01*
X267701Y127143D01*
X266283Y127710D01*
X264879Y128312D01*
X263490Y128948D01*
X262118Y129618D01*
X260762Y130321D01*
X259424Y131057D01*
X258104Y131827D01*
X256804Y132628D01*
X255524Y133461D01*
X254264Y134325D01*
X253027Y135219D01*
X251811Y136144D01*
X250619Y137099D01*
X249450Y138082D01*
X248306Y139094D01*
X247187Y140133D01*
X246094Y141200D01*
X245027Y142293D01*
X243988Y143412D01*
X242976Y144556D01*
X241993Y145725D01*
X241038Y146917D01*
X240113Y148133D01*
X239219Y149370D01*
X238355Y150630D01*
X237522Y151910D01*
X236721Y153210D01*
X235951Y154530D01*
X235215Y155868D01*
X234512Y157224D01*
X233842Y158596D01*
X233206Y159985D01*
X232604Y161389D01*
X232037Y162807D01*
X231505Y164238D01*
X231008Y165683D01*
X230547Y167139D01*
X230121Y168605D01*
X229732Y170082D01*
X229379Y171568D01*
X229063Y173063D01*
X228783Y174564D01*
X228541Y176072D01*
X228335Y177585D01*
X228167Y179103D01*
X228036Y180625D01*
X227942Y182150D01*
X227886Y183676D01*
X227867Y185203D01*
X279937Y185203D02*
X279940Y185452D01*
X279949Y185702D01*
X279965Y185950D01*
X279986Y186199D01*
X280013Y186447D01*
X280047Y186694D01*
X280087Y186940D01*
X280132Y187185D01*
X280184Y187429D01*
X280241Y187672D01*
X280305Y187913D01*
X280374Y188152D01*
X280450Y188390D01*
X280531Y188626D01*
X280618Y188860D01*
X280710Y189091D01*
X280809Y189320D01*
X280912Y189547D01*
X281022Y189771D01*
X281137Y189992D01*
X281257Y190211D01*
X281382Y190426D01*
X281513Y190639D01*
X281649Y190848D01*
X281790Y191053D01*
X281936Y191255D01*
X282087Y191454D01*
X282243Y191648D01*
X282404Y191839D01*
X282569Y192026D01*
X282739Y192209D01*
X282913Y192387D01*
X283091Y192561D01*
X283274Y192731D01*
X283461Y192896D01*
X283652Y193057D01*
X283846Y193213D01*
X284045Y193364D01*
X284247Y193510D01*
X284452Y193651D01*
X284661Y193787D01*
X284874Y193918D01*
X285089Y194043D01*
X285308Y194163D01*
X285529Y194278D01*
X285753Y194388D01*
X285980Y194491D01*
X286209Y194590D01*
X286440Y194682D01*
X286674Y194769D01*
X286910Y194850D01*
X287148Y194926D01*
X287387Y194995D01*
X287628Y195059D01*
X287871Y195116D01*
X288115Y195168D01*
X288360Y195213D01*
X288606Y195253D01*
X288853Y195287D01*
X289101Y195314D01*
X289350Y195335D01*
X289598Y195351D01*
X289848Y195360D01*
X290097Y195363D01*
X290346Y195360D01*
X290596Y195351D01*
X290844Y195335D01*
X291093Y195314D01*
X291341Y195287D01*
X291588Y195253D01*
X291834Y195213D01*
X292079Y195168D01*
X292323Y195116D01*
X292566Y195059D01*
X292807Y194995D01*
X293046Y194926D01*
X293284Y194850D01*
X293520Y194769D01*
X293754Y194682D01*
X293985Y194590D01*
X294214Y194491D01*
X294441Y194388D01*
X294665Y194278D01*
X294886Y194163D01*
X295105Y194043D01*
X295320Y193918D01*
X295533Y193787D01*
X295742Y193651D01*
X295947Y193510D01*
X296149Y193364D01*
X296348Y193213D01*
X296542Y193057D01*
X296733Y192896D01*
X296920Y192731D01*
X297103Y192561D01*
X297281Y192387D01*
X297455Y192209D01*
X297625Y192026D01*
X297790Y191839D01*
X297951Y191648D01*
X298107Y191454D01*
X298258Y191255D01*
X298404Y191053D01*
X298545Y190848D01*
X298681Y190639D01*
X298812Y190426D01*
X298937Y190211D01*
X299057Y189992D01*
X299172Y189771D01*
X299282Y189547D01*
X299385Y189320D01*
X299484Y189091D01*
X299576Y188860D01*
X299663Y188626D01*
X299744Y188390D01*
X299820Y188152D01*
X299889Y187913D01*
X299953Y187672D01*
X300010Y187429D01*
X300062Y187185D01*
X300107Y186940D01*
X300147Y186694D01*
X300181Y186447D01*
X300208Y186199D01*
X300229Y185950D01*
X300245Y185702D01*
X300254Y185452D01*
X300257Y185203D01*
X300254Y184954D01*
X300245Y184704D01*
X300229Y184456D01*
X300208Y184207D01*
X300181Y183959D01*
X300147Y183712D01*
X300107Y183466D01*
X300062Y183221D01*
X300010Y182977D01*
X299953Y182734D01*
X299889Y182493D01*
X299820Y182254D01*
X299744Y182016D01*
X299663Y181780D01*
X299576Y181546D01*
X299484Y181315D01*
X299385Y181086D01*
X299282Y180859D01*
X299172Y180635D01*
X299057Y180414D01*
X298937Y180195D01*
X298812Y179980D01*
X298681Y179767D01*
X298545Y179558D01*
X298404Y179353D01*
X298258Y179151D01*
X298107Y178952D01*
X297951Y178758D01*
X297790Y178567D01*
X297625Y178380D01*
X297455Y178197D01*
X297281Y178019D01*
X297103Y177845D01*
X296920Y177675D01*
X296733Y177510D01*
X296542Y177349D01*
X296348Y177193D01*
X296149Y177042D01*
X295947Y176896D01*
X295742Y176755D01*
X295533Y176619D01*
X295320Y176488D01*
X295105Y176363D01*
X294886Y176243D01*
X294665Y176128D01*
X294441Y176018D01*
X294214Y175915D01*
X293985Y175816D01*
X293754Y175724D01*
X293520Y175637D01*
X293284Y175556D01*
X293046Y175480D01*
X292807Y175411D01*
X292566Y175347D01*
X292323Y175290D01*
X292079Y175238D01*
X291834Y175193D01*
X291588Y175153D01*
X291341Y175119D01*
X291093Y175092D01*
X290844Y175071D01*
X290596Y175055D01*
X290346Y175046D01*
X290097Y175043D01*
X289848Y175046D01*
X289598Y175055D01*
X289350Y175071D01*
X289101Y175092D01*
X288853Y175119D01*
X288606Y175153D01*
X288360Y175193D01*
X288115Y175238D01*
X287871Y175290D01*
X287628Y175347D01*
X287387Y175411D01*
X287148Y175480D01*
X286910Y175556D01*
X286674Y175637D01*
X286440Y175724D01*
X286209Y175816D01*
X285980Y175915D01*
X285753Y176018D01*
X285529Y176128D01*
X285308Y176243D01*
X285089Y176363D01*
X284874Y176488D01*
X284661Y176619D01*
X284452Y176755D01*
X284247Y176896D01*
X284045Y177042D01*
X283846Y177193D01*
X283652Y177349D01*
X283461Y177510D01*
X283274Y177675D01*
X283091Y177845D01*
X282913Y178019D01*
X282739Y178197D01*
X282569Y178380D01*
X282404Y178567D01*
X282243Y178758D01*
X282087Y178952D01*
X281936Y179151D01*
X281790Y179353D01*
X281649Y179558D01*
X281513Y179767D01*
X281382Y179980D01*
X281257Y180195D01*
X281137Y180414D01*
X281022Y180635D01*
X280912Y180859D01*
X280809Y181086D01*
X280710Y181315D01*
X280618Y181546D01*
X280531Y181780D01*
X280450Y182016D01*
X280374Y182254D01*
X280305Y182493D01*
X280241Y182734D01*
X280184Y182977D01*
X280132Y183221D01*
X280087Y183466D01*
X280047Y183712D01*
X280013Y183959D01*
X279986Y184207D01*
X279965Y184456D01*
X279949Y184704D01*
X279940Y184954D01*
X279937Y185203D01*
M02*
