G04 EAGLE Gerber RS-274X export*
G75*
%MOMM*%
%FSLAX34Y34*%
%LPD*%
%INSoldermask Bottom*%
%IPPOS*%
%AMOC8*
5,1,8,0,0,1.08239X$1,22.5*%
G01*
G04 Define Apertures*
%ADD10C,3.203194*%
%ADD11C,5.203191*%
%ADD12C,1.727200*%
%ADD13P,1.64956X8X292.5*%
%ADD14P,1.64956X8X22.5*%
%ADD15C,1.701200*%
%ADD16R,1.701200X1.701200*%
%ADD17C,1.981200*%
%ADD18C,1.993900*%
%ADD19P,2.28189X8X112.5*%
D10*
X28531Y27272D03*
X25361Y352540D03*
X481853Y25687D03*
X482640Y352540D03*
D11*
X75364Y65009D03*
X444286Y310238D03*
D12*
X414771Y239401D02*
X414771Y224161D01*
X440171Y224161D02*
X440171Y239401D01*
X465571Y239401D02*
X465571Y224161D01*
D13*
X478336Y177800D03*
X478336Y76200D03*
X127000Y127764D03*
X127000Y26164D03*
D14*
X101600Y212625D03*
X203200Y212625D03*
X101677Y159793D03*
X203277Y159793D03*
D13*
X127000Y355600D03*
X127000Y254000D03*
D15*
X17650Y276200D03*
X62650Y276200D03*
X17650Y211200D03*
D16*
X62650Y211200D03*
D15*
X17650Y188006D03*
X62650Y188006D03*
X17650Y123006D03*
D16*
X62650Y123006D03*
D17*
X423128Y145983D03*
X397728Y145983D03*
D18*
X265918Y325067D02*
X265918Y342974D01*
X215918Y342974D02*
X215918Y325067D01*
X318282Y51769D02*
X318282Y33862D01*
X368282Y33862D02*
X368282Y51769D01*
X216682Y51637D02*
X216682Y33730D01*
X266682Y33730D02*
X266682Y51637D01*
X367900Y325449D02*
X367900Y343356D01*
X317900Y343356D02*
X317900Y325449D01*
D19*
X290097Y162343D03*
X290097Y208063D03*
M02*
