M48
;GenerationSoftware,Autodesk,EAGLE,9.7.0*%
;CreationDate,2024-06-18T20:16:16Z*%
FMAT,2
ICI,OFF
METRIC,TZ,000.000
T7C0.813
T6C0.900
T5C0.990
T4C1.016
T3C1.194
T2C3.000
T1C5.000
%
G90
M71
T1
X7536Y6501
X44429Y31024
T2
X2853Y2727
X2536Y35254
X48185Y2569
X48264Y35254
T3
X21668Y4268
X36828Y4282
X31828Y4282
X21592Y33402
X26592Y33402
X31790Y33440
X36790Y33440
X26668Y4268
T4
X41477Y23178
X44017Y23178
X46557Y23178
X29010Y20806
X29010Y16234
T5
X1765Y21120
X6265Y21120
X1765Y18801
X6265Y18801
X1765Y12301
X6265Y12301
X6265Y27620
X1765Y27620
T6
X42313Y14598
X39773Y14598
T7
X47834Y17780
X47834Y7620
X12700Y25400
X12700Y35560
X20328Y15979
X10168Y15979
X20320Y21262
X10160Y21262
X12700Y2616
X12700Y12776
M30